<?xml version="1.0" encoding="utf-8"?>
<!-- Generator: Adobe Illustrator 24.3.0, SVG Export Plug-In . SVG Version: 6.00 Build 0)  -->
<svg version="1.1" id="Layer_1" xmlns="http://www.w3.org/2000/svg" xmlns:xlink="http://www.w3.org/1999/xlink" x="0px" y="0px"
	 viewBox="0 0 275.4 227.9" style="enable-background:new 0 0 275.4 227.9;" xml:space="preserve">
<style type="text/css">
	.st0{fill:#FFFFFF;}
</style>
<g>
	<path class="st0" d="M119.3,69.1l0.3,143.9c-15.6,1.5-14.6-4.9-14.3,13c-1.1,3.3,18.6,1,21.8,1.7c13.4-0.3,26.9,0.1,40.3,0.1
		c4,1,1.8-9.5,2-12.1c1.6-4.2-8.9-1.5-11.4-2.2c-1.2-0.1-3-0.2-3-1.8l-0.1-196.8c14.3-1.9,15.2,5.4,14.6-11.6c0-2.8,0.1-3-2.8-2.9
		c-5,0.1-9.9-0.5-14.9,0c-13.9-0.1-27.8,0.1-41.6,0.1c-1.5,0.4-4.9-1-4.9,1.4c0.2,17.8-3.6,11.9,13,12.8c1.3,0.1,1.4,0.1,1.3,1.4
		c0,12.6,0.2,25.2-0.2,37.7L119.3,69.1z M225,153.8c0.4,7.8-0.1,15.7,0.3,23.5c-0.3,11.5-0.3,23.2-0.2,34.8c0,0.7-0.1,1.2-1,1.2
		c-2.4,0.7-13.8-1.2-13.2,1.6c0.5,2.2-1.5,13.9,1.6,12.9c12,0,24,0.1,36.1,0.1c8.5-0.3,17.1,0.2,25.6-0.1c2.5-1.2,0.4-10.6,0.9-13.8
		c-3.4-1.7-13.5,2.1-14.4-2.3v-87.4c0-17.3,0-34.7,0.2-52c0.1-19.1-0.5-38.2-0.2-57.2c4.9-0.6,9.8,0.5,14.6-0.7
		c-1.2-2.2,1.8-14.8-1.4-13.7c-18.9-0.4-37.9-0.2-56.8,0c-1.7,0.4-5.6-1-6.1,1.1c-0.1,3.7-0.2,7.4-0.2,11.2
		c-0.2,2.3,0.7,2.2,2.6,2.1c2.9-0.4,5.9-0.1,8.9-0.3c2.7-0.2,2.7,0,2.8,2.7c0.6,5.9-0.1,11.9,0,17.8c0.3,33.6-0.5,67.2,0.2,100.7
		L225,153.8z"/>
	<path class="st0" d="M50,14.6c0.4,0,0.7-0.1,1-0.1h10.3c4.1,0.1,3-1.2,3.4-13c0.1-1-0.1-1.2-1.3-1.3C54.6-0.3,45.8,0.2,37,0
		C25.2,0,13.3,0.2,1.5,0.3C-1,0.1,0.6,11.1,0.1,13.5c0.2,1.5,2.6,1.4,5.3,1h9c0.2,0.9-0.3,2.3,0.1,3.1l0.1,195.2
		c-15.5,1.8-14.4-5.2-14.2,12.5c-0.5,3,2.6,1.9,4.5,1.9c19.2,0.6,38.5,0,57.7,0.3c4,0.7,1.6-9.8,1.9-12.4c0.9-3.8-9.7-1-12.4-2
		c-3.2-0.2-1.9-4.7-2.1-6.9L50,14.6z"/>
</g>
</svg>
