<?xml version="1.0" encoding="utf-8"?>
<!-- Generator: Adobe Illustrator 24.3.0, SVG Export Plug-In . SVG Version: 6.00 Build 0)  -->
<svg version="1.1" id="Layer_1" xmlns="http://www.w3.org/2000/svg" xmlns:xlink="http://www.w3.org/1999/xlink" x="0px" y="0px"
	 viewBox="0 0 1346.05 738.63" enable-background="new 0 0 1346.05 738.63" xml:space="preserve">
<path fill="#A9A8A9" d="M923.32,489.94c0.03-0.49,0.07-0.96,0.11-1.45c1.83-2.37,4.21-2.91,6.69-1.29
	c-0.03,0.44-0.06,0.87-0.09,1.31c22.22-5.66,40.59-19.47,44.2-40.6c0.04-0.42,0.08-0.83,0.12-1.26c0.27-5.91,0.68-16.69,0.57-25.21
	c-0.02-0.23-0.02-0.42-0.03-0.55c-0.26-0.15-0.51-0.3-0.77-0.45c-0.1-0.11-0.21-0.22-0.32-0.22c-64.68-42.04-75.4-86.95-77.2-148.13
	c0.34,52.21,4.64,138.23-0.11,218.83C905.43,491.82,914.57,491.48,923.32,489.94L923.32,489.94z"/>
<path fill="#A9A8A9" d="M1089.23,444.48c2.62,27.38,13.97,42.84,40.44,46.79c0.01-0.5,0.01-0.99,0.02-1.49
	c1.62-2.27,5.4-1.62,6.69,1.19l-0.03,1.02c6.98,0.51,14.87,0.35,23.76-0.47c-3.48-58.55-2.17-120.02-1.06-169.35
	c-7.6,36.72-25.96,67.46-70.25,96.76C1088.73,423.38,1088.58,437.95,1089.23,444.48L1089.23,444.48z"/>
<path fill="#A9A8A9" d="M1073.1,142.5c-0.09,0.2-0.17,0.39-0.27,0.59c0,0-4.35-9.78-7.37-17.73c-0.03,0.04-0.07,0.09-0.1,0.13
	c6.71,17.7,14.87,34.51,24.69,50.07C1083.6,164.92,1078.03,153.87,1073.1,142.5z"/>
<path fill="#A9A8A9" d="M982.07,201.92c-0.05-0.06-0.09-0.12-0.14-0.19c-6.5,4.35-13.17,8.52-19.98,12.49
	c0.04,0.02,0.08,0.05,0.11,0.07C968.88,210.43,975.55,206.3,982.07,201.92L982.07,201.92z"/>
<path fill="#A9A8A9" d="M1008.54,182.25c-4.21,3.36-8.51,6.66-12.91,9.89c0.02,0.05,0.04,0.1,0.07,0.14
	C1000.05,189.04,1004.33,185.69,1008.54,182.25L1008.54,182.25z"/>
<path fill="#D6D7D6" d="M1170.89,644.14c-15.86-25.24-25.85-47.13-32.02-68.34c-4.1,77.99-61.98,113.18-107.9,98
	C991.23,688.26,922,652.09,916.8,577.24c-5.86,19.1-14.71,39.87-28.65,66.9c2.21,19.15,9.38,33.84,19.57,44.54
	c27.36,12.46,56.99,20.46,83.63,19.76c14.67-3.66,28.35-10.45,38.98-19.86c11.06,9.93,25.01,16.93,39.83,20.49
	c21.29,0.71,45.18-3.63,68.74-11.16C1154.49,687.04,1166.46,669.47,1170.89,644.14L1170.89,644.14z M974.22,447.89
	c-3.61,21.14-21.98,34.95-44.2,40.6c-0.16,2.32-0.31,4.59-0.47,6.82C950.57,494.75,970.67,487.84,974.22,447.89z M1136.34,491.99
	c-0.06,1.58-0.12,3.15-0.15,4.7c8.07-0.43,16.37-0.95,24.24,0.03c-0.11-1.73-0.22-3.46-0.32-5.2
	C1151.2,492.34,1143.31,492.5,1136.34,491.99z M1168.98,623.86c3.83-3.07,7.09-6.25,9.85-9.54c-4.23-13.89-7.65-29.14-10.4-45.32
	c-3.66,12.02-7.83,23.21-12.02,31.37C1160.06,608.08,1164.24,615.87,1168.98,623.86L1168.98,623.86z M1089.23,444.48
	c-0.11,0.11-0.22,0.11-0.33,0.21c-1.92,49.22,17.53,53.06,40.72,52.29c0.01-1.89,0.02-3.79,0.04-5.72
	C1103.2,487.31,1091.85,471.85,1089.23,444.48z M974.91,420.89c-0.01,0-0.01-0.01-0.02-0.01c0,0.13,0.01,0.32,0.03,0.55
	C974.91,421.24,974.91,421.06,974.91,420.89L974.91,420.89z M889.7,622.99c4-8.65,7.62-17.22,10.88-25.81
	c-2.39-7-6.93-20.75-11.16-36.13c-2.8,18.22-6.39,35.39-10.97,50.92C881.5,615.78,885.23,619.46,889.7,622.99L889.7,622.99z
	 M922.9,495.33c0.15-1.78,0.28-3.58,0.41-5.39c-8.74,1.54-17.88,1.88-26.82,0.97c-0.08,1.37-0.17,2.74-0.25,4.11
	C904.02,494.19,913.38,495.12,922.9,495.33L922.9,495.33z M1089.23,444.48c-0.65-6.52-0.5-21.1-0.45-25.55
	c-0.06,0.04-0.12,0.08-0.19,0.12C1088.48,428.21,1088.69,439.02,1089.23,444.48L1089.23,444.48z"/>
<path fill="#E1E2E5" d="M1089.12,444.48c-16.61,13.81-38.08,29.23-59.22,34.95c-21.47-6.58-36.9-16.29-55.78-28.48
	c0.02-0.32,0.11-1.92,0.22-4.32c-0.03,0.43-0.08,0.84-0.12,1.26c-3.55,39.94-23.65,46.86-44.67,47.43
	c-2.26,32.22-4.64,55.47-12.76,81.92c5.2,74.86,74.44,111.02,114.17,96.57c45.93,15.17,103.8-20.02,107.9-98
	c-7.47-25.68-9.34-50.38-9.25-78.81c-23.2,0.77-42.64-3.07-40.72-52.29c0.11-0.11,0.22-0.11,0.33-0.21
	c-0.54-5.45-0.75-16.26-0.63-25.42c-0.03,0.02-0.07,0.05-0.1,0.07C1088.37,428.27,1088.58,439.04,1089.12,444.48L1089.12,444.48z
	 M985.24,522.57c-12.52-5.5-21.58-2.91-34.85-0.86c-1.83,0.32-5.5-0.97-5.61-3.67c13.16-2.05,26.43-7.98,39.16-1.29
	C985.67,517.72,985.88,520.95,985.24,522.57L985.24,522.57z M1038.85,627.53c-2.48,8.74-4.85,17.26-5.61,26.32
	c-0.11,1.51-1.51,2.26-2.7,2.16c-1.29-0.11-2.37-0.76-2.59-2.16c-1.4-9.06-3.66-18.01-6.58-26.75c-0.21-0.65,0.54-1.08,0.97-0.65
	c2.27,2.16,4.75,4.53,8.2,4.53c3.56,0,5.18-1.73,7.23-3.99C1038.2,626.45,1039.07,626.88,1038.85,627.53z M1115.33,518.04
	c-0.1,2.7-3.77,3.99-5.61,3.67c-13.26-2.05-22.33-4.64-34.84,0.86c-0.75-1.62-0.54-4.85,1.3-5.82
	C1088.9,510.06,1102.17,515.99,1115.33,518.04L1115.33,518.04z M1136.18,496.69c-1.02,40.42,4.99,71.48,20.23,103.68
	c4.19-8.15,8.36-19.35,12.02-31.37c-3.85-22.67-6.39-47.16-8.01-72.28C1152.55,495.74,1144.25,496.25,1136.18,496.69z M922.9,495.33
	c-9.52-0.21-18.89-1.13-26.66-0.31c-1.43,22.8-3.61,45.11-6.83,66.03c4.24,15.38,8.77,29.13,11.16,36.13
	C912.64,565.42,919.78,533.35,922.9,495.33z"/>
<path fill="#C8C8C8" d="M974.34,446.63c-0.11,2.39-0.2,3.99-0.22,4.32c18.88,12.19,34.31,21.9,55.78,28.48
	c21.14-5.72,42.61-21.14,59.22-34.95c-0.54-5.44-0.75-16.21-0.63-25.36c-0.55,0.36-1.09,0.72-1.64,1.08
	c-0.1,0.11-0.21,0.22-0.32,0.22c-5.18,3.13-10.35,5.93-15.53,8.74c-12.73,7.34-26.43,13.16-40.67,17.37h-0.11
	c-19.88-6.27-37.35-14.96-55.31-25.64c0,0.18,0.01,0.36,0.01,0.54C975.02,429.95,974.61,440.72,974.34,446.63L974.34,446.63z"/>
<path fill="#C9C9C9" d="M1170.49,678.2c10.97-17.24,10.75-29.03,11.3-34.17c-4.66-6.92-8.92-13.61-12.81-20.17
	c-4.74-7.99-8.92-15.78-12.57-23.5c-15.24-32.2-21.25-63.26-20.23-103.68c0.04-1.55,0.09-3.12,0.15-4.7l0.03-1.02
	c-1.29-2.8-5.07-3.45-6.69-1.19c-0.01,0.5-0.01,0.99-0.02,1.49c-0.02,1.92-0.04,3.83-0.04,5.72c-0.09,28.43,1.78,53.13,9.25,78.81
	c6.17,21.21,16.15,43.1,32.02,68.34c-4.43,25.33-16.4,42.9-31.99,53.77c7.88-2.52,15.72-5.39,23.41-8.55
	c0.45-0.54,0.9-1.08,1.34-1.64C1166.32,684.38,1168.57,681.21,1170.49,678.2L1170.49,678.2z M1030.33,688.58
	c-10.63,9.41-24.31,16.2-38.98,19.86c14.04-0.37,27.25-3.15,38.87-8.97c0.04,0.02,0.07,0.04,0.11,0.05
	c0.14-0.13,0.29-0.25,0.43-0.38c0.48,0.45,0.96,0.9,1.44,1.34c10.95,5.43,23.88,8.11,37.96,8.58
	C1055.34,705.52,1041.38,698.51,1030.33,688.58L1030.33,688.58z M888.15,644.14c13.95-27.03,22.79-47.8,28.65-66.9
	c8.11-26.45,10.5-49.7,12.76-81.92c0.16-2.23,0.31-4.5,0.47-6.82c0.03-0.44,0.06-0.87,0.09-1.31c-2.48-1.62-4.85-1.08-6.69,1.29
	c-0.03,0.49-0.07,0.97-0.11,1.45c-0.13,1.81-0.27,3.61-0.41,5.39c-3.12,38.03-10.26,70.09-22.32,101.86
	c-3.26,8.59-6.89,17.15-10.88,25.81c-3.22,6.97-6.68,14-10.4,21.15c-0.09,0.09,0.18,16.46,6.87,32.35c0.23,0.54,0.46,1.08,0.7,1.61
	c6.73,3.78,13.71,7.33,20.85,10.58C897.53,677.98,890.35,663.29,888.15,644.14L888.15,644.14z"/>
<path fill="#D6D7D6" d="M983.94,516.75c-12.73-6.69-26-0.76-39.16,1.29c0.11,2.7,3.78,3.99,5.61,3.67
	c13.27-2.05,22.33-4.64,34.85,0.86C985.88,520.95,985.67,517.72,983.94,516.75L983.94,516.75z M1074.88,522.57
	c12.51-5.5,21.58-2.91,34.84-0.86c1.84,0.32,5.51-0.97,5.61-3.67c-13.16-2.05-26.43-7.98-39.15-1.29
	C1074.34,517.72,1074.13,520.95,1074.88,522.57L1074.88,522.57z M1037.77,626.99c-2.05,2.26-3.67,3.99-7.23,3.99
	c-3.45,0-5.93-2.37-8.2-4.53c-0.43-0.43-1.18,0-0.97,0.65c2.92,8.74,5.18,17.69,6.58,26.75c0.22,1.4,1.3,2.05,2.59,2.16
	c1.19,0.11,2.59-0.65,2.7-2.16c0.76-9.06,3.13-17.58,5.61-26.32C1039.07,626.88,1038.2,626.45,1037.77,626.99z"/>
<g>
	<path fill="#EEC945" d="M1245.22,504.45c-1.96-3.82-3.89-7.71-5.79-11.63l0,0c5.66,43.75,21.71,109.51,44.37,151.18
		c15.93-6.22,31.68-12.97,47.18-20.25c0.82-0.39,1.63-0.79,2.42-1.2c-6.18-4.69-12.24-10.03-18.18-15.92
		c-0.16-0.16-0.33-0.32-0.49-0.48c-0.27-0.27-0.55-0.54-0.82-0.82c-17.33-17.34-37.71-43.44-59.23-83.09
		C1251.46,516.41,1248.3,510.47,1245.22,504.45z"/>
	<path fill="#EEC945" d="M1148.38,33.55c13.46,11.98,22.92,22.61,21.97,21.42c54.39,63.47,83.5,154.91,175.7,188.9V0h-248.63
		C1117.44,7.71,1133.97,19.17,1148.38,33.55L1148.38,33.55z"/>
	<path fill="#EEC945" d="M1346.05,271.23c-1.29,1.05-2.6,2.03-3.94,2.92h0.09c-1.27,0.82-2.59,1.59-3.93,2.31
		c-0.27,0.15-0.53,0.3-0.8,0.44c-0.05,0.03-0.1,0.05-0.15,0.08c-5.12,2.68-10.43,4.39-15.6,5.39c-0.47,0.09-0.95,0.17-1.42,0.25
		c-0.32,0.05-0.64,0.11-0.95,0.16c-0.59,0.09-1.17,0.17-1.77,0.24c-0.19,0.02-0.38,0.05-0.57,0.07c-1.65,0.19-3.32,0.32-5.02,0.38
		c-0.7,0.03-1.39,0.04-2.07,0.05h-0.27c-2.78,0.01-5.43-0.15-7.88-0.43l1.38,1.1c13.14,17.31,27.53,32.37,42.9,45.65V271.23z"/>
	<path fill="#EEC945" d="M1300.53,282.92c0.07,0.09,0.14,0.18,0.2,0.27c0.03-0.08,0.05-0.15,0.08-0.23
		C1300.72,282.95,1300.62,282.94,1300.53,282.92z"/>
	<path fill="#EEC945" d="M1340.36,627.53L1340.36,627.53c-2.34-1.56-4.66-3.23-6.96-4.98c-0.79,0.41-1.6,0.81-2.42,1.2
		c-15.5,7.29-31.25,14.04-47.18,20.25c7.07,13,14.77,23.65,23.01,30.55c-17.9,10.15-33.69,15.44-47.61,16.64
		c-22.54,1.94-40.16-6.89-53.93-23.34c0,0,0,0,0,0c-11.18-13.37-19.81-31.77-26.44-53.53c-2.76,3.29-6.01,6.48-9.85,9.54l0,0
		c3.89,6.56,8.15,13.25,12.81,20.17c-0.55,5.14-0.33,16.93-11.3,34.17c0,0,0,0,0,0c0,0,0,0,0,0c-1.92,3.01-4.17,6.18-6.83,9.52v0
		c-0.43,0.54-0.88,1.09-1.32,1.62c-0.01,0-0.02,0.01-0.03,0.01c-7.7,3.16-15.54,6.03-23.41,8.55
		c-23.56,7.53-47.45,11.87-68.74,11.16c-14.07-0.47-27.01-3.15-37.96-8.58c0,0,0,0,0,0c-0.48-0.44-0.96-0.87-1.43-1.33
		c-0.15,0.13-0.3,0.25-0.44,0.38c0,0-0.01,0-0.01-0.01c-0.04-0.02-0.07-0.04-0.11-0.05c-11.62,5.82-24.83,8.6-38.87,8.97
		c-26.64,0.7-56.26-7.3-83.63-19.76c-7.13-3.25-14.11-6.8-20.85-10.58c-1.4-0.79-2.8-1.59-4.19-2.4c0.01,0,0.01,0,0.02,0
		c1.38,0.8,2.78,1.61,4.18,2.39c-0.24-0.54-0.48-1.08-0.7-1.61c0,0,0,0,0,0c-6.69-15.9-6.96-32.26-6.87-32.35v0
		c3.72-7.15,7.17-14.18,10.4-21.15c-4.47-3.52-8.2-7.21-11.25-11.02c-5.41,18.37-12.2,34.45-20.7,47.25c0,0-0.01-0.01-0.01-0.01
		c-11.6,17.48-26.38,28.85-45.16,31.61c-17.33,2.55-38.06-2.21-62.85-16.27c8.77-7.35,16.94-18.95,24.37-33.1c0,0,0.01,0,0.01,0.01
		c23.8-45.3,40.05-116.79,44.21-159.06c-4.22,8.88-8.58,17.65-13.08,26.23l0,0c-30.89,60.35-59.9,92.36-81.46,109.72
		c0,0-0.01-0.01-0.01-0.01c-3.85,3.1-7.47,5.74-10.82,7.99c-20.41,8.99-46.9,13.38-76.55,14.14
		c-88.81,2.3-205.92-28.06-272.43-65.27c-0.11,0-0.22-0.11-0.32-0.11c0-0.43,54.73-50.33,75.57-64.29
		c-38.53,15.65-100.08,41.62-109.65,82.84c-25.57,18.23-70.77,39.37-80.91-5.72c129.67-179.71,374.01-135.7,501.51-303.76l1.21-0.97
		c-2.1,0.2-4.33,0.3-6.65,0.3h-0.28c-0.65-0.01-1.31-0.02-1.97-0.05c-4.87-0.16-9.58-0.87-14.06-2.09c-0.15-0.04-0.3-0.08-0.46-0.12
		c-0.57-0.16-1.13-0.33-1.69-0.5c-0.28-0.09-0.56-0.17-0.83-0.27c-0.53-0.17-1.06-0.36-1.58-0.54c-0.26-0.09-0.52-0.19-0.77-0.29
		c-0.59-0.22-1.17-0.45-1.75-0.69c-0.08-0.03-0.15-0.07-0.23-0.1c-3.14-1.32-6.13-2.89-8.92-4.71c0.05,0,0.09-0.01,0.13-0.01
		c-7.93-5.3-15.16-13.28-20.41-25.02c50.43-13.74,83.43-43.48,110.45-78.1c-7.7,2.3-15.68,2.91-22.21,1.19
		c-3.67-0.86-7.34-2.48-9.71-5.39c0,0,6.47-4.42,10.03-8.41c5.5-6.15,11.54-12.08,18.66-16.5c4.83-3.05,11.51-5.84,17.91-7.24
		c-2.6-0.79-4.32-1.92-4.32-1.92c-2.91-1.83-5.39-4.42-7.01-7.44c-3.02-5.5-3.24-12.19-1.94-18.34c1.4-6.15,7.33-16.5,7.33-16.5
		s10.36,9.06,14.46,12.62c4.1,3.56,7.77,8.09,8.74,13.48c0,0,0.07,0.2,0.18,0.57c1.93-6.69,5.92-12.88,10.83-17.93
		c4.07-4.27,8.79-7.9,13.7-11.25c7.92-11.49,16.14-22.61,25.02-32.97c-0.56,0.7,2.44-2.64,7.7-7.91
		C908.56,26.5,928.09,10.25,953.16,0H0v738.63h1346.05V629.84C1344.11,629.1,1342.2,628.34,1340.36,627.53z M878.53,673.23
		c-6.46-3.92-12.63-8.04-18.43-12.28C865.89,665.18,872.07,669.3,878.53,673.23z"/>
</g>
<path fill="#D6D7D6" d="M896.6,272.08c1.8,61.18,12.51,106.09,77.2,148.13c0.11,0,0.22,0.11,0.32,0.22c0.26,0.15,0.51,0.3,0.77,0.45
	c0.01,0,0.01,0.01,0.02,0.01c17.96,10.68,35.43,19.37,55.31,25.64h0.11c14.24-4.21,27.94-10.03,40.67-17.37
	c5.18-2.8,10.35-5.61,15.53-8.74c0.11,0,0.22-0.11,0.32-0.22c0.56-0.36,1.09-0.72,1.64-1.08c0.03-0.02,0.07-0.05,0.1-0.07
	c0.06-0.04,0.12-0.08,0.19-0.12c44.3-29.3,62.65-60.05,70.25-96.76c0.7-31.09,1.33-57.36,0.63-75.03c-0.04-0.21-0.08-0.42-0.11-0.6
	c-15.43-9.84-28.56-20.68-39.84-32.34c-4.53-0.05-9.24,0.2-14.07,0.83c2.47,2.82,4.67,5.4,6.45,7.67c0.73,0.92,1.51,1.92,2.34,2.99
	c1.04-1.99,2.55-3.25,4.56-3.1c4.75,0.4,6.43,9.72,5.19,16.64c19.37,29.64,40.68,83.42-18.13,151.52
	c-11.22,14.45-44.23,36.46-76.6,44.98c-40.45-11.22-75.29-41.1-90.83-57.49c-12.08-12.73-31.39-48.76-29.23-77.13
	c2.16-28.37,41.32-28.48,41.32-28.48s48.98-7.12,47.78,10.68c-0.86,13.27-1.18,22.11-1.07,40.02c0.1,6.9,9.38,16.07,16.72,17.15
	c31.93,4.64,34.62-7.87,33.98-16.72c-8.96,8.2-12.95,8.85-22.76,7.01c-7.66-1.4-9.07-5.83-9.07-8.84
	c-0.43-28.91,3.35-79.5,6.05-111.43c0.43-6.04,3.55-13.38,7.65-17.8c12.95-14.45,20.72-25.35,31.07-36.78
	c7.71,17,22.99,34.78,35.65,49.03c4.85-0.76,9.38-0.84,14.22-0.43c-7.89-9.24-14.78-18.92-20.88-28.97
	c-9.83-15.56-17.98-32.37-24.69-50.07c-15.31,19.58-34.67,39.05-56.82,56.76c-4.2,3.44-8.49,6.79-12.84,10.03
	c2.94,5.91,3.6,11.79-1.07,14.34c-4.85,2.64-9.22-0.04-12.55-4.71c-6.52,4.38-13.2,8.51-20,12.37c13.9,8.33,26.36,26.81,24.57,46.48
	c-6.78-18.68-22.84-34.62-37.76-39.28c-7.89,4.18-15.94,8.06-24.12,11.61c3.29,6.54,2.94,19.09-2.52,20.01
	c-4.91,0.83-7.96-8.59-7.49-15.85c-5.84,2.31-11.73,4.44-17.66,6.37c-0.06,0.69-0.1,1.07-0.1,1.07
	C896.62,252.2,896.53,261.44,896.6,272.08L896.6,272.08z M961.29,234.56c8.41-1.62,10.78,22.54,3.13,23.84
	C956.76,259.7,953.63,236.07,961.29,234.56L961.29,234.56z M941.76,228.31c9.71-1.29,11.22,28.15,2.27,29.12
	C935.18,258.29,932.92,229.38,941.76,228.31L941.76,228.31z"/>
<path fill="#E1E2E5" d="M1053.41,260.88c-3.77-23.62,13.16-46.82,29.67-52.42c5.08-1.72,9.48-2.85,13.64-3.5
	c-12.66-14.25-27.94-32.03-35.65-49.03c-10.35,11.43-18.12,22.33-31.07,36.78c-4.1,4.42-7.22,11.76-7.65,17.8
	c-2.7,31.93-6.48,82.52-6.05,111.43c0,3.02,1.41,7.44,9.07,8.84c9.81,1.83,13.8,1.19,22.76-7.01c0.64,8.85-2.05,21.36-33.98,16.72
	c-7.34-1.08-16.62-10.25-16.72-17.15c-0.11-17.91,0.21-26.75,1.07-40.02c1.19-17.8-47.78-10.68-47.78-10.68s-39.16,0.11-41.32,28.48
	c-2.16,28.37,17.15,64.4,29.23,77.13c15.53,16.4,50.38,46.28,90.83,57.49c32.37-8.52,65.38-30.53,76.6-44.98
	c58.81-68.1,37.51-121.89,18.13-151.52c-0.76,4.24-2.6,7.58-5.51,7.41c-5.93-0.33-7.58-14.53-4.24-20.96
	c-0.83-1.06-1.61-2.06-2.34-2.99c-1.79-2.27-3.98-4.85-6.45-7.67c-4.93,0.64-9.99,1.69-15.13,3.25
	C1075.31,223.02,1059.13,240.82,1053.41,260.88L1053.41,260.88z M1077.69,232.73c7.76,0.65,7.44,24.49-0.33,24.05
	C1069.59,256.35,1069.16,232.08,1077.69,232.73L1077.69,232.73z M1029.36,242.54c0-0.65,0.54-1.08,1.08-1.08h3.23
	c0.65,0,1.08,0.54,1.08,1.08v0.54c0,0.65-0.43,1.08-1.08,1.08h-3.23c-0.65,0-1.08-0.54-1.08-1.08V242.54z M1031.41,248.69
	c1.72,0,3.12,1.4,3.12,3.13s-1.4,3.13-3.12,3.13c-1.73,0-3.13-1.4-3.13-3.13C1028.28,250.1,1029.68,248.69,1031.41,248.69z
	 M1040.36,319.02c-0.86,3.02-5.39,5.07-11,3.99c-1.73-0.32-4.53-3.99-4.43-5.72c0.76-9.28,0.54-31.39,2.49-54.37
	c0.32-4.1,6.25-3.99,6.58,0.11c1.29,17.15-0.98,41.53,1.51,48.76C1037.12,316.33,1042.3,312.66,1040.36,319.02L1040.36,319.02z
	 M1067.22,174.26c6.47,2.8-3.45,37.65-17.15,30.2C1038.42,198.1,1059.89,171.14,1067.22,174.26z M929.57,300.47
	c-16.72-17.8,65.37-32.04,54.69-1.19C969.49,313.31,943.92,311.47,929.57,300.47z M1019.32,356.24c3.35,1.62,5.83,4.32,7.99,4.32
	h0.32c2.16-0.22,4.53-3.02,7.66-4.86c9.28-2.16,31.39,13.48,46.06,10.46c-25.13,12.41-31.28-0.22-53.18,0.54h-1.19
	c-21.79,0.86-26.97,13.92-52.86,3.24C989.01,371.88,1009.94,354.84,1019.32,356.24L1019.32,356.24z M1037.02,396.37
	c-1.84,2.27-5.4,3.67-9.17,4.21h-0.87c-3.99-0.22-7.66-1.4-9.6-3.56c0.97-2.59,2.05-3.88,6.91-3.56v-0.11
	c0.97,0.11,1.83,0.11,2.8,0.11c0.86-0.11,1.84-0.22,2.81-0.32v0.11C1034.75,392.59,1035.83,393.78,1037.02,396.37L1037.02,396.37z
	 M1028.17,384.07h-1.51c-7.34-0.11-14.24-1.08-17.69-3.13c1.94-2.59,3.88-3.88,12.94-3.67v-0.11h5.29c1.73-0.11,3.56-0.21,5.29-0.43
	v0.11c8.95-0.76,11.11,0.32,13.16,2.8C1042.3,382.02,1035.51,383.42,1028.17,384.07L1028.17,384.07z M1129.47,295.83
	c-14.78,14.02-46.39,9.82-62.03,0.76C1054.28,281.38,1138.42,263.04,1129.47,295.83z M1096.35,224.21
	c8.84,0.11,9.92,29.12,1.08,29.12C1088.47,253.44,1086.53,224.1,1096.35,224.21z"/>
<path fill="#EAECED" d="M1032.49,376.84v-0.11c-1.73,0.22-3.56,0.32-5.29,0.43h-5.29v0.11c-9.06-0.22-11,1.08-12.94,3.67
	c3.45,2.05,10.35,3.02,17.69,3.13h1.51c7.34-0.65,14.13-2.05,17.48-4.42C1043.6,377.16,1041.44,376.09,1032.49,376.84
	L1032.49,376.84z"/>
<path fill="#D6D7D6" d="M1027.09,393.45c-0.97,0-1.83,0-2.8-0.11v0.11c-4.86-0.32-5.94,0.97-6.91,3.56c1.94,2.16,5.61,3.34,9.6,3.56
	h0.87c3.77-0.54,7.33-1.94,9.17-4.21c-1.19-2.59-2.27-3.77-7.12-3.13v-0.11C1028.93,393.24,1027.95,393.35,1027.09,393.45z"/>
<path fill="#EAECED" d="M929.57,300.47c14.35,11,39.91,12.84,54.69-1.19C994.94,268.43,912.85,282.67,929.57,300.47z
	 M1067.44,296.59c15.64,9.06,47.25,13.27,62.03-0.76C1138.42,263.04,1054.28,281.38,1067.44,296.59z M1035.51,311.8
	c-2.49-7.23-0.22-31.61-1.51-48.76c-0.33-4.1-6.26-4.21-6.58-0.11c-1.95,22.98-1.73,45.09-2.49,54.37c-0.1,1.73,2.7,5.39,4.43,5.72
	c5.61,1.08,10.14-0.97,11-3.99C1042.3,312.66,1037.12,316.33,1035.51,311.8L1035.51,311.8z M1031.41,254.95
	c1.72,0,3.12-1.4,3.12-3.13s-1.4-3.13-3.12-3.13c-1.73,0-3.13,1.4-3.13,3.13S1029.68,254.95,1031.41,254.95z M1030.44,244.16h3.23
	c0.65,0,1.08-0.43,1.08-1.08v-0.54c0-0.54-0.43-1.08-1.08-1.08h-3.23c-0.54,0-1.08,0.43-1.08,1.08v0.54
	C1029.36,243.62,1029.79,244.16,1030.44,244.16z"/>
<path fill="#A9A8A9" d="M1026.98,366.7h1.19c21.9-0.76,28.05,11.87,53.18-0.54c-14.67,3.02-36.78-12.62-46.06-10.46
	c-3.13,1.83-5.5,4.64-7.66,4.86h-0.11h-0.21c-2.16,0-4.64-2.7-7.99-4.32c-9.38-1.4-30.31,15.64-45.2,13.7
	C1000.01,380.62,1005.19,367.56,1026.98,366.7z M964.42,258.4c7.65-1.29,5.29-25.46-3.13-23.84
	C953.63,236.07,956.76,259.7,964.42,258.4z M922.24,253.12c5.46-0.92,5.82-13.47,2.52-20.01c-3.32,1.44-6.66,2.83-10.01,4.15
	C914.28,244.52,917.32,253.95,922.24,253.12z M1096.72,204.96c-4.16,0.65-8.56,1.77-13.64,3.5c-16.51,5.61-33.44,28.8-29.67,52.42
	c5.72-20.06,21.9-37.86,37.11-42.61c5.14-1.56,10.2-2.61,15.13-3.25c4.83-0.63,9.53-0.87,14.07-0.83c-3.06-3.16-5.98-6.39-8.78-9.67
	C1106.1,204.12,1101.57,204.2,1096.72,204.96L1096.72,204.96z"/>
<path fill="#A9A8A9" d="M1097.43,253.33c8.84,0,7.76-29.02-1.08-29.12C1086.53,224.1,1088.47,253.44,1097.43,253.33z
	 M1077.36,256.78c7.77,0.43,8.09-23.41,0.33-24.05C1069.16,232.08,1069.59,256.35,1077.36,256.78z M1118.68,246.64
	c2.91,0.16,4.76-3.17,5.51-7.41c1.24-6.92-0.44-16.24-5.19-16.64c-2.02-0.15-3.53,1.1-4.56,3.1
	C1111.1,232.11,1112.75,246.31,1118.68,246.64z M1050.07,204.47c13.7,7.44,23.62-27.4,17.15-30.2
	C1059.89,171.14,1038.42,198.1,1050.07,204.47z M986.64,260.77c1.79-19.68-10.67-38.16-24.57-46.48c-0.04-0.02-0.08-0.05-0.11-0.07
	c-4.3,2.51-8.67,4.94-13.08,7.27C963.8,226.15,979.86,242.09,986.64,260.77z M944.03,257.43c8.95-0.97,7.44-30.42-2.27-29.12
	C932.92,229.38,935.18,258.29,944.03,257.43z M994.62,206.62c4.68-2.55,4.01-8.43,1.07-14.34c-0.02-0.05-0.04-0.1-0.07-0.14
	c-4.47,3.28-9.04,6.48-13.69,9.59c0.04,0.06,0.09,0.13,0.14,0.19C985.4,206.59,989.77,209.26,994.62,206.62z"/>
<path fill="#EAECED" d="M723.87,279.94c-0.26-0.09-0.52-0.19-0.77-0.29C723.35,279.75,723.61,279.85,723.87,279.94z M721.35,278.96
	c-0.08-0.03-0.15-0.07-0.23-0.1C721.19,278.9,721.27,278.93,721.35,278.96z M891.75,47.05c-5.26,5.27-8.26,8.61-7.7,7.91
	c-8.89,10.37-17.1,21.48-25.02,32.97c2.67-1.82,5.4-3.57,8.12-5.29C874.87,69.77,882.94,57.82,891.75,47.05L891.75,47.05z
	 M726.28,280.75c-0.28-0.09-0.56-0.17-0.83-0.27C725.73,280.57,726,280.66,726.28,280.75z M728.43,281.37
	c-0.15-0.04-0.3-0.08-0.46-0.12C728.13,281.29,728.28,281.33,728.43,281.37z M744.46,283.51c-0.66,0-1.32-0.02-1.97-0.05
	C743.15,283.48,743.81,283.5,744.46,283.51z M744.74,283.51c2.32,0.01,4.55-0.1,6.65-0.3l0.09-0.08
	C749.21,283.37,746.96,283.5,744.74,283.51L744.74,283.51z M797.71,213.41c10.02-17.52,19.03-34.81,27.55-51.55
	c0.15-0.97,0.33-1.94,0.53-2.91l0.64-3.09c-5.36,6.84-14.48,12.31-24.05,15.17c-27.02,34.62-60.02,64.35-110.45,78.1
	c5.26,11.73,12.48,19.72,20.41,25.02C746.86,272.42,774.93,241.28,797.71,213.41L797.71,213.41z"/>
<path fill="#E1E2E5" d="M752.04,282.69c0.06-0.08,0.12-0.16,0.19-0.23c17.65-22.94,32.42-46.19,45.48-69.05
	c-22.78,27.88-50.84,59.01-85.37,60.74c-0.05,0-0.09,0.01-0.13,0.01c2.79,1.83,5.78,3.4,8.92,4.71c0.08,0.03,0.15,0.07,0.23,0.1
	c0.58,0.24,1.16,0.47,1.75,0.69c0.26,0.1,0.51,0.19,0.77,0.29c0.52,0.19,1.05,0.37,1.58,0.54c0.28,0.09,0.55,0.18,0.83,0.27
	c0.56,0.17,1.12,0.34,1.69,0.5c0.15,0.04,0.3,0.08,0.46,0.12c4.48,1.21,9.19,1.93,14.06,2.09c0.66,0.02,1.31,0.04,1.97,0.05h0.28
	c2.22,0,4.47-0.13,6.74-0.37L752.04,282.69z"/>
<path fill="#EAECED" d="M891.75,47.05c-8.81,10.77-16.88,22.72-24.61,35.6c0.49-0.31,0.99-0.62,1.48-0.93c0,0-5.07,32.14-8.85,36.89
	c0,0-0.1,0.35-0.34,0.94c3.85-0.76,7.71-1.16,11.56-1.27c10.14-0.32,18.55-3.67,18.55-3.67c-2.8,15.21-14.02,27.61-29.02,31.6
	c-3.45,0.97-7.33,1.4-10.68,0c-0.17-0.07-0.32-0.15-0.49-0.23c4.4,16.76,2.06,26.22,0.59,34.64c-1.83,10.79-10.68,18.66-10.68,18.66
	c-7.12-4.21-10.36-7.98-12.84-15.86c-2.09-6.95-2.34-14.31-1.18-21.58c-8.52,16.74-17.54,34.03-27.55,51.55
	c-13.07,22.86-27.84,46.11-45.48,69.05c-0.06,0.08-0.12,0.16-0.19,0.23l0.29-0.23c46.49,129.55-101.73,142.93-312.84,228.25
	c-0.09,0.04-0.18,0.07-0.27,0.11c-20.83,13.96-75.57,63.86-75.57,64.29c0.11,0,0.22,0.11,0.32,0.11
	c66.51,37.22,183.62,67.57,272.43,65.27c-88.83,2.27-205.94-28.1-272.43-65.38c9.49,2.53,18.91,4.93,28.28,7.2
	c0.07-0.1,0.15-0.2,0.2-0.3c0.44,0.22,0.86,0.44,1.27,0.66c70.93,17.06,139.39,25.66,219.33,10.88
	c92.56-17.04,165.7-184.67,213.81-266.76c-3.78,53.72-6.26,123.94-9.06,155.87c-4.22,9.2-8.41,17.84-12.57,25.97
	c4.5-8.58,8.87-17.35,13.08-26.23c0.09-0.9,0.17-1.78,0.25-2.65c5.18-57.6,16.94-230.73,16.94-230.73s-1.62-67.09,32.26-64.61
	c32.63,2.38,29.97,51.36,29.33,59.23c5.93-1.94,11.82-4.07,17.66-6.37c3.36-1.33,6.69-2.71,10.01-4.15
	c8.18-3.55,16.23-7.44,24.12-11.61c4.41-2.34,8.77-4.76,13.08-7.27c6.81-3.97,13.48-8.14,19.98-12.49
	c4.65-3.11,9.22-6.31,13.69-9.59c4.4-3.23,8.71-6.53,12.91-9.89c22.15-17.71,41.51-37.18,56.82-56.76c0.03-0.04,0.07-0.09,0.1-0.13
	c-0.02-0.06-0.05-0.12-0.07-0.18c0.15-0.23,0.33-0.47,0.49-0.71c-4.81-13.52-32.93-96.45-18.9-124.48h-93.81
	C928.09,10.25,908.56,26.5,891.75,47.05L891.75,47.05z"/>
<path fill="#EAECED" d="M392.46,582.01c-0.05,0.1-0.12,0.2-0.2,0.3l1.47,0.36C393.31,582.45,392.9,582.23,392.46,582.01z
	 M752.33,282.46l-0.29,0.23l-0.56,0.45l-0.09,0.08l-1.21,0.97C622.66,452.24,378.33,408.23,248.66,587.94
	c10.14,45.09,55.34,23.95,80.91,5.72c9.58-41.22,71.13-67.19,109.65-82.84c0.09-0.04,0.18-0.07,0.27-0.11
	C650.6,425.38,798.83,412.01,752.33,282.46L752.33,282.46z M857.75,659.22c8.49-12.8,15.28-28.88,20.7-47.25
	c4.58-15.53,8.17-32.7,10.97-50.92c3.22-20.92,5.4-43.23,6.83-66.03c0.09-1.37,0.17-2.74,0.25-4.11
	c4.74-80.6,0.45-166.62,0.11-218.83c-0.07-10.64,0.02-19.88,0.39-27.37c0,0,0.04-0.38,0.1-1.07c0.64-7.87,3.3-56.85-29.33-59.23
	c-33.87-2.48-32.26,64.61-32.26,64.61s-11.76,173.13-16.94,230.73c-0.08,0.87-0.16,1.75-0.25,2.65
	c-4.16,42.27-20.41,113.76-44.21,159.06c-7.43,14.15-15.6,25.75-24.37,33.1c24.79,14.06,45.52,18.82,62.85,16.27
	C831.37,688.06,846.15,676.7,857.75,659.22L857.75,659.22z"/>
<path fill="#E1E2E5" d="M805.24,508.63c4.16-8.13,8.36-16.77,12.57-25.97c2.8-31.93,5.29-102.15,9.06-155.87
	c-48.11,82.09-121.25,249.72-213.81,266.76c-79.94,14.77-148.4,6.18-219.33-10.88l-1.47-0.36c-9.37-2.27-18.79-4.68-28.28-7.2
	c66.48,37.28,183.6,67.65,272.43,65.38c29.65-0.76,56.14-5.15,76.55-14.14c3.35-2.25,6.97-4.89,10.82-7.99
	C745.34,600.99,774.35,568.98,805.24,508.63L805.24,508.63z"/>
<path fill="#EAECED" d="M1301.77,283.08c2.46,0.28,5.1,0.44,7.88,0.43c-2.63-0.01-5.3-0.19-7.99-0.52L1301.77,283.08z
	 M1337.32,276.98c-4.82,2.48-10.06,4.31-15.6,5.39C1326.89,281.37,1332.19,279.66,1337.32,276.98z M1320.29,282.61
	c-0.32,0.05-0.63,0.11-0.95,0.16C1319.65,282.72,1319.97,282.67,1320.29,282.61z M1317.57,283.01c-0.19,0.02-0.38,0.05-0.57,0.07
	C1317.19,283.06,1317.38,283.04,1317.57,283.01z M1170.35,54.96c0.95,1.19-8.52-9.44-21.97-21.42
	c40.71,40.62,64.53,104.48,102.46,172.65c23.78,29.43,53.7,66.1,91.27,67.95c1.34-0.89,2.65-1.87,3.94-2.92v-27.36
	C1253.85,209.87,1224.74,118.43,1170.35,54.96z M1338.27,276.46c-0.27,0.14-0.53,0.3-0.8,0.44
	C1337.74,276.76,1338,276.61,1338.27,276.46z M1300.84,282.89c-0.12-0.02-0.25-0.03-0.37-0.05c0.02,0.03,0.04,0.05,0.06,0.08
	c0.1,0.01,0.19,0.03,0.28,0.04C1300.82,282.94,1300.83,282.92,1300.84,282.89L1300.84,282.89z M1311.99,283.46
	c-0.69,0.02-1.38,0.05-2.07,0.05C1310.6,283.5,1311.29,283.48,1311.99,283.46z"/>
<path fill="#E1E2E5" d="M1300.99,282.46l0.67,0.53c2.7,0.33,5.37,0.51,7.99,0.52h0.27c0.69,0,1.38-0.02,2.07-0.05
	c1.69-0.06,3.37-0.19,5.02-0.38c0.19-0.02,0.38-0.04,0.57-0.07c0.59-0.07,1.18-0.15,1.77-0.24c0.32-0.05,0.64-0.1,0.95-0.16
	c0.47-0.08,0.95-0.16,1.42-0.25c5.54-1.08,10.78-2.9,15.6-5.39c0.05-0.03,0.1-0.05,0.15-0.08c0.27-0.14,0.53-0.3,0.8-0.44
	c1.34-0.72,2.66-1.49,3.93-2.31c-0.03,0-0.06,0-0.09-0.01c-37.57-1.85-67.49-38.51-91.27-67.95c14.07,25.28,30.08,51.15,49.63,76.65
	c0.12,0.02,0.25,0.03,0.37,0.05C1300.89,282.75,1300.94,282.6,1300.99,282.46L1300.99,282.46z"/>
<path fill="#EAECED" d="M1303.15,284.18l-1.38-1.1l-0.11-0.09l-0.67-0.53c-0.05,0.15-0.1,0.29-0.15,0.44
	c-0.01,0.02-0.02,0.05-0.03,0.07c-0.03,0.08-0.05,0.15-0.08,0.23c0.09,0.11,0.17,0.23,0.26,0.34
	c13.76,17.71,28.94,34.17,45.06,49.54v-3.23C1330.68,316.55,1316.29,301.49,1303.15,284.18z M1315.22,606.63
	c5.94,5.9,12,11.24,18.18,15.92c2.3,1.75,4.62,3.41,6.96,4.98c1.84,0.81,3.75,1.57,5.69,2.31v-0.11c-1.94-0.74-3.85-1.5-5.69-2.31
	C1333.13,622.57,1324.65,615.9,1315.22,606.63z M1314.73,606.14l-0.82-0.82C1314.18,605.6,1314.46,605.87,1314.73,606.14z
	 M1245.22,504.45c3.08,6.02,6.24,11.95,9.46,17.79c-5.07-9.34-10.2-19.43-15.37-30.33c0.04,0.31,0.08,0.61,0.12,0.92
	C1241.33,496.74,1243.26,500.63,1245.22,504.45z"/>
<path fill="#EAECED" d="M1065.88,124.48c2.77-4.03,6.56-8.5,9.11-12.88c3.17,11.12,2.91,20.57-1.89,30.91
	c4.93,11.37,10.5,22.42,16.96,33.06c6.1,10.05,12.99,19.73,20.88,28.97c2.8,3.28,5.72,6.5,8.78,9.67
	c11.29,11.66,24.41,22.5,39.84,32.34c0.03,0.18,0.07,0.39,0.11,0.6c-0.03-0.83-0.07-1.64-0.11-2.43c0,0-6.25-57.71,29.24-60.3
	c33.87-2.48,32.25,64.61,32.25,64.61s2.39,35.12,5.48,78.99c30.36,51.82,70.67,137.6,119.52,198.14V333.07
	c-16.12-15.37-31.3-31.82-45.06-49.54c-0.09-0.11-0.17-0.23-0.26-0.34c-0.07-0.09-0.14-0.18-0.2-0.27
	c-0.02-0.03-0.04-0.05-0.06-0.08c-19.54-25.5-35.56-51.37-49.63-76.65c-37.94-68.17-61.75-132.03-102.46-172.65
	c-14.41-14.37-30.94-25.83-50.96-33.55h-50.44C1032.95,28.03,1061.07,110.95,1065.88,124.48L1065.88,124.48z"/>
<path fill="#E1E2E5" d="M1237.99,479.75c0.34,3.8,0.78,7.88,1.33,12.16c5.17,10.9,10.3,20.99,15.37,30.33
	c21.51,39.65,41.9,65.75,59.23,83.09c0.27,0.28,0.55,0.55,0.82,0.82c0.16,0.16,0.33,0.32,0.49,0.48
	c9.42,9.27,17.91,15.94,25.13,20.79c1.84,0.81,3.75,1.57,5.69,2.31V526.14c-48.85-60.54-89.16-146.31-119.52-198.14
	C1230.31,381.54,1235.14,448.09,1237.99,479.75L1237.99,479.75z"/>
<path fill="#EAECED" d="M1159.04,322.17c-1.12,49.33-2.42,110.8,1.06,169.35c0.1,1.74,0.21,3.47,0.32,5.2
	c1.62,25.12,4.16,49.61,8.01,72.28c2.75,16.18,6.17,31.43,10.4,45.32c6.63,21.76,15.26,40.16,26.44,53.53
	c13.76,16.46,31.39,25.29,53.94,23.35c13.92-1.2,29.7-6.49,47.61-16.64c-8.24-6.91-15.94-17.56-23.01-30.55
	c-22.66-41.67-38.71-107.43-44.37-151.18c-0.04-0.31-0.08-0.61-0.12-0.92c-0.54-4.28-0.99-8.35-1.33-12.16
	c-2.85-31.66-7.68-98.21-11.46-151.74c-3.1-43.87-5.48-78.99-5.48-78.99s1.62-67.09-32.25-64.61c-35.49,2.59-29.24,60.3-29.24,60.3
	c0.04,0.79,0.07,1.6,0.11,2.43C1160.37,264.81,1159.74,291.08,1159.04,322.17L1159.04,322.17z"/>
<path fill="#E1E2E5" d="M1073.1,142.5c4.8-10.34,5.06-19.8,1.89-30.91c-2.55,4.38-6.34,8.86-9.11,12.88
	c-0.16,0.24-0.33,0.48-0.49,0.71c0.02,0.06,0.05,0.12,0.07,0.18c3.02,7.95,7.37,17.73,7.37,17.73
	C1072.92,142.89,1073,142.7,1073.1,142.5z"/>
<path fill="#C9C9C9" d="M835.04,123.39c0.33-0.16,0.66-0.33,1-0.47c4.8-1.67,7.6,0.17,8.82,3.55c3.57-3.56,9.06-5.86,13.83-6.79
	c0.25-0.05,0.49-0.09,0.74-0.14c0.24-0.59,0.34-0.94,0.34-0.94c3.78-4.75,8.85-36.89,8.85-36.89c-0.49,0.31-0.98,0.62-1.48,0.93
	c-2.72,1.72-5.45,3.46-8.12,5.29c-4.92,3.36-9.63,6.98-13.7,11.25c-4.9,5.06-8.89,11.24-10.83,17.93
	C834.79,118.17,835.33,120.57,835.04,123.39z"/>
<path fill="#D6D7D6" d="M840.9,145.79c-2.57,3.32-8.08,6.3-12.37,5.65l0.18,1.03c-0.65,1.16-1.42,2.29-2.28,3.38l-0.64,3.09
	c-0.2,0.97-0.38,1.94-0.53,2.91c-1.16,7.27-0.91,14.63,1.18,21.58c2.48,7.87,5.72,11.65,12.84,15.86c0,0,8.85-7.88,10.68-18.66
	c1.46-8.42,3.81-17.88-0.59-34.64c-2.21-1.05-4.15-2.79-6.36-3.76C842.4,143.5,841.69,144.71,840.9,145.79L840.9,145.79z"/>
<path fill="#BBBBBB" d="M835.04,123.39c0.29-2.81-0.25-5.22-0.55-6.27c-0.1-0.36-0.18-0.57-0.18-0.57
	c-0.97-5.39-4.64-9.92-8.74-13.48s-14.46-12.62-14.46-12.62s-5.93,10.35-7.33,16.5c-1.3,6.15-1.08,12.84,1.94,18.34
	c1.62,3.02,4.1,5.61,7.01,7.44c0,0,1.72,1.13,4.32,1.92c2.79-0.61,5.53-0.96,8.04-0.95C827.24,129.27,830.7,125.51,835.04,123.39
	L835.04,123.39z"/>
<path fill="#C9C9C9" d="M826.43,155.85c0.86-1.09,1.63-2.22,2.28-3.38l-0.18-1.03c-3.11-0.47-5.59-2.83-5.86-8.35
	c0.16-3.24,1.01-6.45,2.43-9.38c-2.51-0.01-5.25,0.34-8.04,0.95c-6.4,1.41-13.08,4.2-17.91,7.24c-7.12,4.42-13.16,10.35-18.66,16.5
	c-3.56,3.99-10.03,8.41-10.03,8.41c2.37,2.91,6.04,4.53,9.71,5.39c6.54,1.72,14.52,1.11,22.21-1.19
	C811.95,168.17,821.07,162.7,826.43,155.85L826.43,155.85z"/>
<path fill="#D6D7D6" d="M844.86,126.47c1.49,4.13,0.63,10.55-1.86,15.75c2.21,0.97,4.15,2.71,6.36,3.76
	c0.16,0.08,0.32,0.16,0.49,0.23c3.34,1.4,7.23,0.97,10.68,0c15-3.99,26.21-16.4,29.02-31.6c0,0-8.41,3.34-18.55,3.67
	c-3.85,0.1-7.7,0.5-11.56,1.27c-0.25,0.05-0.49,0.08-0.74,0.14C853.92,120.61,848.44,122.91,844.86,126.47L844.86,126.47z"/>
<path fill="#A9A8A9" d="M840.9,145.79c0.8-1.08,1.5-2.28,2.11-3.56c2.49-5.2,3.35-11.63,1.86-15.75c-1.22-3.38-4.02-5.22-8.82-3.55
	c-0.34,0.14-0.67,0.31-1,0.47c-4.34,2.12-7.8,5.88-9.95,10.32c-1.41,2.93-2.26,6.14-2.43,9.38c0.27,5.52,2.75,7.88,5.86,8.35
	C832.82,152.09,838.33,149.1,840.9,145.79L840.9,145.79z"/>
</svg>
