<?xml version="1.0" encoding="utf-8"?>
<!-- Generator: Adobe Illustrator 24.3.0, SVG Export Plug-In . SVG Version: 6.00 Build 0)  -->
<svg version="1.1" id="Layer_1" xmlns="http://www.w3.org/2000/svg" xmlns:xlink="http://www.w3.org/1999/xlink" x="0px" y="0px"
	 viewBox="0 0 2230 1195.1" enable-background="new 0 0 2230 1195.1" xml:space="preserve">
<rect x="39" y="173.5" fill="none" width="1440" height="769"/>
<rect x="39" y="173.5" fill="#FFFFFF" width="1440" height="769"/>
<path fill="#EEC945" d="M2230,0H0v1195.1h2230V0z"/>
<g>
	<g>
		<defs>
			<rect id="SVGID_1_" x="337" y="224.1" width="1556" height="865"/>
		</defs>
		<clipPath id="SVGID_2_">
			<use xlink:href="#SVGID_1_"  overflow="visible"/>
		</clipPath>
		<g clip-path="url(#SVGID_2_)">
			<g>
				<path fill="#EEC945" d="M1302.1,701.8l-33.9,84.9H955l-3.1-78.4L850.4,601.1C789,722.8,744,852.3,819.4,887.7
					c95.4,44.8,200,69.9,302.6,70.3h-0.1v0c100.2-1.6,202.1-26.4,295.3-70.2c62-29.2,42.6-121.8-0.2-221.4L1302.1,701.8z"/>
				<path fill="#EEC945" d="M1123.9,930.4L1123.9,930.4c-2.4-0.1-4.9,0-7.3,0H1123.9z"/>
				<path fill="#A9A8A9" d="M957,759h313.2l33.9-84.9l114.9-35.4c-40.7-94.6-102.7-195.4-136.5-254.1
					c-63.2-110.2-104.2-119-162.2-122.9c-58,3.9-98.9,12.8-162.2,122.8c-26,45.3-68.9,115.7-105.8,188.9l101.5,107.1L957,759z"/>
			</g>
			<path fill="#D6D7D6" d="M1257.3,726.8c-55.3,7.2-76.1-7.8-79.7-46.1c-0.8-7.7-0.4-26.4-0.4-26.9c-0.1,0-0.1,0.1-0.2,0.1
				c0-3.2,0.1-6.1,0.2-8.5c0-0.4-97.4,1.2-114.6,1.3c0,0.3,0,0.6,0.1,1c0.3,2.2,0.5,5.4,0.5,9.2c0,0,0,0.6,0.1,1.6
				c0.1,8.7-0.3,19.4-0.7,25c-5.1,32.5-44.8,47.9-80.3,43.4c-13.5,38.4-54.4,96.9-1.1,134.8c-42.2,69.3,82,129.8,137.4,68.2
				c55.1,60.9,173.7,1.1,136.5-68.2C1302.1,826.6,1271,775.3,1257.3,726.8z"/>
			<path fill="#E1E2E5" d="M1268.6,740.7c-33.2-25.9-94.7,26.1-91.4-59.7c0.1-0.1,0.2-0.1,0.3-0.2c-0.8-7.7-0.9-25.9-0.3-35.3
				c0-0.4-97.4,1.2-114.6,1.3c0,0.3,0,0.6,0.1,1c1.1,7,0.4,26.4,0,35.2c0,0,0,0-0.1,0c-6.4,80.9-79,29.8-94.5,57.3
				c-2.1,29.9,22.4,98.2,22.4,98.2s13.1-38.2,14.5-42.3c-5.3,86.6,71.5,129.6,114.2,114c49,16.2,111.5-24.9,108-114.1
				c2.4,9.3,13.8,36.7,16.5,42.5C1256.8,814.5,1270.1,759.2,1268.6,740.7z"/>
			<path fill="#C8C8C8" d="M1118.2,715.7c21.1-5.7,42.6-21.1,59.2-34.9c-0.8-7.7-0.9-25.9-0.3-35.3c0-0.4-97.4,1.2-114.6,1.3
				c0,0.3,0,0.6,0.1,1c1.4,8.8-0.1,38-0.2,39.5C1081.3,699.4,1096.7,709.2,1118.2,715.7z"/>
			<path fill="#C9C9C9" d="M1119.1,935.5c-40,35.8-105.6,36.1-138.5-11.4c-12.6-18.2-13.1-43.5-12.9-43.6
				c26.4-50.8,40-95.7,44.1-155.7c1.8-2.4,4.2-2.9,6.7-1.3c-4.1,60.9-7.1,89.4-42,156.9c9,77.8,99.8,82,142.2,44.4
				c42.3,38,127,33.3,140.6-44.4c-36.7-58.4-42-98.8-41.2-154.4c1.6-2.3,5.4-1.6,6.7,1.2c-2.5,61.3,10.2,100.9,45.4,153.1
				c-0.7,6-0.2,21.2-18.1,43.7C1214.1,971.3,1156.8,971.3,1119.1,935.5z"/>
			<path fill="#D6D7D6" d="M1072.3,753.1c-12.7-6.7-26-0.8-39.2,1.3c0.1,2.7,3.8,4,5.6,3.7c13.3-2,22.3-4.6,34.8,0.9
				C1074.2,757.3,1074,754,1072.3,753.1z"/>
			<path fill="#D6D7D6" d="M1164.5,753.1c12.7-6.7,26-0.8,39.2,1.3c-0.1,2.7-3.8,4-5.6,3.7c-13.3-2-22.3-4.6-34.8,0.9
				C1162.4,757.3,1162.7,754,1164.5,753.1z"/>
			<path fill="#D6D7D6" d="M1118.9,867.3c-3.4,0-5.9-2.4-8.2-4.5c-0.4-0.4-1.2,0-1,0.6c2.9,8.7,5.2,17.7,6.6,26.8
				c0.2,1.4,1.3,2,2.6,2.2c1.2,0.1,2.6-0.6,2.7-2.2c0.8-9.1,3.1-17.6,5.6-26.3c0.2-0.6-0.6-1.1-1.1-0.5
				C1124,865.6,1122.4,867.3,1118.9,867.3z"/>
			<path fill="#EEC945" d="M923.3,875.8c43.4,44.2,138.4,88.5,195.3,60c52.9,28.5,155.4-10.9,205.6-53.2
				c66.2,71.9,3.9,206.6-206.6,206.6C962.1,1089.1,849,974.9,923.3,875.8z"/>
			<path fill="#D6D7D6" d="M1235.5,472.1c-0.2-0.1-0.4-0.1-0.7-0.2c-2.2-1.5-4.2-3-6.3-4.5c-5.8-4.3-9.1-7.2-9.1-7.2
				c-30.4-26.2-51.5-60.3-65.9-98.5c-0.1,0.1-0.2,0.1-0.5,0.2c-10.5,12.9-22,25.5-34.4,37.4c-37.8,36.1-84,65.8-134.1,78
				c0.1,77.7,2.4,130.4,77.6,179.3c0.1,0,0.2,0.1,0.3,0.2c18.2,10.9,35.9,19.7,56.1,26.1h0.1c14.2-4.2,27.9-10,40.7-17.4
				c5.2-2.8,10.3-5.6,15.5-8.7c0.1,0,0.2-0.1,0.3-0.2c73.6-47.8,77.4-99.2,77.6-174.1C1246.2,478.7,1240.3,475.3,1235.5,472.1z"/>
			<path fill="#E1E2E5" d="M1110.7,446.8c-2.7,31.9-6.5,82.5-6,111.4c0,3,1.4,7.4,9.1,8.8c9.8,1.8,13.8,1.2,22.8-7
				c0.6,8.8-2,21.4-34,16.7c-7.3-1.1-16.6-10.2-16.7-17.2c-0.1-17.9,0.2-26.8,1.1-40c1.2-17.8-47.8-10.7-47.8-10.7
				s-39.2,0.1-41.3,28.5c-2.2,28.4,17.2,64.4,29.2,77.1c15.5,16.4,50.4,46.3,90.8,57.5c32.4-8.5,65.4-30.5,76.6-45
				c72.4-83.8,23.4-145.9,6-168.1c-11.4-14.6-39.6-41.5-51-66.8c-10.3,11.4-18.1,22.3-31.1,36.8
				C1114.2,433.4,1111.1,440.8,1110.7,446.8z"/>
			<path fill="#EAECED" d="M1134,616c-2.1-2.5-4.2-3.6-13.2-2.8V613c-1.7,0.2-3.6,0.3-5.3,0.4c-1.7,0-3.5,0-5.3,0v0.1
				c-9.1-0.2-11,1.1-12.9,3.7c3.4,2,10.3,3,17.7,3.1c0.2,0,0.5,0,0.8,0c0.2,0,0.5,0,0.8,0C1123.8,619.7,1130.6,618.3,1134,616z"/>
			<path fill="#D6D7D6" d="M1125.3,632.7c-1.2-2.6-2.3-3.8-7.1-3.1v-0.1c-1,0.1-1.9,0.2-2.8,0.3c-1,0-1.8,0-2.8-0.1v0.1
				c-4.9-0.3-5.9,1-6.9,3.6c1.9,2.2,5.6,3.3,9.6,3.6c0.1,0,0.3,0,0.4,0s0.3,0,0.4,0C1119.9,636.3,1123.5,634.9,1125.3,632.7z"/>
			<path fill="#EAECED" d="M1072.6,535.6c10.7-30.8-71.4-16.6-54.7,1.2C1032.2,547.8,1057.8,549.6,1072.6,535.6z"/>
			<path fill="#EAECED" d="M1217.8,532.1c8.9-32.8-75.2-14.5-62,0.8C1171.4,542,1203,546.2,1217.8,532.1z"/>
			<path fill="#EAECED" d="M1123.8,548.1c-2.5-7.2-0.2-31.6-1.5-48.8c-0.3-4.1-6.3-4.2-6.6-0.1c-1.9,23-1.7,45.1-2.5,54.4
				c-0.1,1.7,2.7,5.4,4.4,5.7c5.6,1.1,10.1-1,11-4C1130.6,549,1125.4,552.6,1123.8,548.1z"/>
			<path fill="#EAECED" d="M1119.7,491.3c-1.7,0-3.1-1.4-3.1-3.1s1.4-3.1,3.1-3.1s3.1,1.4,3.1,3.1
				C1122.8,489.9,1121.4,491.3,1119.7,491.3z"/>
			<path fill="#EAECED" d="M1122,480.5h-3.2c-0.7,0-1.1-0.5-1.1-1.1v-0.5c0-0.6,0.5-1.1,1.1-1.1h3.2c0.7,0,1.1,0.5,1.1,1.1v0.5
				C1123.1,480,1122.6,480.5,1122,480.5z"/>
			<path fill="#A9A8A9" d="M1169.7,602.5c-14.7,3-36.8-12.6-46.1-10.5c-3.1,1.8-5.5,4.6-7.7,4.9h-0.1c0,0-0.1,0-0.2,0
				c-2.2,0-4.6-2.7-8-4.3c-9.4-1.4-30.3,15.6-45.2,13.7c25.9,10.7,31.1-2.4,52.9-3.2h1.2C1138.4,602.3,1144.5,614.9,1169.7,602.5z"
				/>
			<path fill="#A9A8A9" d="M1049.6,470.9c8.4-1.6,10.8,22.5,3.1,23.8C1045.1,496,1041.9,472.4,1049.6,470.9z"/>
			<path fill="#A9A8A9" d="M1007.4,465.6c8.4-1.6,10.8,22.5,3.1,23.8C1002.9,490.7,999.8,467.1,1007.4,465.6z"/>
			<path fill="#A9A8A9" d="M1141.7,497.2c5.7-20.1,21.9-37.9,37.1-42.6c27-8.2,51.8-2.3,67.1,2.3c0,0-14.1-10-30.8-13.5
				c-17.4-3.6-26.9-4.3-43.7,1.4C1154.9,450.4,1138,473.6,1141.7,497.2z"/>
			<path fill="#A9A8A9" d="M1184.7,460.5c-9.8-0.1-7.9,29.2,1.1,29.1C1194.6,489.6,1193.5,460.6,1184.7,460.5z"/>
			<path fill="#A9A8A9" d="M1166,469c-8.5-0.6-8.1,23.6-0.3,24.1C1173.4,493.5,1173.8,469.7,1166,469z"/>
			<path fill="#A9A8A9" d="M1207.3,458.9c-8.5-0.6-8.1,23.6-0.3,24.1C1214.7,483.4,1215,459.5,1207.3,458.9z"/>
			<path fill="#A9A8A9" d="M1155.5,410.6c-7.3-3.1-28.8,23.8-17.2,30.2C1152.1,448.2,1162,413.4,1155.5,410.6z"/>
			<path fill="#A9A8A9" d="M1075,497.1c-7.1-19.6-24.5-36.2-40-39.9c-27.5-6.3-51.8,1.4-66.8,6.9c0,0,13.4-11,29.9-15.6
				c17.2-4.7,26.4-6.1,43.7-1.6C1058.6,451.3,1077.1,473.4,1075,497.1z"/>
			<path fill="#A9A8A9" d="M1030.1,464.6c9.7-1.3,11.2,28.2,2.3,29.1C1023.5,494.6,1021.2,465.7,1030.1,464.6z"/>
			<path fill="#A9A8A9" d="M1065.8,412.7c7.3-3.1,28.8,23.8,17.2,30.2C1069.2,450.4,1059.4,415.5,1065.8,412.7z"/>
			<path fill="#EAECED" d="M980.6,393.7c0,0-13.7,48.8-47.7,87.1c38.4-26.6,82.8-71.4,118.7-146.7c8.1-17,13.5-31.3,16.8-43.3
				C1045.2,343,980.6,393.7,980.6,393.7z"/>
			<path fill="#EAECED" d="M845.4,518.8c98.3-15.1,306.7-255.1,207.8-272.5c-15.2-2.7-30.7,1.5-43.2,10.7
				c-21,15.7-38.9,35.9-37.6,34.3c-57.5,67.1-86.8,165.5-192.1,194.2c15.3,34.2,47.4,36.6,64.9,33.3H845.4z"/>
			<path fill="#E1E2E5" d="M845.3,518.7c20.2-28.4,42.7-56.1,56.5-88.3c-25.2,30.3-58.3,78.1-101.3,80.1
				C812.7,518.4,828.6,521.8,845.3,518.7z"/>
			<path fill="#EAECED" d="M845.2,518.8c-1,1.5-2,3-3,4.4C843.2,521.8,844.2,520.3,845.2,518.8z"/>
			<path fill="#EAECED" d="M1143,226c-27.1-3-50.3-2.4-70.3,1.3c-124.3,22.7-132.6,162-232.1,291.5
				C753.1,631.4,608.3,693.3,527.7,747C507,760.8,452,811,452,811.4c0.1,0,0.2,0.1,0.3,0.1c88.7,49.6,267.3,87.1,348.9,51.1
				C906.6,792,981,528.3,982.1,481C1136.3,432.7,1263.6,252.3,1143,226z"/>
			<path fill="#EAECED" d="M480.8,818.3c-0.1,0.2-0.3,0.4-0.4,0.6c1.2,0.3,2.4,0.6,3.6,1C482.8,819.4,481.9,818.9,480.8,818.3z"/>
			<path fill="#EAECED" d="M838.5,520.5C711,688.6,466.6,644.5,337,824.2c10.1,45.1,55.3,23.9,80.9,5.7c9.6-41.3,71.4-67.3,109.9-83
				c211.1-85.3,359.3-98.7,312.8-228.2L838.5,520.5z"/>
			<path fill="#EAECED" d="M923.8,485.3c0,0-11.8,173.1-16.9,230.7c-4.9,54.7-31.4,163.4-68.8,194.8
				c189.2,107.3,142.2-326.4,147.2-429.9c0,0,6.3-57.7-29.2-60.3C922.2,418.2,923.8,485.3,923.8,485.3z"/>
			<path fill="#E1E2E5" d="M801.3,862.7c24.6-16.5,63.8-54,104.9-143.7c2.8-31.9,5.3-102.2,9.1-155.9
				C867.2,645.2,794,812.8,701.5,829.9c-91,16.8-167.2,3.3-249.1-18.4C541,861.1,719.7,898.6,801.3,862.7z"/>
			<path fill="#EAECED" d="M1385.9,518.8c17.6,3.2,49.7,0.9,64.9-33.3c-105.4-28.7-134.6-127.1-192.1-194.2
				c1.3,1.6-16.6-18.6-37.6-34.3c-12.4-9.3-27.9-13.4-43.2-10.7c-98.9,17.3,109.5,257.4,207.8,272.5H1385.9z"/>
			<path fill="#E1E2E5" d="M1385.7,518.7c-20.2-28.4-42.7-56.1-56.5-88.3c25.2,30.3,58.2,78.1,101.3,80.1
				C1418.2,518.4,1402.5,521.8,1385.7,518.7z"/>
			<path fill="#EAECED" d="M1391.5,520.5c127.5,168,371.8,124,501.5,303.8c-10.1,45.1-55.3,23.9-80.9,5.7
				c-9.6-41.3-71.4-67.3-109.9-83c-211.1-85.3-359.3-98.7-312.8-228.2L1391.5,520.5z"/>
			<path fill="#EAECED" d="M1761.8,797.7c-17.9-16.1-46.2-40.6-59.6-49.6c-80.6-53.7-225.4-115.6-312.8-228.3
				c-99.6-129.4-107.8-268.8-232-291.5c-2.3-0.4-4.5-0.8-6.8-1.1c-0.5-0.1-1.2-0.1-1.7-0.2c-42.3,2.5,6,135.6,6.1,135.6
				c17.5,46.4,43.3,88.5,93,120.2c2.9,16.8,33.3,155.9,85.7,257.9c27,52.6,59.2,99,95.1,123.1c81.6,35.9,260.2-1.5,348.9-51.1
				c0.1,0,0.2-0.1,0.3-0.1C1777.9,812.3,1771.3,806.2,1761.8,797.7z"/>
			<path fill="#E1E2E5" d="M1428.7,863.7c-24.6-16.5-63.8-54-104.8-143.7c-2.8-31.9-5.3-102.2-9.1-155.9
				c48.1,82.1,121.2,249.7,213.8,266.8c91,16.8,167.2,3.3,249.1-18.4C1688.9,862.2,1510.2,899.6,1428.7,863.7z"/>
			<path fill="#EAECED" d="M1309.4,485.3c0,0,11.8,173.1,16.9,230.7c4.9,54.7,31.4,163.4,68.8,194.8
				c-189.2,107.2-142.2-326.4-147.2-429.9c0,0-6.2-57.7,29.2-60.3C1311,418.2,1309.4,485.3,1309.4,485.3z"/>
			<path fill="#E1E2E5" d="M1153.7,361.5c2.8-4.2,6.9-9,9.6-13.6c3.2,11.3,2.9,20.9-2.2,31.5
				C1161.1,379.4,1156.7,369.5,1153.7,361.5z"/>
			<path fill="#C9C9C9" d="M921.6,361.4c0.2-9.7,5.3-18.9,12.1-25.9c6.7-7,15.1-12.3,23.3-17.5c0,0-5.1,32.1-8.8,36.9
				c0,0-3,10.6-14.9,12.5C925.4,368.6,921.6,361.4,921.6,361.4z"/>
			<path fill="#D6D7D6" d="M914.1,395.3C914.1,395.3,914.1,395.4,914.1,395.3c-1.7,8.2-1.7,16.6,0.6,24.5
				c2.5,7.9,5.7,11.7,12.8,15.9c0,0,8.8-7.9,10.7-18.7c1.8-10.6,5.1-22.8-5.4-49c-5.7,5.9-14.7,7.3-14.7,7.3L914.1,395.3z"/>
			<path fill="#BBBBBB" d="M901.1,369c-2.9-1.8-5.4-4.4-7-7.4c-3-5.5-3.2-12.2-1.9-18.3c1.4-6.1,7.3-16.5,7.3-16.5
				s10.4,9.1,14.5,12.6c4.1,3.6,7.8,8.1,8.7,13.5c0,0,3.2,8.8-3.2,15.1C911.2,375.7,901.1,369,901.1,369z"/>
			<path fill="#C9C9C9" d="M913.7,370c-8.3-0.1-19.2,3.8-26.2,8.2c-7.1,4.4-13.2,10.4-18.7,16.5c-3.6,4-10,8.4-10,8.4
				c2.4,2.9,6,4.5,9.7,5.4c16,4.2,40.6-5.5,48.5-19.7L913.7,370z"/>
			<path fill="#D6D7D6" d="M930.8,378.3c2.6,1,4.7,3.1,7.3,4.2c3.3,1.4,7.2,1,10.7,0c15-4,26.2-16.4,29-31.6c0,0-8.4,3.3-18.6,3.7
				c-4.1,0.1-8.2,0.5-12.3,1.4c-6.7,1.3-14.8,5.3-17,11.6L930.8,378.3z"/>
			<path fill="#A9A8A9" d="M911,379.4c0.4-8.5,5.6-16.9,13.4-20.2c12.1-4.2,11.5,13.8,4.9,22.9C924.8,387.8,911.6,392.6,911,379.4z"
				/>
		</g>
	</g>
</g>
</svg>
