<?xml version="1.0" standalone="no"?>
<!DOCTYPE svg PUBLIC "-//W3C//DTD SVG 20010904//EN"
 "http://www.w3.org/TR/2001/REC-SVG-20010904/DTD/svg10.dtd">
<svg version="1.0" xmlns="http://www.w3.org/2000/svg"
 width="300.000000pt" height="300.000000pt" viewBox="0 0 300.000000 300.000000"
 preserveAspectRatio="xMidYMid meet">
<metadata>
Created by potrace 1.11, written by Peter Selinger 2001-2013
</metadata>
<g transform="translate(0.000000,300.000000) scale(0.100000,-0.100000)"
fill="#000000" stroke="none">
<path d="M234 2536 c-3 -7 -4 -38 -2 -67 l3 -54 57 0 c31 0 60 -3 64 -7 4 -4
7 -417 8 -918 1 -1021 9 -923 -74 -918 -51 3 -60 -9 -60 -79 l0 -53 78 -1
c101 -1 448 -1 490 0 l33 1 -3 63 -3 62 -62 3 c-56 3 -63 6 -67 25 -3 12 -4
427 -3 922 l2 900 53 1 c28 1 58 2 65 3 10 1 14 20 16 66 l2 65 -296 0 c-241
0 -297 -3 -301 -14z"/>
<path d="M1213 2541 c-7 -5 -10 -78 -5 -119 2 -10 17 -12 56 -9 30 2 59 1 64
-2 4 -3 8 -409 8 -921 l-1 -915 -62 -3 c-35 -2 -64 -6 -64 -10 -6 -36 -5 -103
2 -113 6 -10 70 -13 294 -14 303 0 304 0 299 45 -1 8 -2 32 -3 53 l-1 37 -65
0 c-55 0 -65 3 -66 18 0 9 -2 421 -2 915 -1 590 1 901 8 905 6 4 35 7 65 7 53
0 55 1 60 30 3 17 3 46 0 65 l-5 35 -287 1 c-158 0 -291 -2 -295 -5z"/>
<path d="M2191 2535 c-4 -5 -7 -35 -7 -65 l1 -55 65 -3 66 -3 -1 -917 0 -917
-62 -3 c-35 -2 -63 -6 -64 -10 -7 -46 -7 -72 -4 -97 l5 -31 291 1 c303 0 310
1 303 43 -1 6 -2 29 -3 51 l-1 38 -61 -1 c-33 -2 -63 2 -66 7 -7 11 -8 1825
-2 1832 3 2 32 5 66 6 l61 2 4 43 c2 23 1 53 -2 66 l-6 23 -288 0 c-182 0
-290 -4 -295 -10z"/>
</g>
</svg>
