<svg xmlns="http://www.w3.org/2000/svg" viewBox="0 0 20 19.52">
  <path d="M10,0A10,10,0,0,0,6.84,19.5c.5.08.66-.23.66-.5V17.31C4.73,17.91,4.14,16,4.14,16A2.69,2.69,0,0,0,3,14.5c-.91-.62.07-.6.07-.6a2.1,2.1,0,0,1,1.53,1,2.15,2.15,0,0,0,2.91.83,2.16,2.16,0,0,1,.63-1.34C6,14.17,3.62,13.31,3.62,9.5a3.87,3.87,0,0,1,1-2.71,3.58,3.58,0,0,1,.1-2.64s.84-.27,2.75,1a9.63,9.63,0,0,1,5,0c1.91-1.29,2.75-1,2.75-1a3.58,3.58,0,0,1,.1,2.64,3.87,3.87,0,0,1,1,2.71c0,3.82-2.34,4.66-4.57,4.91a2.39,2.39,0,0,1,.69,1.85V19c0,.27.16.59.67.5A10,10,0,0,0,10,0Z" fill="#fff"/>
</svg>
