<svg xmlns="http://www.w3.org/2000/svg" viewBox="0 0 178.48 80.99">
  <g>
    <path d="M58.08,53.57h0Z" fill="#fff"/>
    <path d="M158.22,48.21a92.79,92.79,0,0,0-24.8-.74c-.93-.12-.29-2.53-.49-3.32,0-6.16,0-12.33.07-18.49,0-6.78-.19-13.59-.07-20.35,1.73-.21,3.48.18,5.2-.23-.44-.79.64-5.25-.51-4.87-6.72-.13-13.47-.07-20.2,0-.61.13-2-.37-2.15.4,0,1.33-.08,2.65-.09,4-.08.81.24.77.94.75,1-.15,2.1-.05,3.15-.11s1,0,1,1c.22,2.12,0,4.22,0,6.34.1,11.93-.18,23.89.06,35.83,0,.51-.36.57-.74.6-5.77.69-11.48,1.77-17.3,2.13-2.14.09-4.27.41-6.41.39-1,0-.26-1.65-.39-2.32-.15-14.62,0-29.31-.1-43.9,5.09-.69,5.39,1.91,5.18-4.12,0-1,0-1-1-1-1.77,0-3.53-.2-5.3,0-4.93,0-9.88,0-14.81,0C78.9.29,77.7-.2,77.7.66c.09,6.33-1.27,4.22,4.62,4.57.47,0,.48,0,.48.51,0,4.48.06,9-.08,13.42,0,5.39,0,10.76-.12,16.15C75.3,42,67.25,49.2,58.08,53.57c0,1.67,0,3.33,0,5,8.54-2.66,15.32-9.22,22.07-14.84a.49.49,0,0,1,.91.36A17.69,17.69,0,0,0,82.7,51c.2,8.25.1,16.46.1,24.72-5.56.55-5.18-1.73-5.08,4.62-.38,1.16,6.61.36,7.76.59,4.78-.13,9.55,0,14.34,0,1.42.34.63-3.38.71-4.29.56-1.48-3.15-.52-4-.77-.43,0-1.08-.07-1.06-.66-.2-6-.13-12,0-18,.14-.69,1.85-.21,2.48-.38,4,0,7.86-.77,11.78-1.23q5.09-.78,10.2-1.38c.34,0,.45,0,.45.4.15,2.79,0,5.57.1,8.36-.12,4.11-.11,8.25-.08,12.37,0,.26,0,.42-.36.42-.86.26-4.93-.43-4.7.55.19.79-.52,4.94.56,4.58,4.28,0,8.55,0,12.83,0,3-.09,6.08.08,9.11,0,.9-.44.15-3.78.31-4.89-1.22-.61-4.79.73-5.13-.84-.19-7.31,0-14.63,0-22-4,.38-8,.58-12,.91-.5,0-.56,0-.57-.51,0-1.52.1-3,.12-4.56,0-.41.43-.38.71-.4,3.75-.3,7.48-.85,11.24-1.09,1.27-.24.25,4.59.52,5.62a82.21,82.21,0,0,1,17.39-.37c3.48.27,6.89,1,10.33,1.57,2.18.65,5-1.06,3.92-3.61S160.46,48.6,158.22,48.21ZM94.9,56.93A13.18,13.18,0,0,1,83.52,52a2.8,2.8,0,0,1-.7-1.93c0-4.65,0-9.33-.21-14,.07-1.43,3.13-.12,3.45.81,1,1.86-.2,4.17,0,6.2-.13,5.11,4.45,8.26,9.19,8.3C95.15,52.3,96,57.19,94.9,56.93Z" fill="#fff"/>
    <path d="M46.49,57.87c-.91-.21-1-.32-1-1.25a17.49,17.49,0,0,1,0-4.28c3.89,1.78,8.37,1.86,12.51,1.23.07-16.12,0-32.3,0-48.39l.36,0h3.67c1.44,0,1.08-.42,1.19-4.63,0-.35,0-.43-.46-.44-3.12-.17-6.25,0-9.38-.07C49.22,0,45,.06,40.8.12,39.92.06,40.49,4,40.32,4.8c.08.52.91.49,1.86.35h3.2c.08.31-.09.81,0,1.09,0,15.3,0,30.63,0,45.95C37.75,48,29.28,44.83,20.76,48.42c5.91-7.37,13-13.81,19.37-20.86,1.39-1.25.2-3.94-1.78-3.38-2.65,1.17-4.52,3.66-6.64,5.59-3.47,3.6-7,7.12-10.44,10.76-7,6.94-13.63,14.17-20.77,21-1,1.42-.53,3.82,1.58,3.68C4.37,65,6,62.76,7.76,61.46c6.37-4.66,13.36-10.06,21.62-9.94,5.59,0,10.41,3.45,15.38,5.59.9.36.75,1.45.74,2.25-.11,5.44.07,10.84-.07,16.29-5.52.64-5.11-1.84-5,4.46-.18,1.08.93.66,1.6.68,6.84.21,13.68,0,20.52.09,1.42.27.58-3.48.68-4.4.31-1.36-3.44-.36-4.41-.71-1.14-.06-.66-1.68-.75-2.45,0-4.91-.19-9.83,0-14.74C54.25,59.49,50.26,58.75,46.49,57.87Z" fill="#fff"/>
    <path d="M58.06,58.58h0v0h0Z" fill="#fff"/>
    <path d="M178.47,55c-.38-6.22-9.46-3.32-6.64,2C173.3,59.88,178.74,58.6,178.47,55Z" fill="#fff"/>
  </g>
</svg>
