<svg xmlns="http://www.w3.org/2000/svg" viewBox="0 0 9.42 9.42">
  <path d="M2.73,0h4A2.73,2.73,0,0,1,9.42,2.73v4A2.73,2.73,0,0,1,6.69,9.42h-4A2.73,2.73,0,0,1,0,6.69v-4A2.73,2.73,0,0,1,2.73,0M2.64.94a1.7,1.7,0,0,0-1.7,1.7h0V6.78a1.7,1.7,0,0,0,1.7,1.7H6.78a1.7,1.7,0,0,0,1.7-1.7h0V2.64A1.7,1.7,0,0,0,6.78.94H2.64m4.54.71a.58.58,0,0,1,.59.59.59.59,0,1,1-1.17,0,.58.58,0,0,1,.58-.59m-2.47.71A2.36,2.36,0,1,1,2.36,4.71,2.36,2.36,0,0,1,4.71,2.36m0,.94A1.41,1.41,0,1,0,6.12,4.71,1.41,1.41,0,0,0,4.71,3.3Z" fill="#fff"/>
</svg>
