<?xml version="1.0" encoding="utf-8"?>
<!-- Generator: Adobe Illustrator 24.3.0, SVG Export Plug-In . SVG Version: 6.00 Build 0)  -->
<svg version="1.1" id="Layer_2" xmlns="http://www.w3.org/2000/svg" xmlns:xlink="http://www.w3.org/1999/xlink" x="0px" y="0px"
	 viewBox="0 0 101 101" enable-background="new 0 0 101 101" xml:space="preserve">
<g id="Layer_1_1_">
	<g>
		<g>
			<g>
				<path fill="#E0E0D1" d="M59.13,31.04V15.11H29.05c-3.01,0-5.31,2.3-5.31,5.31v60.16c0,3.01,2.3,5.31,5.31,5.31h46
					c3.01,0,5.31-2.3,5.31-5.31V36.34H64.44C61.43,36.34,59.13,34.04,59.13,31.04z"/>
			</g>
			<g opacity="0.2">
				<polygon fill="#231F20" points="60.9,35.11 80.36,52.27 80.36,36.34 				"/>
			</g>
			<g>
				<path fill="#E0E0D1" d="M59.13,15.11v15.92c0,3.01,2.3,5.31,5.31,5.31h15.92L59.13,15.11z"/>
			</g>
			<g opacity="0.52">
				<path fill="#FFFFFF" d="M59.13,15.11v15.92c0,3.01,2.3,5.31,5.31,5.31h15.92L59.13,15.11z"/>
			</g>
		</g>
		<g opacity="0.2">
			<rect x="34.36" y="32.81" fill="#231F20" width="16.99" height="3.54"/>
		</g>
		<g opacity="0.2">
			<rect x="34.36" y="50.5" fill="#231F20" width="35.39" height="3.54"/>
		</g>
		<g opacity="0.2">
			<rect x="34.36" y="41.65" fill="#231F20" width="35.39" height="3.54"/>
		</g>
		<g opacity="0.2">
			<rect x="34.36" y="59.35" fill="#231F20" width="35.39" height="3.54"/>
		</g>
		<g opacity="0.2">
			<rect x="34.36" y="68.19" fill="#231F20" width="35.39" height="3.54"/>
		</g>
	</g>
</g>
<g id="Layer_2_1_">
</g>
</svg>
