<?xml version="1.0" encoding="utf-8"?>
<!-- Generator: Adobe Illustrator 24.3.0, SVG Export Plug-In . SVG Version: 6.00 Build 0)  -->
<svg version="1.1" id="Layer_1" xmlns="http://www.w3.org/2000/svg" xmlns:xlink="http://www.w3.org/1999/xlink" x="0px" y="0px"
	 viewBox="0 0 101 101" enable-background="new 0 0 101 101" xml:space="preserve">
<path fill="#50A3C9" d="M81.65,82.94h-61.8c-6.2,0-8.6-2.4-8.6-8.6l-0.8-38.3c0-5.8,1.8-8.3,6.4-8.9l63.8-0.1c5.3,0,9,3.4,9.9,9.2
	l-0.2,37.7C90.25,80.44,87.85,82.94,81.65,82.94z"/>
<path fill="#2DC2DF" d="M81.7,85.4H19.9c-6.2,0-8.6-2.4-8.6-8.6l-0.8-38.3c0-5.8,1.8-8.3,6.4-8.9l4.3-7.7c0.4-1.2,1.6-2,2.9-2h25.4
	c1.3,0,2.4,0.8,2.8,2l4.4,7.6h24c5.3,0,9,3.4,9.9,9.2l-0.2,37.7C90.3,82.9,87.9,85.4,81.7,85.4z"/>
</svg>
