<?xml version="1.0" encoding="utf-8"?>
<!-- Generator: Adobe Illustrator 24.3.0, SVG Export Plug-In . SVG Version: 6.00 Build 0)  -->
<svg version="1.1" id="Layer_1" xmlns="http://www.w3.org/2000/svg" xmlns:xlink="http://www.w3.org/1999/xlink" x="0px" y="0px"
	 viewBox="0 0 560 560" style="enable-background:new 0 0 560 560;" xml:space="preserve">
<style type="text/css">
	.st0{fill:#FFFFFF;}
	.st1{fill:#61739B;}
	.st2{fill:#FFB64C;}
	.st3{clip-path:url(#SVGID_2_);fill:#9DDE04;}
</style>
<g>
	<path class="st0" d="M420.4,405.6l-252.6-28.1c-16.6-1.8-28.6-16.8-26.7-33.4l21.4-192.6c1.8-16.6,16.8-28.6,33.4-26.7l252.6,28.1
		c16.6,1.8,28.6,16.8,26.7,33.4l-21.4,192.6C451.9,395.5,437,407.5,420.4,405.6z"/>
	<path class="st1" d="M414.2,381.7L179,355.5c-9.5-1.1-16.4-9.6-15.3-19.2L182.8,164c1.1-9.5,9.6-16.4,19.2-15.3l235.2,26.2
		c9.5,1.1,16.4,9.6,15.3,19.2l-19.2,172.3C432.4,375.9,423.8,382.7,414.2,381.7z"/>
</g>
<g>
	<path class="st0" d="M392.9,445.3H138.8c-16.7,0-30.3-13.6-30.3-30.3V221.3c0-16.7,13.6-30.3,30.3-30.3h254.1
		c16.7,0,30.3,13.6,30.3,30.3V415C423.2,431.7,409.7,445.3,392.9,445.3z"/>
	<path class="st1" d="M384.2,422.2H147.5c-9.6,0-17.4-7.8-17.4-17.4V231.5c0-9.6,7.8-17.4,17.4-17.4h236.7c9.6,0,17.4,7.8,17.4,17.4
		v173.4C401.6,414.4,393.8,422.2,384.2,422.2z"/>
	<circle class="st2" cx="291.8" cy="272.8" r="37.6"/>
	<g>
		<defs>
			<path id="SVGID_1_" d="M384.2,422.2H147.5c-9.6,0-17.4-7.8-17.4-17.4V231.5c0-9.6,7.8-17.4,17.4-17.4h236.7
				c9.6,0,17.4,7.8,17.4,17.4v173.4C401.6,414.4,393.8,422.2,384.2,422.2z"/>
		</defs>
		<clipPath id="SVGID_2_">
			<use xlink:href="#SVGID_1_"  style="overflow:visible;"/>
		</clipPath>
		<path class="st3" d="M113.4,362l71.1-51.8c13.2-9.6,31.2-9.2,44,1l48.6,39.1c11.7,9.4,27.9,10.6,40.9,3.1l85.1-49.4v126.5H113.4
			V362z"/>
	</g>
</g>
</svg>
