<?xml version="1.0" encoding="utf-8"?>
<!-- Generator: Adobe Illustrator 24.3.0, SVG Export Plug-In . SVG Version: 6.00 Build 0)  -->
<svg version="1.1" id="Layer_1" xmlns="http://www.w3.org/2000/svg" xmlns:xlink="http://www.w3.org/1999/xlink" x="0px" y="0px"
	 viewBox="0 0 560 560" enable-background="new 0 0 560 560" xml:space="preserve">
<g>
	<path fill="#FFFFFF" d="M448.5,152.9l-252.6-28.1c-16.6-1.9-31.6,10.1-33.4,26.7l-4.4,39.5h-19.3c-16.7,0-30.3,13.6-30.3,30.3V415
		c0,16.7,13.6,30.3,30.3,30.3h254.1c16.8,0,30.3-13.6,30.3-30.3v-9.2c15.4,0.3,28.8-11.2,30.6-26.9l21.4-192.6
		C477.1,169.7,465.1,154.7,448.5,152.9z M401.6,404.9c0,9.5-7.8,17.3-17.4,17.3H147.5c-9.6,0-17.4-7.8-17.4-17.4v-55V231.5
		c0-9.6,7.8-17.4,17.4-17.4h8h21.7h207c9.6,0,17.4,7.8,17.4,17.4v73.4v75.4v23.2V404.9z M452.5,194.1l-19.2,172.3
		c-0.6,6.3-4.6,11.5-10.1,13.9v-159c0-16.7-13.6-30.3-30.3-30.3H179.8l3-27c1.1-9.5,9.6-16.4,19.2-15.3l235.2,26.2
		C446.7,176,453.6,184.5,452.5,194.1z"/>
	<g>
		<path fill="#61739B" d="M437.2,174.9L202,148.7c-9.6-1.1-18.1,5.8-19.2,15.3l-3,27h213.1c16.7,0,30.3,13.6,30.3,30.3v159
			c5.5-2.4,9.5-7.5,10.1-13.9l19.2-172.3C453.6,184.5,446.7,176,437.2,174.9z"/>
		<path fill="#61739B" d="M384.2,214.1h-207h-21.7h-8c-9.6,0-17.4,7.8-17.4,17.4v118.3l11.3-8.2l23.6-17.2l19.5-14.2
			c13.2-9.6,31.2-9.2,44,1l48.6,39.1c11.7,9.4,27.9,10.6,40.9,3.1l83.6-48.5v-73.4C401.6,221.9,393.8,214.1,384.2,214.1z
			 M291.8,310.4c-20.8,0-37.6-16.8-37.6-37.6c0-20.8,16.8-37.6,37.6-37.6c20.8,0,37.6,16.8,37.6,37.6
			C329.4,293.6,312.6,310.4,291.8,310.4z"/>
	</g>
	
		<ellipse transform="matrix(0.7071 -0.7071 0.7071 0.7071 -107.4325 286.235)" fill="#FFB64C" cx="291.8" cy="272.8" rx="37.6" ry="37.6"/>
	<path fill="#9DDE04" d="M318,353.4c-13,7.5-29.2,6.3-40.9-3.1l-48.6-39.1c-12.8-10.2-30.8-10.6-44-1L165,324.4l-23.6,17.2
		l-11.3,8.2v55c0,9.6,7.8,17.4,17.4,17.4h236.7c9.6,0,17.4-7.8,17.4-17.3v-1.4v-23.2v-75.4L318,353.4z"/>
</g>
</svg>
