<?xml version="1.0" encoding="utf-8"?>
<!-- Generator: Adobe Illustrator 24.3.0, SVG Export Plug-In . SVG Version: 6.00 Build 0)  -->
<svg version="1.1" id="Layer_1" xmlns="http://www.w3.org/2000/svg" xmlns:xlink="http://www.w3.org/1999/xlink" x="0px" y="0px"
	 viewBox="0 0 451.1 204.6" style="enable-background:new 0 0 451.1 204.6;" xml:space="preserve">
<style type="text/css">
	.st0{fill:#FFFFFF;}
</style>
<g>
	<path class="st0" d="M146.8,135.5C146.8,135.5,146.8,135.4,146.8,135.5C146.8,135.4,146.8,135.4,146.8,135.5L146.8,135.5
		L146.8,135.5z"/>
	<path class="st0" d="M400,121.9c-20.6-3.7-41.8-3.7-62.7-1.9c-2.4-0.3-0.7-6.4-1.2-8.4c0-15.6,0-31.2,0.2-46.7
		c0.1-17.1-0.5-34.4-0.2-51.4c4.4-0.6,8.8,0.4,13.2-0.6c-1.1-2,1.6-13.3-1.3-12.3c-17-0.3-34-0.2-51.1,0c-1.5,0.3-5.1-0.9-5.5,1
		c-0.1,3.3-0.2,6.7-0.2,10c-0.2,2.1,0.6,2,2.4,1.9c2.6-0.4,5.3-0.1,8-0.3c2.4-0.1,2.4,0,2.5,2.4c0.6,5.3-0.1,10.7,0,16
		c0.3,30.2-0.4,60.4,0.2,90.6c0.1,1.3-0.9,1.4-1.9,1.5c-14.6,1.7-29,4.5-43.7,5.4c-5.4,0.2-10.8,1-16.2,1c-2.5,0.1-0.7-4.2-1-5.9
		c-0.4-37,0-74.1-0.3-111c12.9-1.7,13.6,4.8,13.1-10.4c0-2.5,0.1-2.7-2.5-2.6c-4.5,0.1-8.9-0.5-13.4,0c-12.5-0.1-25,0.1-37.4,0.1
		c-1.4,0.4-4.4-0.9-4.4,1.3c0.2,16-3.2,10.7,11.7,11.5c1.2,0.1,1.2,0.1,1.2,1.3c0,11.3,0.2,22.6-0.2,33.9
		c-0.1,13.6,0.1,27.2-0.3,40.8c-18.5,16.9-38.8,35.1-62,46.2c0,4.2-0.1,8.4,0,12.6c21.6-6.7,38.7-23.3,55.8-37.5
		c0.9-1.2,2.5-0.6,2.3,0.9c0.1,6.1,1.6,12,4.1,17.5c0.5,20.8,0.2,41.6,0.3,62.5c-14.1,1.4-13.1-4.4-12.9,11.7
		c-0.9,2.9,16.7,0.9,19.6,1.5c12.1-0.3,24.2,0.1,36.2,0c3.6,0.9,1.6-8.5,1.8-10.8c1.4-3.7-8-1.3-10.2-2c-1.1-0.1-2.7-0.2-2.7-1.6
		c-0.5-15.1-0.3-30.3,0-45.4c0.4-1.8,4.7-0.5,6.3-1c10,0.1,19.9-2,29.8-3.1c8.6-1.3,17.2-2.5,25.8-3.5c0.9-0.1,1.1,0.1,1.1,1
		c0.4,7-0.1,14.1,0.3,21.1c-0.3,10.4-0.3,20.8-0.2,31.3c0,0.6-0.1,1-0.9,1c-2.1,0.7-12.4-1.1-11.9,1.4c0.5,2-1.3,12.5,1.4,11.6
		c10.8,0,21.6,0.1,32.4,0.1c7.7-0.2,15.4,0.2,23-0.1c2.3-1.1,0.4-9.6,0.8-12.4c-3.1-1.5-12.1,1.9-13-2.1c-0.5-18.5,0-37-0.1-55.5
		c-10.1,1-20.3,1.5-30.4,2.3c-1.3,0.1-1.4-0.1-1.4-1.3c0-3.8,0.3-7.7,0.3-11.5c-0.1-1,1.1-1,1.8-1c9.5-0.8,18.9-2.1,28.4-2.7
		c3.2-0.6,0.6,11.6,1.3,14.2c14.7-2,29.2-2.1,43.9-0.9c8.8,0.7,17.4,2.5,26.1,4c5.5,1.7,12.5-2.7,9.9-9.1
		C413.1,122.3,405.6,122.9,400,121.9z M239.9,144c-11,0.8-22-3.6-28.8-12.4c-1.1-1.4-1.8-2.9-1.8-4.9c0-11.8,0.1-23.6-0.5-35.3
		c0.2-3.6,7.9-0.3,8.7,2c2.6,4.7-0.5,10.6,0.1,15.7c-0.3,12.9,11.2,20.9,23.2,21C240.5,132.2,242.6,144.6,239.9,144z"/>
	<path class="st0" d="M117.5,146.3c-2.3-0.5-2.5-0.8-2.5-3.2c-0.1-3.1-0.7-7.9,0.1-10.8c9.8,4.5,21.2,4.7,31.6,3.1
		c0.2-40.7,0-81.6,0-122.3c0.3,0,0.6-0.1,0.9-0.1h9.3c3.7,0.1,2.7-1.1,3-11.7c0.1-0.9-0.1-1.1-1.2-1.1c-7.9-0.4-15.8,0-23.7-0.2
		c-10.6,0-21.3,0.1-31.9,0.3c-2.2-0.2-0.8,9.7-1.2,11.8c0.2,1.3,2.3,1.2,4.7,0.9h8.1c0.2,0.8-0.2,2,0.1,2.7
		c0,38.7,0.1,77.4-0.1,116.2c-19.3-10.5-40.7-18.6-62.2-9.5c14.9-18.6,32.9-34.9,49-52.7c3.5-3.2,0.5-10-4.5-8.5
		c-6.7,3-11.4,9.3-16.8,14.1c-8.8,9.1-17.7,18-26.4,27.2c-17.8,17.6-34.4,35.8-52.5,53c-2.5,3.6-1.3,9.7,4,9.3
		c5.8-0.5,9.9-6.1,14.3-9.4c16.1-11.8,33.8-25.4,54.7-25.1c14.1-0.1,26.3,8.7,38.9,14.1c2.3,0.9,1.9,3.7,1.9,5.7
		c-0.3,13.8,0.2,27.4-0.2,41.2c-14,1.6-12.9-4.7-12.7,11.3c-0.5,2.7,2.4,1.7,4,1.7c17.3,0.5,34.6,0,51.9,0.2
		c3.6,0.7,1.4-8.8,1.7-11.1c0.8-3.4-8.7-0.9-11.2-1.8c-2.9-0.1-1.7-4.2-1.9-6.2c0.1-12.4-0.5-24.8,0.1-37.2
		C137.2,150.4,127.1,148.5,117.5,146.3z"/>
	<path class="st0" d="M146.8,148.1L146.8,148.1L146.8,148.1L146.8,148.1L146.8,148.1z"/>
	<path class="st0" d="M451.1,139c-1-15.7-23.9-8.4-16.8,5.1C438.1,151.4,451.8,148.2,451.1,139z"/>
</g>
</svg>
