<?xml version="1.0" encoding="utf-8"?>
<!-- Generator: Adobe Illustrator 24.3.0, SVG Export Plug-In . SVG Version: 6.00 Build 0)  -->
<svg version="1.1" id="Layer_1" xmlns="http://www.w3.org/2000/svg" xmlns:xlink="http://www.w3.org/1999/xlink" x="0px" y="0px"
	 viewBox="0 0 560 560" enable-background="new 0 0 560 560" xml:space="preserve">
<rect x="208.85" y="90.84" fill="#C7B299" width="269.53" height="318.54"/>
<rect x="148.36" y="174.42" transform="matrix(0.9989 -0.0471 0.0471 0.9989 -11.4962 7.9348)" fill="#8C6239" width="28.84" height="147.43"/>
<rect x="236.7" y="123.76" fill="#FFFFFF" width="213.82" height="252.7"/>
<rect x="257.14" y="147.92" fill="#FFFFFF" width="172.93" height="204.38"/>
<polygon fill="#C6C6C6" points="167.14,117.36 146.15,118.35 144.9,175.18 173.72,173.82 "/>
<path fill="#C7B299" d="M182.25,92.47c-0.7-14.77-28.12-28.06-29.29-52.88c-8.46,9.29-24.89,40.63-24.19,55.4s13.23,26.18,28,25.48
	C171.53,119.77,182.94,107.24,182.25,92.47z"/>
<rect x="106.65" y="257.73" transform="matrix(0.9843 -0.1765 0.1765 0.9843 -61.0617 27.8682)" fill="#8C6239" width="38.89" height="198.77"/>
<polygon fill="#C6C6C6" points="109,181.53 81.11,186.53 89.41,262.72 127.69,255.86 "/>
<g id="JslJR7_1_">
	<g>
		<path fill="#FEF000" d="M257.19,251.14c0-27.98,0.02-75.24-0.05-103.22c0-1.79,0.27-2.25,2.18-2.24
			c56.15,0.07,112.3,0.07,168.45-0.01c2.05,0,2.3,0.55,2.3,2.39c-0.05,56.05-0.05,146.99,0,203.05c0,1.87-0.28,2.39-2.31,2.38
			c-56.15-0.07-112.3-0.07-168.45,0c-1.93,0-2.17-0.49-2.17-2.25C257.21,323.08,257.19,279.3,257.19,251.14z M292.38,247.19
			l0.02-0.02c-0.36,0.02-0.55,0.2-0.59,0.56l0.04-0.03c-2.35,0.56-3.53,2.27-4.31,4.37l0.02-0.04c-0.35,0.04-0.53,0.24-0.55,0.59
			l0.03-0.03c-0.35,0.04-0.54,0.22-0.56,0.57c0,0,0.02-0.02,0.02-0.02c-0.2,0.18-0.39,0.36-0.59,0.53l0.02-0.01
			c-0.36,0.03-0.54,0.22-0.54,0.57l0.02-0.01c-2.29,1.32-5.07,2.18-5.25,5.51l-0.05,0.03c-0.4-0.05-0.57,0.13-0.51,0.52l-0.03-0.02
			c-0.45,0-0.65,0.26-0.67,0.69l-0.02,0.04c-0.87,0.09-1.71,0.22-1.37,1.45l-0.06,0.07c-0.39-0.04-0.53,0.12-0.42,0.5l-0.11,0.1
			c-0.9-0.28-1.25,0.04-1.05,0.96l-0.08,0.05c-1.27-0.27-1.54,0.53-1.64,1.52l0,0.03c-2.24-0.28-2.83,1.45-3.59,2.96
			c-0.7,1.39-0.12,2.45,0.97,3.27c1.17,0.88,2.14,0.5,2.88-0.67l-0.04,0.03c0.54,0.11,0.94-0.02,1.08-0.62l-0.04,0
			c2.01,0.4,2.38-1.11,2.89-2.46l0,0c1.2,0.08,1.98-0.39,2.15-1.65l-0.02,0.02c0.52,0.05,0.91-0.1,1.03-0.67l-0.03,0.01
			c0.91,0.16,1.6,0.01,1.6-1.12l-0.01,0.02c1.67-0.04,3.16-0.39,3.87-2.15c0.05-0.11,0.14-0.16,0.26-0.13
			c1.28,0.41,2.47,0.02,3.69-0.34c1.7-0.5,3.39-1.32,5.25-0.69c3.05,1.04,6.1,2.04,9.11,3.19c0.69,0.26,1.8,0.58,1.86,1.41
			c0.28,3.77,0.86,7.54,0.07,11.32c-0.21,1.02-0.28,1.84-1.7,1.61c-0.7-0.12-3.67,4.42-3.32,4.49c1.26,0.23,1.52,1.71,3.11,1.78
			c4.85,0.23,9.71-0.31,14.54,0.34c1.37,0.19,2.65-0.53,3.8-1.21c1.49-0.88,0.01-2.62,0.9-3.73c-1.27-0.33-1.81-2.06-3.47-1.74
			c-1.1,0.21-1.71-0.42-1.66-1.54c0.17-3.84-0.55-7.73,0.52-11.53c0.06-0.11,0.16-0.16,0.28-0.13c2.03,1.8,3.12-0.87,4.74-1
			c-0.17-0.39-0.35-0.77-0.52-1.16l0.17-0.06c0.8,0.16,1.09-0.32,1.24-0.97c2.12-1.55,4.24-3.11,6.35-4.66
			c0.56,0.06,1.02-0.04,1.17-0.68l-0.03,0.01c0.58,0,0.79-0.33,0.76-0.87l0,0c0.5,0.03,0.85-0.17,0.97-0.68l-0.02,0.01
			c0.52,0.05,0.93-0.06,0.96-0.69c0,0,0.09-0.09,0.09-0.09c0.36,0.62,0.66,1.23,0.61,2c-0.05,0.72-1.03,2.03,0.61,1.96
			c1.18-0.05,2.29-0.58,1.97-2.44c-0.42-2.39-0.09-4.84,0.35-7.45c1.27,0.72,1.3,1.55,1.02,2.6c-0.29,1.08-0.78,2.27,0.55,3.1
			c0.06,0.34,0.12,0.68,0.18,1.02c-0.42,2.85,1.17,4.48,4.95,5.05c0.89,0.13,1.88,0.05,1.94,1.34c0.04,0.99-0.2,1.79-1.33,2.01
			c-0.44,0.09-0.87,0.2-1.31,0.3c-2-0.03-3.53-1.09-5.03-2.26c-0.63-0.49-1.09-1.6-2.21-0.8c-1,0.8-0.64,1.91-0.69,2.94
			c-0.21,4.47,0.42,8.94-0.14,13.41c-0.18,1.43-0.54,1.99-1.97,1.56c-1.72-0.52-2.17,0.6-2.06,1.88c0.12,1.51-0.99,3.98,1.65,4.1
			c5.65,0.25,11.32,0.22,16.96,0.01c2.64-0.1,1.68-2.51,1.76-4.04c0.08-1.48-0.57-2.48-2.3-2.02c-1.87,0.5-1.93-0.79-1.93-1.99
			c0-3.37,0.1-6.73,0.1-10.1c0-0.84,0.39-1.11,1.1-1.2c4.96-0.66,9.93-1.28,14.88-2.01c1.91-0.28,2.36,0.61,2.33,2.25
			c-0.05,3.32-0.04,6.64-0.03,9.97c0,1.58,0.11,3.16-2.28,2.98c-0.66-0.05-0.81,0.58-0.56,1.19c-0.72,1.42-1,2.82,0.27,4.12
			c-0.08,0.55,0.2,0.9,0.71,0.9c5.26,0.04,10.51,0.05,15.77,0.05c0.84,0,1.69-0.06,1.49-1.29c-0.03-0.11,0.01-0.18,0.12-0.21
			c2.27,0.21,0.49-2.38,1.9-2.76c-0.59-0.63-1.3-0.34-1.98-0.25c-0.24-0.21-0.48-0.43-0.72-0.64c0.32-0.91-0.27-1.26-0.94-1.13
			c-1.88,0.35-1.95-0.61-1.97-2.1c-0.04-4.05,0.28-8.08,0.55-12.11c0.09-1.45,0.66-1.98,2.09-2.2c5.67-0.85,11.23-0.34,16.78,0.92
			c1.49,0.34,3.03,0.28,4.55,0c2.55-0.47,1.82-2.84,2.32-4.34c0.27-0.8-1.32-1.6-2.36-1.73c-3-0.38-5.91-1.12-8.97-1.36
			c-4.31-0.33-8.58-0.37-12.84-0.05c-2.03,0.15-2.4-0.87-1.98-2.08c0.68-1.98-0.1-3.79-0.09-5.67c0.03-6.75-0.01-13.49,0.02-20.24
			c0-1.06,0.29-2.12,0.34-3.19c0.03-0.64,0.13-0.91,0.87-0.97c2.65-0.21,4-2.86,2.77-5.32c-0.24-0.48-0.47-0.93-1.16-0.93
			c-5.35-0.01-10.71-0.15-16.06-0.01c-1.22,0.03-2.8,0.66-3.53,1.57c-0.76,0.95,1.73,4.6,3.13,4.64c2,0.05,1.78,1.34,1.78,2.59
			c0,9.09-0.02,18.17,0.02,27.26c0.01,2.66-1.05,4.46-3.79,4.54c-3.96,0.12-7.85,0.76-11.77,1.25c-2.21,0.28-2.95-0.54-2.93-2.82
			c0.11-9.53,0.03-19.07,0.07-28.61c0-1.15,0.27-2.31,0.44-3.46c0.1-0.69,0.38-1.27,1.22-1.03c2.12,0.61,2.49-0.71,2.61-2.32
			c0.13-1.72-0.03-3-2.25-3.55c-2.02-0.5-3.91,0.09-5.86-0.04c-3.53-0.23-7.12-0.35-10.67,0.22c-1.75,0.28-1.72,1.58-1.68,2.87
			c0.04,1.22-0.24,2.94,1.49,2.98c2.74,0.07,2.72,2.09,2.74,3.69c0.06,6.84-0.1,13.68-0.18,20.52l-0.05,0
			c-3.15,0.39-5.09,2.22-6.06,5.17l0.01-0.03c-0.36-0.02-0.57,0.14-0.64,0.5l0.02-0.02c-0.35,0.04-0.53,0.24-0.53,0.59l0.02-0.02
			c-1.48,0.16-3.11,0.11-3.15,2.26l-0.01-0.02c-0.67-0.01-1.09,0.29-1.22,0.96l0,0c-2,0.55-4.44,0.43-4.96,3.24l-0.18,0.15
			c-1.09-0.22-1.37-0.96-1.37-1.98c0.01-10.98,0.01-21.96,0-32.93c0-1.27,0.31-2.23,1.8-1.99c3.56,0.56,1.17-4,3.73-4.26
			c-0.4-0.56-0.79-1.11-1.19-1.67c0.1-0.19,0.74,0,0.38-0.53c-0.12,0.18-0.24,0.36-0.36,0.54c-1.26,0.32-2.38-0.42-3.68-0.37
			c-4.54,0.17-9.09,0.05-13.63-0.09c-2.46-0.08-3.22,0.5-3.43,3.18c-0.16,2,0.95,3.73,2.63,3.47c2.12-0.32,1.9,0.82,1.92,2.14
			c0.09,5.39-0.26,10.76-0.36,16.14c-0.1,5.02,0.22,10.04,0.37,15.07c0.05,1.55-0.23,2.12-1.97,1.29
			c-3.95-1.91-7.99-3.68-12.59-2.96c-0.86,0.13-1.56-0.32-2.19-0.86c0.02-0.12,0.09-0.18,0.21-0.2c0.58,0.16,0.85-0.07,0.83-0.66
			l0,0c2.89-0.67,3.8-3.59,5.86-5.22c1.06-0.83,2.44-1.69,2.23-3.45l-0.02,0.02c1.9,0.1,2.83-0.78,2.71-2.71l0,0
			c2.5-0.39,2.46-2.39,2.31-4.11c-0.15-1.66-1.89-1.53-2.79-1.13c-2.39,1.08-4.75,2.38-5.38,5.33l0.02-0.02
			c-0.35,0.01-0.56,0.19-0.59,0.55l0.02-0.02c-0.94-0.04-1.72,0.06-1.25,1.33l-0.11,0.1c-0.64-0.16-0.86,0.14-0.82,0.73l0-0.01
			c-0.75-0.03-1.13,0.32-1.09,1.08l0.01-0.02C292.53,246.63,292.38,246.85,292.38,247.19z M416.14,263.11
			c-0.06-1.83-1.11-2.81-2.85-2.86c-1.97-0.06-2.93,1.31-3.01,3.04c-0.08,1.85,1.01,3.06,2.96,3
			C415.19,266.23,416.03,264.97,416.14,263.11z"/>
		<path fill="#FE009B" d="M320.1,265.74c-0.13-0.03-0.22,0.02-0.28,0.13c-1.64-0.05-1.57,1.14-1.57,2.23c0,3.14,0.11,6.29,0.01,9.43
			c-0.06,1.91,0.48,2.93,2.56,2.72c1.31-0.13,1.7,0.59,1.68,1.81c-0.02,1.22-0.2,2.18-1.69,2.17c-4.94-0.02-9.88-0.04-14.82-0.05
			c-1.29,0-1.96-0.47-1.9-1.93c0.05-1.39,0.33-2.34,1.95-2.13c1.78,0.23,2.11-0.75,2.09-2.25c-0.05-3.32,0.11-6.65-0.04-9.97
			c-0.1-2.26,0.72-2.7,2.68-1.98c1.98,0.73,4.06,0.66,6.13,0.5c1.74-0.13,1.48-1.43,1.56-2.59c0.09-1.37-0.54-1.67-1.78-1.61
			c-2.42,0.13-4.86,0.15-7.21-0.62c-0.85-0.28-1.49-0.25-1.4,0.82c0.23,2.58-0.84,2.45-2.58,1.38c-0.83-0.51-1.79-0.81-2.69-1.21
			c-5.21-2.34-10.42-3.42-15.66-0.09c-0.12-0.03-0.21,0.02-0.26,0.13c-1.41,0.5-2.89,0.88-3.87,2.15c0,0,0.01-0.02,0.01-0.02
			c-0.74,0.09-1.28,0.44-1.6,1.12c0,0,0.03-0.01,0.03-0.01c-0.51-0.03-0.83,0.23-1.03,0.67c0,0,0.02-0.02,0.02-0.02
			c-0.94,0.26-1.63,0.84-2.15,1.65c0,0,0,0,0,0c-1.29,0.44-2.25,1.26-2.89,2.46c0,0,0.04,0,0.04,0c-0.56-0.15-0.9,0.11-1.08,0.62
			c0,0,0.04-0.03,0.04-0.03c-0.99-0.05-2.18,0.53-2.81-0.78c-0.67-1.39,0.47-2.07,1.18-2.93c0.49-0.59,1.32-0.93,1.36-1.85
			c0,0,0-0.03,0-0.03c0.81-0.23,1.37-0.71,1.64-1.52c0,0,0.08-0.05,0.08-0.05c0.59-0.06,0.87-0.45,1.05-0.96c0,0,0.11-0.1,0.11-0.1
			c0.29-0.04,0.46-0.18,0.42-0.5c0,0,0.06-0.07,0.06-0.07c0.76-0.2,1.25-0.65,1.37-1.45c0,0,0.02-0.04,0.02-0.05
			c0.43-0.03,0.66-0.25,0.67-0.69c0,0,0.03,0.02,0.03,0.01c0.35,0,0.52-0.17,0.51-0.52c0,0,0.05-0.03,0.05-0.03
			c1.96-1.64,3.95-3.24,5.25-5.5c0,0-0.02,0.01-0.02,0.01c0.37-0.01,0.56-0.19,0.54-0.57c0,0-0.02,0.01-0.02,0.01
			c0.39,0.03,0.57-0.16,0.59-0.53c0,0-0.02,0.02-0.02,0.02c0.37-0.01,0.56-0.2,0.56-0.57c0,0-0.03,0.03-0.03,0.03
			c0.38-0.02,0.55-0.23,0.55-0.59c0,0-0.02,0.04-0.02,0.04c1.82-1.08,3.22-2.57,4.31-4.37c0,0-0.04,0.03-0.04,0.03
			c0.2-0.19,0.39-0.37,0.59-0.56c0,0-0.02,0.02-0.02,0.02c0.34-0.07,0.53-0.26,0.5-0.62c0,0-0.01,0.02-0.01,0.02
			c0.61-0.11,1.02-0.42,1.09-1.08c0,0,0,0.01,0,0.01c0.5,0.01,0.75-0.26,0.82-0.73c0,0,0.11-0.1,0.11-0.1
			c0.67-0.21,1.12-0.62,1.25-1.33c0,0-0.02,0.02-0.02,0.02c0.36,0,0.54-0.2,0.59-0.55c0,0-0.02,0.02-0.02,0.02
			c1.29-0.54,1.94-1.84,3.04-2.6c1.17-0.81,2.19-2.84,3.8-1.44c1.58,1.37-0.59,2.44-0.98,3.68c-0.03,0.08,0,0.18,0,0.27c0,0,0,0,0,0
			c-1.31,0.49-2.06,1.55-2.71,2.71c0,0,0.02-0.02,0.02-0.02c-2.94,2.66-5.87,5.33-8.09,8.66c0,0,0,0,0,0
			c-0.46,0-0.72,0.24-0.83,0.66c-0.12,0.01-0.19,0.08-0.21,0.2c-0.89,0.49-1.56,1.16-1.77,2.56c5.88-1.67,11.25-0.55,16.43,2.17
			c2.62,1.38,2.73,1.25,2.73-1.78c0.02-10.88-0.02-21.77,0.03-32.65c0.01-1.76-0.37-2.76-2.41-2.51c-1.58,0.2-1.58-1-1.66-2.15
			c-0.08-1.29,0.49-1.81,1.71-1.82c4.95-0.04,9.89-0.09,14.84-0.15c1.35-0.02,1.92,0.58,1.89,1.98c-0.03,1.26-0.27,2.23-1.75,2.06
			c-2.18-0.25-2.47,0.87-2.46,2.72c0.07,11.43,0.07,22.85,0.01,34.28c-0.01,2.47,0.81,2.41,2.37,1.09c0,0,0.18-0.15,0.19-0.15
			c1.95-0.62,3.64-1.65,4.96-3.24c0,0,0,0,0,0c0.7,0.05,1.08-0.3,1.22-0.96c0,0,0.01,0.02,0.01,0.02c1.29-0.42,2.33-1.19,3.15-2.26
			c0,0-0.02,0.02-0.02,0.02c0.35-0.04,0.54-0.23,0.53-0.59c0,0-0.02,0.02-0.02,0.02c0.36,0.03,0.58-0.13,0.64-0.5
			c0,0-0.01,0.03-0.01,0.03c2.37-1.32,4.18-3.28,6.06-5.17c0,0,0.05,0,0.05-0.01c0.35,0.09,0.64,0.03,0.81-0.32l-0.03-0.05
			c-0.05,3.17,0.38,6.36-0.25,9.85c-0.97-1.04-0.55-2.08-0.99-2.8c-0.38-0.62-0.83-0.59-0.98,0.24c0,0-0.09,0.09-0.09,0.09
			c-0.6-0.16-0.86,0.16-0.96,0.69c0,0,0.02-0.01,0.02-0.01c-0.53-0.06-0.85,0.17-0.97,0.68c0,0,0,0,0,0
			c-0.46,0.11-0.81,0.32-0.76,0.87c0,0,0.03-0.01,0.03-0.01c-0.61-0.14-0.9,0.24-1.17,0.68c-2.12,1.55-4.24,3.11-6.35,4.66
			c-0.58,0.12-1.06,0.35-1.24,0.97c0,0-0.17,0.06-0.17,0.06C322.75,263.99,321.4,264.81,320.1,265.74z"/>
		<path fill="#FDCD58" d="M338.23,247.66c-0.18,0.35-0.46,0.41-0.81,0.32c0.08-6.84,0.25-13.68,0.18-20.52
			c-0.01-1.6,0-3.63-2.74-3.69c-1.73-0.04-1.45-1.76-1.49-2.98c-0.04-1.29-0.07-2.59,1.68-2.87c3.55-0.57,7.14-0.45,10.67-0.22
			c1.95,0.13,3.84-0.46,5.86,0.04c2.23,0.55,2.38,1.83,2.25,3.55c-0.12,1.6-0.49,2.93-2.61,2.32c-0.84-0.24-1.12,0.34-1.22,1.03
			c-0.17,1.15-0.43,2.3-0.44,3.46c-0.04,9.54,0.05,19.07-0.07,28.61c-0.03,2.28,0.71,3.1,2.93,2.82c3.91-0.49,7.8-1.14,11.77-1.25
			c2.74-0.08,3.8-1.87,3.79-4.54c-0.04-9.09-0.01-18.17-0.02-27.26c0-1.25,0.23-2.54-1.78-2.59c-1.4-0.04-3.89-3.68-3.13-4.64
			c0.72-0.91,2.3-1.54,3.53-1.57c5.35-0.14,10.7,0,16.06,0.01c0.69,0,0.92,0.44,1.16,0.93c1.23,2.46-0.12,5.12-2.77,5.32
			c-0.74,0.06-0.85,0.32-0.87,0.97c-0.05,1.07-0.33,2.13-0.34,3.19c-0.03,6.75,0.01,13.49-0.02,20.24
			c-0.01,1.88,0.78,3.69,0.09,5.67c-0.42,1.21-0.05,2.23,1.98,2.08c4.26-0.32,8.54-0.28,12.84,0.05c3.06,0.24,5.97,0.98,8.97,1.36
			c1.04,0.13,2.63,0.93,2.36,1.73c-0.5,1.5,0.23,3.87-2.32,4.34c-1.53,0.28-3.06,0.34-4.55,0c-5.55-1.26-11.11-1.77-16.78-0.92
			c-1.43,0.22-2,0.75-2.09,2.2c-0.26,4.03-0.59,8.06-0.55,12.11c0.02,1.49,0.09,2.45,1.97,2.1c0.67-0.13,1.27,0.22,0.94,1.13
			c-3.54,0.2-3.54,0.2-3.55-3.35c-0.01-2.51-0.04-5.02-0.01-7.53c0.11-7.84,0.12-7.75-7.72-6.94c-2.04,0.21-2.54,1.03-2.5,2.83
			c0.07,3.67,0.06,7.35,0.03,11.02c-0.03,4.38,0.5,3.88-3.81,4.05c-0.24-0.61-0.09-1.24,0.56-1.19c2.39,0.18,2.28-1.4,2.28-2.98
			c0-3.32-0.01-6.65,0.03-9.97c0.02-1.64-0.42-2.53-2.33-2.25c-4.95,0.73-9.92,1.35-14.88,2.01c-0.71,0.09-1.1,0.36-1.1,1.2
			c0,3.37-0.1,6.73-0.1,10.1c0,1.2,0.05,2.49,1.93,1.99c1.73-0.46,2.39,0.54,2.3,2.02c-0.09,1.53,0.88,3.94-1.76,4.04
			c-5.65,0.21-11.32,0.23-16.96-0.01c-2.64-0.12-1.53-2.59-1.65-4.1c-0.1-1.28,0.34-2.4,2.06-1.88c1.43,0.43,1.79-0.14,1.97-1.56
			c0.56-4.48-0.07-8.95,0.14-13.41c0.05-1.03-0.31-2.14,0.69-2.94c0.04,5.48,0.05,10.96,0.16,16.45c0.03,1.66-0.44,2.63-2.27,2.44
			c-1.23-0.13-1.89,0.31-1.82,1.64c0.05,1.12,0.04,2.3,1.58,2.31c5.13,0.04,10.25,0.06,15.38,0c1.29-0.01,1.47-1.06,1.54-2.13
			c0.07-1.26-0.63-1.55-1.68-1.46c-2.09,0.17-2.62-0.99-2.58-2.83c0.05-3.06-0.25-6.14,0.06-9.17c0.27-2.62-0.41-4.02-3.11-4.19
			c0.44-0.1,0.87-0.22,1.31-0.3c1.13-0.22,1.37-1.02,1.33-2.01c-0.06-1.3-1.05-1.21-1.94-1.34c-3.78-0.57-5.36-2.2-4.95-5.05
			c0.37,0.62,0.66,1.29,1.11,1.84c1.38,1.65,3.15,3.17,5.29,2.48c1.95-0.63,0.88-2.81,0.9-4.26c0.1-10.14,0.06-20.29,0.06-30.43
			c0-1.27-0.19-2.68,1.75-2.62c1.37,0.04,2.48-0.01,2.43-1.92c-0.05-2.04-1.37-1.99-2.76-1.99c-4.49,0.02-8.98,0.07-13.47,0.07
			c-1.34,0-2.26,0.28-2.28,1.9c-0.02,1.48,0.47,2.19,2.05,1.98c1.52-0.2,2.07,0.63,2.05,2.08
			C338.33,232.43,338.28,240.05,338.23,247.66z M379.27,257.34c-0.02,0.89-0.02,1.78-0.05,2.68c-0.04,1.33,0.61,1.67,1.86,1.52
			c6.74-0.82,13.41-0.21,20.05,1.02c1.43,0.27,3.15,0.5,3.51-1.41c0.35-1.83-0.97-2.7-2.68-2.99c-7.54-1.26-15.09-2-22.72-0.8
			c-0.04-10.79-0.05-21.58-0.13-32.36c-0.01-1.63,0.49-2.33,2.16-2.16c1.64,0.17,1.86-0.92,1.91-2.24c0.06-1.59-0.92-1.74-2.09-1.73
			c-4.77,0.01-9.53,0.05-14.3,0.02c-1.4-0.01-1.89,0.59-1.93,1.93c-0.04,1.29,0.21,2.19,1.72,2.04c2.23-0.23,2.39,1.03,2.38,2.82
			c-0.08,9.8,0.01,19.61-0.11,29.41c-0.03,2.46,0.85,3.16,3.17,2.84C374.42,257.6,376.86,257.53,379.27,257.34z M353.73,260.66
			c-0.7-0.1-1.41-0.27-2.11-0.27c-1.42,0-2.83-0.2-2.94,2.05c-0.11,2.3,1.19,2.12,2.7,2.14c5.05,0.04,9.93-1.31,14.92-1.67
			c1.75-0.12,2.61-0.6,2.46-2.53c-0.17-2.22-1.58-1.55-2.89-1.57C361.72,258.73,357.91,260.91,353.73,260.66z M371.51,261.68
			c2-0.21,3.69-0.39,5.37-0.55c1.04-0.1,1.31-0.75,1.29-1.67c-0.03-1.06-0.56-1.41-1.57-1.26c-1.68,0.26-3.36,0.49-5.04,0.72
			c-0.98,0.13-2.15,0.13-2.01,1.55C369.68,261.86,370.84,261.69,371.51,261.68z"/>
		<path fill="#FE009B" d="M338.23,247.66c0.06-7.61,0.1-15.23,0.18-22.84c0.01-1.44-0.53-2.28-2.05-2.08
			c-1.58,0.21-2.07-0.5-2.05-1.98c0.02-1.62,0.94-1.9,2.28-1.9c4.49,0,8.98-0.05,13.47-0.07c1.39-0.01,2.71-0.06,2.76,1.99
			c0.05,1.91-1.06,1.96-2.43,1.92c-1.94-0.06-1.75,1.35-1.75,2.62c0,10.14,0.04,20.29-0.06,30.43c-0.01,1.45,1.06,3.63-0.9,4.26
			c-2.14,0.69-3.92-0.83-5.29-2.48c-0.45-0.54-0.74-1.22-1.11-1.84c-0.06-0.34-0.12-0.68-0.18-1.02c0.11-1.23,0.25-2.46,0.31-3.69
			c0.11-2.22-0.66-3.64-3.21-3.36L338.23,247.66z"/>
		<path fill="#FE009B" d="M365.12,280.28c4.31-0.17,3.77,0.33,3.81-4.05c0.03-3.67,0.04-7.35-0.03-11.02
			c-0.03-1.8,0.47-2.62,2.5-2.83c7.84-0.81,7.82-0.9,7.72,6.94c-0.03,2.51,0,5.02,0.01,7.53c0.01,3.55,0.02,3.55,3.55,3.35
			c0.24,0.21,0.48,0.43,0.72,0.64c0.03,1,0.05,2.01,0.08,3.01c-0.11,0.03-0.15,0.11-0.12,0.21c-5.98,0.61-11.98,0.05-17.97,0.33
			C364.11,283.1,364.39,281.7,365.12,280.28z"/>
		<path fill="#FE009B" d="M345.52,264.39c2.7,0.17,3.38,1.58,3.11,4.19c-0.31,3.03,0,6.11-0.06,9.17c-0.03,1.84,0.5,3,2.58,2.83
			c1.05-0.09,1.75,0.2,1.68,1.46c-0.06,1.07-0.25,2.12-1.54,2.13c-5.13,0.05-10.25,0.03-15.38,0c-1.54-0.01-1.53-1.19-1.58-2.31
			c-0.06-1.33,0.6-1.77,1.82-1.64c1.83,0.19,2.3-0.78,2.27-2.44c-0.1-5.48-0.11-10.96-0.16-16.45c1.12-0.8,1.58,0.31,2.21,0.8
			C341.99,263.3,343.52,264.36,345.52,264.39z"/>
		<path fill="#FDCD58" d="M287.13,262.52c5.24-3.33,10.45-2.26,15.66,0.09c0.9,0.4,1.86,0.7,2.69,1.21c1.73,1.07,2.81,1.2,2.58-1.38
			c-0.1-1.08,0.54-1.1,1.4-0.82c2.35,0.77,4.78,0.75,7.21,0.62c1.23-0.07,1.87,0.24,1.78,1.61c-0.08,1.16,0.18,2.45-1.56,2.59
			c-2.07,0.16-4.14,0.22-6.13-0.5c-1.96-0.72-2.78-0.28-2.68,1.98c0.15,3.32-0.01,6.64,0.04,9.97c0.02,1.5-0.31,2.47-2.09,2.25
			c-1.62-0.21-1.91,0.74-1.95,2.13c-0.05,1.46,0.61,1.93,1.9,1.93c4.94,0.02,9.88,0.04,14.82,0.05c1.5,0,1.68-0.95,1.69-2.17
			c0.02-1.22-0.37-1.94-1.68-1.81c-2.08,0.21-2.62-0.81-2.56-2.72c0.1-3.14-0.01-6.29-0.01-9.43c0-1.09-0.07-2.28,1.57-2.23
			c-1.06,3.8-0.35,7.69-0.52,11.53c-0.05,1.13,0.57,1.76,1.66,1.54c1.66-0.32,2.19,1.41,3.47,1.74c-0.89,1.11,0.58,2.85-0.9,3.73
			c-1.15,0.68-2.43,1.4-3.8,1.21c-4.84-0.65-9.7-0.12-14.54-0.34c-1.59-0.07-1.85-1.55-3.11-1.78c-0.35-0.07,2.62-4.6,3.32-4.49
			c1.42,0.24,1.49-0.59,1.7-1.61c0.79-3.78,0.21-7.56-0.07-11.32c-0.06-0.83-1.17-1.15-1.86-1.41c-3-1.15-6.06-2.15-9.11-3.19
			c-1.85-0.63-3.54,0.19-5.25,0.69C289.6,262.54,288.41,262.93,287.13,262.52z"/>
		<path fill="#FDCD58" d="M320.66,260.76c-1.56,1.32-2.38,1.38-2.37-1.09c0.06-11.43,0.06-22.85-0.01-34.28
			c-0.01-1.85,0.29-2.97,2.46-2.72c1.48,0.17,1.72-0.8,1.75-2.06c0.03-1.4-0.54-1.99-1.89-1.98c-4.95,0.06-9.89,0.11-14.84,0.15
			c-1.23,0.01-1.79,0.53-1.71,1.82c0.07,1.15,0.08,2.34,1.66,2.15c2.05-0.25,2.42,0.75,2.41,2.51c-0.04,10.88-0.01,21.77-0.03,32.65
			c0,3.03-0.11,3.16-2.73,1.78c-5.18-2.72-10.55-3.84-16.43-2.17c0.21-1.41,0.88-2.07,1.77-2.56c0.63,0.54,1.33,0.99,2.19,0.86
			c4.6-0.72,8.63,1.05,12.59,2.96c1.73,0.84,2.01,0.26,1.97-1.29c-0.15-5.02-0.46-10.05-0.37-15.07c0.1-5.38,0.45-10.75,0.36-16.14
			c-0.02-1.32,0.2-2.46-1.92-2.14c-1.68,0.25-2.78-1.48-2.63-3.47c0.21-2.68,0.97-3.26,3.43-3.18c4.54,0.14,9.09,0.26,13.63,0.09
			c1.3-0.05,2.43,0.69,3.68,0.37l-0.02-0.02c0.4,0.56,0.79,1.11,1.19,1.67c-2.55,0.27-0.17,4.82-3.73,4.26
			c-1.48-0.23-1.8,0.72-1.8,1.99c0.02,10.98,0.02,21.96,0,32.93C319.29,259.81,319.57,260.54,320.66,260.76z"/>
		<path fill="#FE009B" d="M416.14,263.11c-0.11,1.85-0.95,3.12-2.89,3.18c-1.95,0.06-3.04-1.15-2.96-3c0.07-1.73,1.03-3.1,3.01-3.04
			C415.03,260.3,416.07,261.28,416.14,263.11z"/>
		<path fill="#FDCD58" d="M338.19,247.62c2.54-0.29,3.32,1.13,3.21,3.36c-0.06,1.23-0.21,2.46-0.31,3.69
			c-1.33-0.82-0.84-2.01-0.55-3.1c0.28-1.05,0.25-1.88-1.02-2.6c-0.44,2.61-0.77,5.06-0.35,7.45c0.33,1.87-0.79,2.39-1.97,2.44
			c-1.64,0.07-0.66-1.24-0.61-1.96c0.05-0.78-0.25-1.38-0.61-2c0.15-0.83,0.6-0.86,0.98-0.24c0.44,0.73,0.02,1.76,0.99,2.8
			C338.57,253.98,338.15,250.78,338.19,247.62z"/>
		<path fill="#FDCD58" d="M365.38,284.39c5.99-0.28,11.99,0.27,17.97-0.33c0.19,1.23-0.65,1.29-1.49,1.29
			c-5.26-0.01-10.51-0.02-15.77-0.05C365.59,285.29,365.3,284.94,365.38,284.39z"/>
		<path fill="#FDCD58" d="M302.52,242.74c0-0.09-0.02-0.19,0-0.27c0.39-1.24,2.56-2.31,0.98-3.68c-1.61-1.4-2.63,0.63-3.8,1.44
			c-1.1,0.76-1.75,2.06-3.04,2.6c0.62-2.95,2.98-4.25,5.38-5.33c0.89-0.4,2.64-0.53,2.79,1.13
			C304.99,240.35,305.03,242.36,302.52,242.74z"/>
		<path fill="#FDCD58" d="M291.74,254.09c2.22-3.33,5.15-6,8.09-8.66c0.21,1.75-1.17,2.62-2.23,3.45
			C295.54,250.5,294.63,253.43,291.74,254.09z"/>
		<path fill="#FDCD58" d="M274.13,265.67c-0.04,0.92-0.88,1.26-1.36,1.85c-0.7,0.86-1.84,1.54-1.18,2.93
			c0.63,1.31,1.81,0.72,2.81,0.78c-0.74,1.17-1.72,1.54-2.88,0.67c-1.09-0.82-1.67-1.88-0.97-3.27
			C271.3,267.12,271.89,265.39,274.13,265.67z"/>
		<path fill="#FDCD58" d="M337.36,247.99c-1.88,1.89-3.7,3.85-6.06,5.17C332.27,250.21,334.21,248.38,337.36,247.99z"/>
		<path fill="#FDCD58" d="M285.39,254.22c-1.29,2.27-3.29,3.87-5.25,5.5C280.33,256.4,283.1,255.54,285.39,254.22z"/>
		<path fill="#FDCD58" d="M320.1,265.74c1.3-0.92,2.65-1.75,4.22-2.15c0.17,0.39,0.35,0.77,0.52,1.16
			C323.22,264.87,322.13,267.54,320.1,265.74z"/>
		<path fill="#FDCD58" d="M291.85,247.7c-1.09,1.8-2.49,3.29-4.31,4.37C288.32,249.96,289.5,248.25,291.85,247.7z"/>
		<path fill="#FDCD58" d="M325.8,257.37c-1.32,1.59-3,2.62-4.96,3.24C321.36,257.8,323.8,257.92,325.8,257.37z"/>
		<path fill="#FDCD58" d="M383.47,283.84c-0.03-1-0.05-2.01-0.08-3.01c0.68-0.09,1.39-0.38,1.98,0.25
			C383.96,281.47,385.74,284.05,383.47,283.84z"/>
		<path fill="#FDCD58" d="M275.39,270.64c0.64-1.2,1.6-2.02,2.89-2.46C277.77,269.54,277.4,271.05,275.39,270.64z"/>
		<path fill="#FDCD58" d="M299.82,245.45c0.65-1.15,1.4-2.22,2.71-2.71C302.65,244.67,301.72,245.54,299.82,245.45z"/>
		<path fill="#FDCD58" d="M283,264.79c0.98-1.27,2.46-1.64,3.87-2.15C286.16,264.41,284.67,264.76,283,264.79z"/>
		<path fill="#FDCD58" d="M330.18,254.17c-0.82,1.08-1.86,1.84-3.15,2.26C327.07,254.28,328.7,254.33,330.18,254.17z"/>
		<path fill="#FDCD58" d="M278.28,268.18c0.52-0.8,1.21-1.39,2.15-1.65C280.26,267.79,279.48,268.26,278.28,268.18z"/>
		<path fill="#FDCD58" d="M275.76,264.13c-0.27,0.8-0.83,1.29-1.64,1.52C274.22,264.65,274.5,263.86,275.76,264.13z"/>
		<path fill="#FDCD58" d="M296.12,243.34c-0.13,0.72-0.58,1.13-1.25,1.33C294.41,243.41,295.19,243.3,296.12,243.34z"/>
		<path fill="#FDCD58" d="M281.41,265.9c0.32-0.68,0.86-1.04,1.6-1.12C283.02,265.91,282.32,266.06,281.41,265.9z"/>
		<path fill="#FDCD58" d="M278.86,260.99c-0.12,0.8-0.61,1.26-1.37,1.45C277.15,261.21,277.99,261.08,278.86,260.99z"/>
		<path fill="#FDCD58" d="M276.9,263.11c-0.18,0.51-0.47,0.9-1.05,0.96C275.64,263.15,276,262.84,276.9,263.11z"/>
		<path fill="#FDCD58" d="M327.02,256.41c-0.14,0.66-0.53,1.01-1.22,0.96C325.93,256.71,326.35,256.4,327.02,256.41z"/>
		<path fill="#FDCD58" d="M323.64,217.94c0.12-0.18,0.24-0.36,0.36-0.54c0.35,0.52-0.28,0.34-0.38,0.53
			C323.62,217.92,323.64,217.94,323.64,217.94z"/>
		<path fill="#FDCD58" d="M324.49,263.53c0.18-0.62,0.66-0.86,1.24-0.97C325.58,263.21,325.29,263.69,324.49,263.53z"/>
		<path fill="#FDCD58" d="M293.95,245.5c-0.07,0.66-0.48,0.97-1.09,1.08C292.83,245.82,293.2,245.47,293.95,245.5z"/>
		<path fill="#FDCD58" d="M332.08,257.89c0.27-0.44,0.56-0.83,1.17-0.68C333.1,257.86,332.64,257.96,332.08,257.89z"/>
		<path fill="#FDCD58" d="M333.97,256.35c0.12-0.51,0.44-0.74,0.97-0.68C334.82,256.19,334.47,256.38,333.97,256.35z"/>
		<path fill="#FDCD58" d="M334.92,255.68c0.1-0.53,0.36-0.85,0.96-0.69C335.85,255.62,335.44,255.73,334.92,255.68z"/>
		<path fill="#FDCD58" d="M290.91,254.76c0.12-0.42,0.37-0.67,0.83-0.66C291.76,254.68,291.49,254.91,290.91,254.76z"/>
		<path fill="#FDCD58" d="M280.41,266.55c0.2-0.44,0.52-0.7,1.03-0.67C281.32,266.45,280.94,266.61,280.41,266.55z"/>
		<path fill="#FDCD58" d="M274.35,271.26c0.18-0.51,0.52-0.77,1.08-0.62C275.3,271.24,274.89,271.37,274.35,271.26z"/>
		<path fill="#FDCD58" d="M294.77,244.78c-0.07,0.47-0.32,0.74-0.82,0.73C293.91,244.92,294.13,244.62,294.77,244.78z"/>
		<path fill="#FDCD58" d="M333.21,257.23c-0.06-0.56,0.3-0.76,0.76-0.87C334.01,256.9,333.8,257.22,333.21,257.23z"/>
		<path fill="#FDCD58" d="M280.09,259.75c0.01,0.35-0.17,0.52-0.51,0.52C279.52,259.88,279.69,259.7,280.09,259.75z"/>
		<path fill="#FDCD58" d="M279.55,260.26c-0.01,0.44-0.24,0.65-0.67,0.69C278.91,260.52,279.1,260.26,279.55,260.26z"/>
		<path fill="#FDCD58" d="M277.43,262.52c0.04,0.32-0.13,0.46-0.42,0.5C276.9,262.64,277.04,262.47,277.43,262.52z"/>
		<path fill="#FDCD58" d="M330.69,253.6c0,0.36-0.18,0.55-0.53,0.59C330.17,253.84,330.34,253.64,330.69,253.6z"/>
		<path fill="#FDCD58" d="M285.91,253.66c0.02,0.38-0.17,0.56-0.54,0.57C285.38,253.87,285.56,253.68,285.91,253.66z"/>
		<path fill="#FDCD58" d="M331.31,253.13c-0.06,0.36-0.27,0.53-0.64,0.5C330.74,253.27,330.95,253.11,331.31,253.13z"/>
		<path fill="#FDCD58" d="M286.48,253.13c-0.02,0.38-0.2,0.57-0.59,0.53C286.09,253.49,286.28,253.31,286.48,253.13z"/>
		<path fill="#FDCD58" d="M287.02,252.59c0,0.37-0.19,0.56-0.56,0.57C286.48,252.81,286.68,252.62,287.02,252.59z"/>
		<path fill="#FDCD58" d="M287.55,252.02c-0.01,0.36-0.17,0.58-0.55,0.59C287.02,252.27,287.2,252.07,287.55,252.02z"/>
		<path fill="#FDCD58" d="M292.4,247.17c-0.2,0.19-0.39,0.37-0.59,0.56C291.84,247.37,292.04,247.19,292.4,247.17z"/>
		<path fill="#FDCD58" d="M292.88,246.57c0.03,0.36-0.16,0.55-0.5,0.62C292.38,246.85,292.53,246.63,292.88,246.57z"/>
		<path fill="#FDCD58" d="M296.69,242.81c-0.04,0.34-0.22,0.54-0.59,0.55C296.13,243,296.34,242.83,296.69,242.81z"/>
		<path fill="#FE009B" d="M379.27,257.34c-2.42,0.18-4.85,0.25-7.25,0.58c-2.32,0.32-3.2-0.37-3.17-2.84
			c0.12-9.8,0.03-19.61,0.11-29.41c0.01-1.8-0.14-3.05-2.38-2.82c-1.5,0.15-1.76-0.75-1.72-2.04c0.04-1.35,0.53-1.94,1.93-1.93
			c4.77,0.03,9.53-0.01,14.3-0.02c1.17,0,2.15,0.15,2.09,1.73c-0.05,1.33-0.27,2.41-1.91,2.24c-1.67-0.17-2.18,0.53-2.16,2.16
			c0.09,10.79,0.1,21.57,0.13,32.36C379.25,257.37,379.27,257.34,379.27,257.34z"/>
		<path fill="#FE009B" d="M379.25,257.37c7.62-1.2,15.18-0.46,22.72,0.8c1.72,0.29,3.03,1.16,2.68,2.99
			c-0.36,1.9-2.08,1.67-3.51,1.41c-6.64-1.23-13.31-1.85-20.05-1.02c-1.25,0.15-1.9-0.19-1.86-1.52c0.03-0.89,0.03-1.78,0.05-2.68
			C379.27,257.34,379.25,257.37,379.25,257.37z"/>
		<path fill="#FE009B" d="M353.73,260.66c4.18,0.25,7.99-1.93,12.14-1.85c1.31,0.02,2.72-0.64,2.89,1.57
			c0.15,1.93-0.71,2.41-2.46,2.53c-4.99,0.35-9.88,1.7-14.92,1.67c-1.51-0.01-2.81,0.17-2.7-2.14c0.11-2.25,1.51-2.06,2.94-2.05
			C352.32,260.39,353.02,260.56,353.73,260.66z"/>
		<path fill="#FEF000" d="M371.51,261.68c-0.67,0.01-1.83,0.19-1.96-1.21c-0.14-1.42,1.03-1.42,2.01-1.55
			c1.68-0.23,3.37-0.46,5.04-0.72c1.01-0.15,1.54,0.2,1.57,1.26c0.03,0.92-0.25,1.57-1.29,1.67
			C375.19,261.29,373.51,261.47,371.51,261.68z"/>
	</g>
</g>
<rect x="190.65" y="409.39" fill="#8C6239" width="305.93" height="24.5"/>
<path fill="#C7B299" d="M124.83,145.6c-3.52-19.62-42.52-32.58-48.43-65.56c-9.67,13.9-26.15,58.68-22.63,78.3
	c3.52,19.62,22.28,32.68,41.9,29.16C115.3,183.98,128.35,165.22,124.83,145.6z"/>
<polygon fill="#C6C6C6" points="263.64,298.81 81.82,298.81 97.83,502.4 247.64,502.4 "/>
<path fill="#E6E6E6" d="M268.59,305.22H79.19c-7.75,0-14.03-6.28-14.03-14.03v-2.29c0-7.75,6.28-14.03,14.03-14.03h189.39
	c7.75,0,14.03,6.28,14.03,14.03v2.29C282.62,298.93,276.34,305.22,268.59,305.22z"/>
<rect x="332.39" y="431.09" fill="#8C6239" width="16.06" height="67.75"/>
<rect x="332.46" y="395.75" transform="matrix(6.123234e-17 -1 1 6.123234e-17 -112.9701 792.0005)" fill="#8C6239" width="14.11" height="113.48"/>
<polygon fill="#8C6239" points="300.99,431.09 284.19,430.36 259.75,498.84 276.55,499.57 "/>
<polygon fill="#8C6239" points="385.09,431.09 401.89,430.36 426.33,498.84 409.53,499.57 "/>
<g>
</g>
<g>
</g>
<g>
</g>
<g>
</g>
<g>
</g>
</svg>
