<?xml version="1.0" encoding="utf-8"?>
<!-- Generator: Adobe Illustrator 24.3.0, SVG Export Plug-In . SVG Version: 6.00 Build 0)  -->
<svg version="1.1" id="Layer_1" xmlns="http://www.w3.org/2000/svg" xmlns:xlink="http://www.w3.org/1999/xlink" x="0px" y="0px"
	 viewBox="0 0 560 560" enable-background="new 0 0 560 560" xml:space="preserve">
<path fill="#BAB9AE" d="M428.3,428.8c-0.1,6.3,0.9,12.8-0.8,19c-3.5,12.4-11.6,20.3-23.9,23.8c-0.7,0.2-1.6,0.1-2,0.9
	c-80.3,0-160.7,0-241,0c-4.9-2-10-3.3-14.3-6.8c-8.1-6.7-12.5-15.2-12.6-25.8c0-3.7,0.1-7.4,0.1-11.1c0.2,0.6,0.5,1.1,0.7,1.7
	c3.9,15.8,16.6,25.7,32.5,25.7c76.1,0.2,152.2,0.1,228.2,0c9.1,0,17.1-3.3,23.7-9.9C423.8,441.4,426.2,435.2,428.3,428.8z"/>
<path fill="#95A5A6" d="M310.1,79.5c2.3,0,4.6,0,6.9,0c10.4,4.2,13,8.2,13.1,19.5c0,4.4,0.1,8.9,0.1,13.3
	c-0.1,10.8-0.1,21.6-0.2,32.4c-10.9,0-21.8,0-32.8,0c-0.1-10.8-0.2-21.6-0.2-32.4c0.1-4.3,0.3-8.7,0.1-13
	C296.8,89.6,300.4,82.6,310.1,79.5z"/>
<path fill="#95A5A6" d="M244.9,79.5c2.3,0,4.6,0,6.9,0c8.1,2.7,12.7,8.2,12.9,16.9c0.1,5.4,0.1,10.7,0.2,16.1c0,9.4,0,18.9-0.1,28.3
	c0,1.4,0.5,2.8-0.6,4c-10.8,0-21.5,0-32.3,0c-0.1-10.8-0.1-21.6-0.2-32.4c0-4.4,0.1-8.9,0.1-13.3C231.9,87.7,234.5,83.7,244.9,79.5z
	"/>
<path fill="#95A5A6" d="M166.3,112.2c0-4.3,0.4-8.7,0.1-13c-0.8-9.8,3.1-16.4,12.5-19.7c2.6,0,5.1,0,7.7,0c0.4,0.3,0.8,0.6,1.3,0.8
	c7.8,3.1,11,7.6,11.1,15.9c0.1,5.4,0.1,10.7,0.1,16.1c-0.1,10.8-0.2,21.7-0.2,32.5c-10.7,0-21.5,0-32.2,0
	C166.5,133.9,166.4,123,166.3,112.2z"/>
<path fill="#95A5A6" d="M383.1,79.5c2.4,1.4,5.2,2.1,7.3,4c3.2,3,5.1,6.7,5.1,11.1c0.1,5.9,0.1,11.7,0.2,17.6
	c-0.1,10.8-0.2,21.7-0.2,32.5c-10.7,0-21.5,0-32.2,0c-0.1-10.8-0.2-21.7-0.3-32.5c0.1-5.9,0.1-11.7,0.2-17.6
	c0.1-4.5,1.9-8.1,5.1-11.1c2.1-1.9,4.9-2.6,7.3-4C377.9,79.5,380.5,79.5,383.1,79.5z"/>
<path fill="#7F8C8D" d="M330,144.8c0.1,8.8-7.7,16.7-16.3,16.8c-8.5,0.1-16.2-7.8-16.4-16.8C308.2,144.8,319.1,144.8,330,144.8z"/>
<path fill="#7F8C8D" d="M264.2,144.7c1.2,8.3-7.1,16.7-16,16.8c-8.7,0.1-16.4-8-16.3-16.8C242.7,144.7,253.4,144.7,264.2,144.7z"/>
<path fill="#7F8C8D" d="M198.8,144.7c1,8.3-6.8,16.7-16.1,16.7c-9.3,0-17.1-8.4-16.1-16.7C177.3,144.7,188.1,144.7,198.8,144.7z"/>
<path fill="#7F8C8D" d="M395.3,144.7c1,9.5-8.6,16.8-16.1,16.8c-7.6,0-17.1-7.4-16.1-16.8C373.8,144.7,384.6,144.7,395.3,144.7z"/>
<path fill="#95A4A5" d="M315.5,276c-5.1,5.6-10.4,11-16.1,16c-37.6,0-75.1,0-112.7,0.1c-3.3,0-4.3-1-4-4.1c0.4-3.9-1.7-8.9,0.9-11.4
	c2.4-2.3,7.3-0.7,11.1-0.7C235,276,275.2,276,315.5,276z"/>
<path fill="#95A4A5" d="M266.3,325.2c-2.3,2.5-4.6,5-6.9,7.5c-3,2.9-6.1,5.7-9.1,8.6c-21.2,0-42.4-0.1-63.6,0.1
	c-3.2,0-4.4-0.9-4-4.1c0.4-3.9-1.7-8.9,0.9-11.4c2.4-2.3,7.3-0.7,11.1-0.7C218.6,325.1,242.4,325.1,266.3,325.2z"/>
<path fill="#E0E0D1" d="M428.4,172.3c0-9.4,0-18.9-0.1-28.3c-0.1-5.7-1.6-11.1-4.7-15.9c-6.5-10.2-15.9-15.5-28-15.8
	c-0.1,10.8-0.2,21.7-0.2,32.5c1,9.5-8.6,16.8-16.1,16.8c-7.6,0-17.1-7.4-16.1-16.8c-0.1-10.8-0.2-21.7-0.3-32.5
	c-10.9,0-21.8,0.1-32.6,0.1c-0.1,10.8-0.1,21.6-0.2,32.4c0.1,8.8-7.7,16.7-16.3,16.8c-8.5,0.1-16.2-7.8-16.4-16.8
	c-0.1-10.8-0.1-21.6-0.2-32.4c-10.7,0-21.4,0-32.1,0c0,9.4,0,18.9-0.1,28.3c0,1.4,0.5,2.8-0.6,4c1.2,8.3-7.1,16.7-16,16.8
	c-8.7,0.1-16.4-8-16.3-16.8c-0.1-10.8-0.1-21.6-0.2-32.4c-10.9,0-21.8-0.1-32.6-0.1c-0.1,10.8-0.2,21.7-0.2,32.5
	c1,8.3-6.8,16.7-16.1,16.7c-9.3,0-17.1-8.4-16.1-16.7c-0.1-10.8-0.2-21.7-0.3-32.5c-2.2,0.2-4.4,0.2-6.5,0.6
	c-16.1,3.6-26.3,16.4-26.3,33.1c0,91.9,0,183.7,0,275.6c0,2.4,0.1,4.9,0.1,7.3c0.2,0.6,0.5,1.1,0.7,1.7
	c3.9,15.8,16.6,25.7,32.5,25.7c76.1,0.2,152.2,0.1,228.2,0c9.1,0,17.1-3.3,23.7-9.9c5-4.9,7.4-11.2,9.4-17.6c0-0.6,0.1-1.3,0.1-1.9
	c0-25.8,0-51.5,0-77.3h0.1V172.3z"/>
<path fill="#BAB9AE" d="M375.9,226.6c-5,0.2-15.9,0.3-21.7,0.3c-53.1,0-106.3-0.1-159.4,0c-3.8,0-8.7-1.6-11.1,0.7
	c-2.6,2.5-0.5,7.5-0.9,11.4c-0.4,3.1,0.7,4.1,4,4.1c48.4-0.1,96.7-0.1,145.1-0.1c0,0-0.1,0.1-0.1,0.1c4.1,0,9.9,0,16.1-0.1
	c0.2,0,0.5,0,0.7,0c0,0,0,0,0,0c10.1-0.1,21.2-0.2,27.7-0.1c2.4,0,3.1-0.9,3-3.1c-0.1-3.2-0.2-6.4,0-9.6
	C379.4,227.5,378.6,226.5,375.9,226.6z"/>
<path fill="#BAB9AE" d="M375.9,275.7c-5,0.2-15.9,0.3-21.7,0.3c-53.1,0-106.3-0.1-159.4,0c-3.8,0-8.7-1.6-11.1,0.7
	c-2.6,2.5-0.5,7.5-0.9,11.4c-0.4,3.1,0.7,4.1,4,4.1c48.4-0.1,96.7-0.1,145.1-0.1c0,0-0.1,0.1-0.1,0.1c4.1,0,9.9,0,16.1-0.1
	c0.2,0,0.5,0,0.7,0c0,0,0,0,0,0c10.1-0.1,21.2-0.2,27.7-0.1c2.4,0,3.1-0.9,3-3.1c-0.1-3.2-0.2-6.4,0-9.6
	C379.4,276.6,378.6,275.6,375.9,275.7z"/>
<path fill="#BAB9AE" d="M375.9,324.8c-5,0.2-15.9,0.3-21.7,0.3c-53.1,0-106.3-0.1-159.4,0c-3.8,0-8.7-1.6-11.1,0.7
	c-2.6,2.5-0.5,7.5-0.9,11.4c-0.4,3.1,0.7,4.1,4,4.1c48.4-0.1,96.7-0.1,145.1-0.1c0,0-0.1,0.1-0.1,0.1c4.1,0,9.9,0,16.1-0.1
	c0.2,0,0.5,0,0.7,0c0,0,0,0,0,0c10.1-0.1,21.2-0.2,27.7-0.1c2.4,0,3.1-0.9,3-3.1c-0.1-3.2-0.2-6.4,0-9.6
	C379.4,325.7,378.6,324.7,375.9,324.8z"/>
<path fill="#BAB9AE" d="M375.9,373.9c-5,0.2-15.9,0.3-21.7,0.3c-53.1,0-106.3-0.1-159.4,0c-3.8,0-8.7-1.6-11.1,0.7
	c-2.6,2.5-0.5,7.5-0.9,11.4c-0.4,3.1,0.7,4.1,4,4.1c48.4-0.1,96.7-0.1,145.1-0.1c0,0-0.1,0.1-0.1,0.1c4.1,0,9.9,0,16.1-0.1
	c0.2,0,0.5,0,0.7,0c0,0,0,0,0,0c10.1-0.1,21.2-0.2,27.7-0.1c2.4,0,3.1-0.9,3-3.1c-0.1-3.2-0.2-6.4,0-9.6
	C379.4,374.9,378.6,373.8,375.9,373.9z"/>
<g id="Layer_2_2_">
</g>
</svg>
