<?xml version="1.0" encoding="utf-8"?>
<!-- Generator: Adobe Illustrator 24.3.0, SVG Export Plug-In . SVG Version: 6.00 Build 0)  -->
<svg version="1.1" id="Layer_1" xmlns="http://www.w3.org/2000/svg" xmlns:xlink="http://www.w3.org/1999/xlink" x="0px" y="0px"
	 viewBox="0 0 560 560" enable-background="new 0 0 560 560" xml:space="preserve">
<path fill="#FEFEFE" d="M276.9,99.6c-6.2-0.1-18,0.5-29.9,1.6c-24.1,2.3-47.8,7-70.5,15.5c-15.3,5.8-29.9,13.1-41.5,25.1
	c-8.3,8.6-13.5,18.5-11.5,31c0.6,3.4,1.7,6.7,2.4,10.1c7.3,39.6,14.6,79.2,21.9,118.8c7.2,38.9,14.6,77.8,21.4,116.8
	c1.8,10.2,4.6,19.1,12.8,25.7c4.2,3.3,8.6,6.3,13.4,8.8c22.5,11.3,46.7,15.7,71.5,17.2c22,1.3,44,0.1,65.7-4.7
	c16.4-3.6,32.3-8.7,46.1-18.5c7.1-5.1,13.3-11.1,14.9-20.1c1.4-8.1,2.8-16.3,4.3-24.4c6.8-36.8,13.5-73.7,20.3-110.5
	c4.5-24.2,8.9-48.5,13.4-72.7c2.5-13.5,4.4-27.2,7.9-40.4c3.7-13.9,0.4-25.3-8.9-35.5c-12.9-14.1-29.7-22.1-47.3-28.2
	C350.7,103.7,317,99.5,276.9,99.6z"/>
<path fill="#D3D3D3" d="M276.9,99.6c40.1,0,73.9,4.2,106.5,15.5c17.6,6.2,34.4,14.1,47.3,28.2c9.3,10.2,12.5,21.6,8.9,35.5
	c-3.5,13.2-5.4,26.9-7.9,40.4c-4.5,24.2-9,48.5-13.4,72.7c-6.8,36.8-13.6,73.7-20.3,110.5c-1.5,8.1-2.9,16.3-4.3,24.4
	c-1.5,9-7.8,15-14.9,20.1c-13.9,9.9-29.8,14.9-46.1,18.5c-21.7,4.8-43.7,6-65.7,4.7c-24.8-1.4-49-5.8-71.5-17.2
	c-4.8-2.4-9.2-5.4-13.4-8.8c-8.3-6.6-11.1-15.5-12.8-25.7c-6.8-39-14.2-77.9-21.4-116.8c-7.3-39.6-14.6-79.2-21.9-118.8
	c-0.6-3.4-1.8-6.7-2.4-10.1c-2.1-12.5,3.2-22.4,11.5-31c11.6-12,26.2-19.3,41.5-25.1c22.7-8.6,46.4-13.2,70.5-15.5
	C258.8,100.1,270.7,99.5,276.9,99.6z M401.9,193.5c7.9-3.7,14.5-9,19.9-15.7c5.2-6.5,5.1-13.1,0.1-19.8c-6.7-8.9-16-14.4-25.8-19.1
	c-30.4-14.5-63-19.7-96.2-21.3c-19.5-0.9-39-0.4-58.4,2.1c-23.7,3-46.8,8.1-68.6,18.1c-10.5,4.8-20.5,10.4-27.7,19.9
	c-5.4,7.2-5.6,13.1-0.1,20.1c6.9,8.8,16,14.7,26.3,18.9c11.2,6.3,23.3,9.8,35.7,12.8c19.8,5.5,40,7.7,60.4,8.7
	c24.7,1.2,49.4-0.2,73.8-4.6c12.6-2.3,25.1-5,37.1-9.7C386.6,201.5,394.5,198.1,401.9,193.5z"/>
<path fill="#FEFDFD" d="M378.3,203.9c-12,4.7-24.5,7.4-37,9.7c-24.4,4.4-49,5.7-73.8,4.6c-20.4-1-40.7-3.2-60.4-8.7
	c-2.7-6.8-5.4-13.6-8.2-20.3c-0.9-2.2-0.8-3.8,0.8-5.8c7.6-9.9,15-19.9,22.5-29.9c3.7-4.7,7.5-9.4,11-14.2c1.3-1.7,2.6-2.3,4.7-2
	c16,2.1,32,4.6,48,5.9c8.3,0.6,13.2,3.6,14.9,11.7c0.6,2.8,2.3,3,4.7,2.5c10.1-2.3,20.3-4.4,30.4-6.7c2.4-0.6,3.9-0.1,5.5,1.7
	c6.4,7.2,13,14.1,19.5,21.2c4.3,4.9,8.3,10.2,13,14.6C378.7,192.7,381.9,197.2,378.3,203.9z"/>
<path fill="#343434" d="M360.8,173.5c-6.5-7-13.1-14-19.5-21.2c-1.7-1.8-3.1-2.3-5.5-1.7c-10.1,2.4-20.3,4.5-30.4,6.7
	c-2.4,0.5-4.1,0.3-4.7-2.5c-1.6-8.1-6.5-11.1-14.9-11.7c-16.1-1.2-32-3.8-48-5.9c-2.1-0.3-3.4,0.3-4.7,2c-3.5,4.8-7.3,9.5-11,14.2
	c-1.8-0.8-3.7-1.5-5.4-2.6c-2.9-1.8-5.1-1.3-7.8,0.7c-11.9,8.7-24,17.3-36.2,25.7c-2.3,1.6-3,3.3-2.7,5.9c0.6,4.5,0.9,9,1.4,13.5
	c-10.3-4.2-19.4-10.1-26.3-18.9c-5.5-7-5.3-12.9,0.1-20.1c7.2-9.5,17.2-15.1,27.7-19.9c21.8-10,44.9-15.1,68.6-18.1
	c19.4-2.5,38.9-3.1,58.4-2.1c33.3,1.6,65.8,6.8,96.2,21.3c9.8,4.7,19.1,10.2,25.8,19.1c5,6.7,5.1,13.3-0.1,19.8
	c-5.4,6.8-12,12.1-19.9,15.7c-6.1-7.3-12.3-14.7-18.5-21.9c-0.8-1-1.4-2.3-3.2-1.9C373.8,171,367.3,172.2,360.8,173.5z"/>
<path fill="#F9E17C" d="M171.4,196.7c-0.4-4.5-0.8-9-1.4-13.5c-0.3-2.6,0.3-4.3,2.7-5.9c12.2-8.4,24.2-16.9,36.2-25.7
	c2.7-2,5-2.5,7.8-0.7c1.7,1.1,3.6,1.7,5.4,2.6c-7.5,10-14.9,20-22.5,29.9c-1.5,2-1.7,3.6-0.8,5.8c2.8,6.7,5.5,13.5,8.2,20.3
	C194.7,206.5,182.6,203,171.4,196.7z"/>
<path fill="#F9E07C" d="M360.8,173.5c6.5-1.3,13-2.5,19.5-3.9c1.7-0.4,2.4,1,3.2,1.9c6.2,7.3,12.3,14.6,18.5,21.9
	c-7.4,4.6-15.3,8-23.6,10.4c3.6-6.7,0.4-11.2-4.5-15.8C369.1,183.7,365.1,178.4,360.8,173.5z"/>
</svg>
