<svg xmlns="http://www.w3.org/2000/svg" viewBox="0 -6 60.68 32.58">
  <g>
    <path d="M9.44,13.71v.39H0V0H9.36V.4h-9V6.56H8.83V7H.39v6.76Z" fill="#fff"/>
    <path d="M17.51,4,13.8,8.85l4.07,5.25h-.49l-3.83-5-3.82,5H9.26l4.05-5.25L9.62,4h.51l3.42,4.6L17,4Z" fill="#fff"/>
    <path d="M18.66,17.58V4h.4V6.79h0a4.79,4.79,0,0,1,.58-1.23,4.16,4.16,0,0,1,.89-1,3.69,3.69,0,0,1,1.17-.64,4.42,4.42,0,0,1,1.43-.23,3.93,3.93,0,0,1,3.17,1.5,5.13,5.13,0,0,1,.86,1.68,7.45,7.45,0,0,1,0,4.15,5.5,5.5,0,0,1-.83,1.7,3.89,3.89,0,0,1-3.21,1.58,4,4,0,0,1-4.07-3.06h0v6.32ZM25,13.5a3.8,3.8,0,0,0,1.21-1.15,5.16,5.16,0,0,0,.71-1.58,7.28,7.28,0,0,0,0-3.63,5.1,5.1,0,0,0-.73-1.56,3.45,3.45,0,0,0-3-1.47,3.84,3.84,0,0,0-1.74.39,3.94,3.94,0,0,0-1.29,1.07,5,5,0,0,0-.8,1.56A6.41,6.41,0,0,0,19.06,9a5.37,5.37,0,0,0,1.12,3.67,3.77,3.77,0,0,0,3,1.27A3.47,3.47,0,0,0,25,13.5Z" fill="#fff"/>
    <path d="M29.26,14.1V4h.4V6.46h0a4.2,4.2,0,0,1,.43-1.08,3.13,3.13,0,0,1,.79-.88,4,4,0,0,1,1.18-.59,5.08,5.08,0,0,1,1.59-.2v.4a3.82,3.82,0,0,0-1.81.28,3.41,3.41,0,0,0-1.25,1,3.86,3.86,0,0,0-.73,1.39,5.58,5.58,0,0,0-.24,1.62V14.1Z" fill="#fff"/>
    <path d="M34.43,11a4.39,4.39,0,0,0,.7,1.53,3.32,3.32,0,0,0,1.22,1,4.66,4.66,0,0,0,4.49-.47,3.78,3.78,0,0,0,1.32-2.52h.39a4,4,0,0,1-1.4,2.76,5.1,5.1,0,0,1-4.94.6,3.51,3.51,0,0,1-1.38-1.11,5,5,0,0,1-.79-1.7A8.31,8.31,0,0,1,33.79,9a6.32,6.32,0,0,1,.37-2.25,5.4,5.4,0,0,1,1-1.67,4.08,4.08,0,0,1,1.42-1,4,4,0,0,1,1.66-.36,4.21,4.21,0,0,1,2,.46,4,4,0,0,1,1.4,1.2,4.76,4.76,0,0,1,.79,1.72,6.71,6.71,0,0,1,.21,2H34.18A8.17,8.17,0,0,0,34.43,11ZM42,6.94a4.28,4.28,0,0,0-.76-1.47,3.71,3.71,0,0,0-1.25-1,4,4,0,0,0-1.74-.36,3.69,3.69,0,0,0-2.82,1.23,4.74,4.74,0,0,0-.87,1.45,6,6,0,0,0-.4,1.92h8.1A6.06,6.06,0,0,0,42,6.94Z" fill="#fff"/>
    <path d="M50.63,5.65A2.27,2.27,0,0,0,50,4.77a2.72,2.72,0,0,0-1-.5,5,5,0,0,0-1.33-.16,4.07,4.07,0,0,0-1.68.28,2.46,2.46,0,0,0-.91.66,1.66,1.66,0,0,0-.37.72,2.14,2.14,0,0,0-.08.49,1.93,1.93,0,0,0,.3,1.16,2.05,2.05,0,0,0,.82.62,8.77,8.77,0,0,0,1.16.37l1.45.38,1.18.32a4.29,4.29,0,0,1,1,.47,2.44,2.44,0,0,1,.75.75,2.19,2.19,0,0,1,.29,1.18,2.45,2.45,0,0,1-.33,1.31,2.59,2.59,0,0,1-.85.86,3.55,3.55,0,0,1-1.18.49,5.92,5.92,0,0,1-1.31.15,4.66,4.66,0,0,1-3.08-.89,3.51,3.51,0,0,1-1-2.81h.39a3.09,3.09,0,0,0,1,2.52,4.22,4.22,0,0,0,2.76.8A5,5,0,0,0,49,13.81a3.39,3.39,0,0,0,1.06-.41,2.62,2.62,0,0,0,.78-.74,2,2,0,0,0,.3-1.11,1.77,1.77,0,0,0-.3-1.08,2.36,2.36,0,0,0-.79-.68,4.93,4.93,0,0,0-1.12-.43L47.65,9c-.49-.11-.92-.23-1.28-.33a6.66,6.66,0,0,1-1-.36,1.94,1.94,0,0,1-.93-.77,2.53,2.53,0,0,1-.3-1.32,2.34,2.34,0,0,1,.18-.87,2.31,2.31,0,0,1,.59-.83A3.34,3.34,0,0,1,46,4a4.65,4.65,0,0,1,1.6-.24,4.3,4.3,0,0,1,2.69.77,3,3,0,0,1,1,2.47h-.39A3.14,3.14,0,0,0,50.63,5.65Z" fill="#fff"/>
    <path d="M59.77,5.65a2.18,2.18,0,0,0-.67-.88,2.65,2.65,0,0,0-1-.5,5,5,0,0,0-1.33-.16,4.07,4.07,0,0,0-1.68.28,2.42,2.42,0,0,0-.9.66,1.68,1.68,0,0,0-.38.72,2.92,2.92,0,0,0-.08.49A1.86,1.86,0,0,0,54,7.42a1.92,1.92,0,0,0,.82.62A8.62,8.62,0,0,0,56,8.41l1.45.38,1.18.32a4.12,4.12,0,0,1,1,.47,2.44,2.44,0,0,1,.75.75,2.11,2.11,0,0,1,.29,1.18,2.54,2.54,0,0,1-.32,1.31,2.69,2.69,0,0,1-.85.86,3.6,3.6,0,0,1-1.19.49,5.92,5.92,0,0,1-1.31.15,4.61,4.61,0,0,1-3.07-.89,3.51,3.51,0,0,1-1-2.81h.4a3.12,3.12,0,0,0,1,2.52,4.22,4.22,0,0,0,2.76.8,5,5,0,0,0,1.13-.13,3.39,3.39,0,0,0,1.06-.41,2.4,2.4,0,0,0,.78-.74,2,2,0,0,0,.31-1.11A1.77,1.77,0,0,0,60,10.47a2.27,2.27,0,0,0-.79-.68,4.59,4.59,0,0,0-1.12-.43L56.79,9c-.49-.11-.91-.23-1.28-.33a6.66,6.66,0,0,1-1-.36,1.94,1.94,0,0,1-.93-.77,2.53,2.53,0,0,1-.29-1.32,2.53,2.53,0,0,1,.17-.87,2.23,2.23,0,0,1,.6-.83A3.18,3.18,0,0,1,55.13,4a4.69,4.69,0,0,1,1.6-.24,4.3,4.3,0,0,1,2.69.77,3,3,0,0,1,1,2.47H60A3.14,3.14,0,0,0,59.77,5.65Z" fill="#fff"/>
  </g>
</svg>
