<?xml version="1.0" encoding="utf-8"?>
<!-- Generator: Adobe Illustrator 24.3.0, SVG Export Plug-In . SVG Version: 6.00 Build 0)  -->
<svg version="1.1" id="Layer_1" xmlns="http://www.w3.org/2000/svg" xmlns:xlink="http://www.w3.org/1999/xlink" x="0px" y="0px"
	 viewBox="0 0 29.63 29.64" enable-background="new 0 0 29.63 29.64" xml:space="preserve">
<g>
	<path fill="none" d="M10.39,23.89c-0.09-0.04-0.18-0.07-0.27-0.12C10.21,23.82,10.3,23.85,10.39,23.89z"/>
	<path fill="none" d="M9.76,18.57c0.08-0.06,0.16-0.11,0.25-0.16C9.93,18.45,9.85,18.51,9.76,18.57z"/>
	<path fill="none" d="M8.55,21.73c-0.02-0.11-0.04-0.21-0.06-0.32C8.5,21.52,8.53,21.63,8.55,21.73z"/>
	<path fill="none" d="M9.41,23.26c-0.07-0.07-0.14-0.13-0.2-0.2C9.27,23.12,9.34,23.19,9.41,23.26z"/>
	<path fill="none" d="M9.03,22.81c-0.06-0.08-0.11-0.16-0.16-0.25C8.92,22.65,8.97,22.73,9.03,22.81z"/>
	<path fill="none" d="M9.88,23.62c-0.08-0.05-0.17-0.11-0.24-0.17C9.71,23.52,9.79,23.57,9.88,23.62z"/>
	<path fill="none" d="M8.96,19.41c0.05-0.08,0.11-0.17,0.17-0.24C9.06,19.25,9.01,19.33,8.96,19.41z"/>
	<path fill="none" d="M9.32,18.95c0.07-0.07,0.13-0.14,0.21-0.2C9.45,18.81,9.39,18.88,9.32,18.95z"/>
	<path fill="none" d="M8.69,19.93c0.04-0.09,0.07-0.19,0.12-0.27C8.76,19.75,8.73,19.84,8.69,19.93z"/>
	<path fill="none" d="M8.46,20.93c0,0.06,0.01,0.11,0.01,0.17c0-0.09,0-0.19,0.01-0.28C8.48,20.85,8.47,20.89,8.46,20.93z"/>
	<path fill="none" d="M8.74,22.31c-0.05-0.1-0.09-0.2-0.12-0.31C8.65,22.11,8.7,22.21,8.74,22.31z"/>
	<path fill="none" d="M14.42,22.45c-0.02,0.03-0.03,0.06-0.04,0.09C14.39,22.51,14.41,22.48,14.42,22.45z"/>
	<path fill="none" d="M14.14,22.88c-0.02,0.02-0.03,0.05-0.05,0.07C14.11,22.93,14.12,22.9,14.14,22.88z"/>
	<path fill="none" d="M14.76,21.46c-0.01,0.04-0.01,0.09-0.02,0.13C14.75,21.55,14.75,21.5,14.76,21.46z"/>
	<path fill="none" d="M14.63,21.97c-0.01,0.04-0.02,0.07-0.03,0.11C14.61,22.05,14.62,22.01,14.63,21.97z"/>
	<path fill="none" d="M10.95,24.05c-0.09-0.02-0.18-0.04-0.27-0.06C10.77,24.02,10.86,24.03,10.95,24.05z"/>
	<path fill="none" d="M13.8,23.25c-0.02,0.02-0.04,0.04-0.06,0.06C13.76,23.29,13.77,23.27,13.8,23.25z"/>
	<path fill="none" d="M12.36,24c-0.18,0.05-0.37,0.08-0.55,0.1C11.99,24.08,12.18,24.05,12.36,24z"/>
	<path fill="none" d="M13.39,23.56c-0.02,0.02-0.05,0.04-0.07,0.05C13.35,23.6,13.37,23.58,13.39,23.56z"/>
	<path fill="none" d="M11.39,24.11c0.07,0,0.15-0.01,0.22-0.01c-0.11,0-0.22,0-0.33-0.01C11.32,24.1,11.35,24.11,11.39,24.11z"/>
	<path fill="none" d="M12.93,23.81c-0.02,0.01-0.05,0.03-0.07,0.04C12.89,23.84,12.91,23.82,12.93,23.81z"/>
	<path fill="none" d="M8.53,20.49c0.02-0.09,0.04-0.18,0.06-0.27C8.56,20.3,8.54,20.39,8.53,20.49z"/>
	<path fill="none" d="M10.9,18.07c0.06-0.01,0.13-0.03,0.19-0.04C11.03,18.04,10.96,18.06,10.9,18.07z"/>
	<path fill="none" d="M11.31,11.74c-0.04-0.03-0.09-0.04-0.13-0.06c-0.04,0-0.07,0-0.11,0.03c-0.21,0.05-0.41,0.12-0.59,0.21
		c0.17-0.05,0.34-0.09,0.52-0.11C11.12,11.79,11.23,11.81,11.31,11.74z"/>
	<path fill="none" d="M11.21,5.62c0.21-0.01,0.41-0.01,0.62,0h6c1.72,0,3.11,1.39,3.11,3.11c0,0.39-0.07,0.76-0.21,1.1
		c0.24-0.57,0.32-1.21,0.18-1.86c-0.31-1.43-1.58-2.46-3.04-2.45h-6c-0.21-0.01-0.41-0.01-0.62,0c-1.13,0.23-1.97,1.05-2.31,2.07
		C9.31,6.59,10.16,5.84,11.21,5.62z"/>
	<path fill="none" d="M18.39,11.79c0.5,0.1,0.98,0.29,1.39,0.59c0.77,0.58,1.18,1.46,1.22,2.35c0.01-0.97-0.43-1.91-1.23-2.51
		c-0.39-0.24-0.82-0.38-1.27-0.45c0,0-0.01,0-0.01,0L18.39,11.79z"/>
	<path fill="none" d="M13.52,17.98L13,18h1.55c0.2,0,0.25,0.06,0.25,0.26c0-0.02,0-0.04,0-0.06c0-0.14-0.05-0.2-0.14-0.23
		c-0.02,0-0.02,0.01-0.04,0.01C14.25,17.98,13.88,17.98,13.52,17.98z"/>
	<path fill="none" d="M10.27,18.28c0.1-0.05,0.2-0.09,0.31-0.12C10.47,18.19,10.37,18.23,10.27,18.28z"/>
	<path fill="#FFFFFF" d="M26.26,0c-0.22-0.02-0.43-0.02-0.65,0H4C2.06,0.03,0.41,1.42,0.05,3.32C0,3.36,0.06,3.43,0,3.43v22.78
		c0.08,0.27,0.14,0.54,0.24,0.79c0.49,1.35,1.66,2.34,3.08,2.59c0.04,0,0.11-0.02,0.11,0.05h22.73c0.3-0.12,0.63-0.16,0.93-0.23
		c1.51-0.59,2.51-2.04,2.54-3.66c0-7.25,0-14.5,0-21.75C29.65,2.02,28.22,0.31,26.26,0z M20.39,16.72c-0.49,0.65-1.2,1.08-2,1.2
		c-1.68,0.27-3.26-0.87-3.54-2.55v0.21c0,0.73,0,1.45,0,2.18c0,0.16-0.06,0.2-0.19,0.21c0.09,0.03,0.14,0.09,0.14,0.23
		c0,0.02,0,0.04,0,0.06c0,0.93,0,1.86,0,2.79c0,0.02,0,0.04,0,0.06c-0.01,0.12-0.03,0.24-0.04,0.35c-0.01,0.04-0.01,0.09-0.02,0.13
		c-0.03,0.13-0.07,0.26-0.11,0.38c-0.01,0.04-0.02,0.07-0.03,0.11c-0.05,0.13-0.11,0.25-0.17,0.37c-0.02,0.03-0.03,0.06-0.04,0.09
		c-0.07,0.12-0.15,0.23-0.24,0.34c-0.02,0.02-0.03,0.05-0.05,0.07c-0.09,0.11-0.19,0.2-0.29,0.3c-0.02,0.02-0.04,0.04-0.06,0.06
		c-0.11,0.09-0.22,0.17-0.34,0.25c-0.02,0.02-0.05,0.04-0.07,0.05c-0.12,0.08-0.25,0.14-0.39,0.2c-0.02,0.01-0.05,0.03-0.07,0.04
		c-0.16,0.06-0.33,0.12-0.5,0.15c-0.18,0.05-0.37,0.08-0.55,0.1c-0.07,0.01-0.13,0.01-0.19,0.01c-0.07,0-0.15,0.01-0.22,0.01
		c-0.04,0-0.07-0.01-0.11-0.02c-0.11-0.01-0.22-0.03-0.33-0.05c-0.09-0.02-0.18-0.04-0.27-0.06c-0.1-0.03-0.19-0.06-0.28-0.1
		c-0.09-0.04-0.18-0.07-0.27-0.12c-0.09-0.04-0.17-0.1-0.25-0.15c-0.08-0.05-0.17-0.11-0.24-0.17c-0.08-0.06-0.15-0.13-0.22-0.2
		c-0.07-0.07-0.14-0.13-0.2-0.2c-0.07-0.08-0.12-0.16-0.18-0.24c-0.06-0.08-0.11-0.16-0.16-0.25c-0.05-0.08-0.08-0.17-0.12-0.25
		c-0.05-0.1-0.09-0.2-0.12-0.31c-0.01-0.04-0.03-0.07-0.04-0.11c-0.02-0.05-0.02-0.11-0.03-0.16c-0.02-0.1-0.04-0.21-0.06-0.32
		c-0.01-0.11-0.02-0.21-0.02-0.32c0-0.06-0.01-0.11-0.01-0.17c0-0.04,0.01-0.07,0.02-0.11c0.01-0.11,0.03-0.22,0.05-0.33
		c0.02-0.09,0.04-0.18,0.06-0.27c0.03-0.1,0.06-0.19,0.1-0.28c0.04-0.09,0.07-0.19,0.12-0.27c0.04-0.09,0.1-0.16,0.15-0.25
		c0.05-0.08,0.11-0.17,0.17-0.24c0.06-0.08,0.13-0.15,0.2-0.22c0.07-0.07,0.13-0.14,0.21-0.2c0.08-0.06,0.16-0.12,0.24-0.18
		c0.08-0.06,0.16-0.11,0.25-0.16c0.08-0.05,0.17-0.08,0.25-0.12c0.1-0.05,0.2-0.09,0.31-0.12c0.04-0.01,0.07-0.03,0.11-0.04
		c0.07-0.02,0.14-0.03,0.22-0.04c0.06-0.01,0.13-0.03,0.19-0.04c0.19-0.03,0.37-0.04,0.56-0.03c0.45,0,0.9,0,1.35,0l0.52-0.02
		c-0.63,0-1.26,0-1.9,0c-1.7,0.17-3.22-1.07-3.4-2.77c-0.15-1.52,0.83-2.89,2.25-3.29c0.19-0.09,0.38-0.16,0.59-0.21
		c0.03-0.03,0.07-0.02,0.11-0.03c-0.08-0.02-0.17-0.04-0.26-0.06c-1.64-0.5-2.55-2.24-2.05-3.87c0.02-0.05,0.05-0.1,0.07-0.15
		c0.34-1.02,1.18-1.84,2.31-2.07c0.21-0.01,0.41-0.01,0.62,0h6c1.47,0,2.73,1.02,3.04,2.45c0.14,0.65,0.06,1.29-0.18,1.86
		c-0.36,0.96-1.19,1.71-2.24,1.94c0.45,0.08,0.88,0.22,1.27,0.45c0.8,0.61,1.23,1.54,1.23,2.51C21.03,15.42,20.84,16.13,20.39,16.72
		z"/>
	<path fill="#FFFFFF" d="M17.04,11.82c-0.75,0-1.49,0-2.24,0v2.51c0.24-1.28,1.23-2.28,2.5-2.54
		C17.21,11.77,17.12,11.82,17.04,11.82z"/>
	<path fill="#FFFFFF" d="M17.08,11.74c-0.76,0-1.52,0-2.28,0v0.08c0.75,0,1.49,0,2.24,0c0.08,0,0.17-0.05,0.26-0.03
		c0.04-0.01,0.07-0.02,0.11-0.03C17.31,11.68,17.19,11.72,17.08,11.74z"/>
</g>
</svg>
