<?xml version="1.0" encoding="utf-8"?>
<!-- Generator: Adobe Illustrator 24.3.0, SVG Export Plug-In . SVG Version: 6.00 Build 0)  -->
<svg version="1.1" id="Layer_1" xmlns="http://www.w3.org/2000/svg" xmlns:xlink="http://www.w3.org/1999/xlink" x="0px" y="0px"
	 viewBox="0 0 31.31 29.52" enable-background="new 0 0 31.31 29.52" xml:space="preserve">
<g>
	<path fill="#FFFFFF" d="M7.12,20.33c0.4,0.04,0.72,0.37,0.74,0.77l0.14,2l3.92,0.28l0.26-1.82c0.06-0.4,0.41-0.7,0.82-0.7h5.34
		c0.41,0,0.75,0.3,0.81,0.7l0.27,1.82l3.93-0.28l0.14-2c0.03-0.41,0.35-0.73,0.75-0.77l5.07-0.49v-0.39v-7.62
		c0.69-0.88,1.32-1.79,1.9-2.74c-0.77-1.32-1.68-2.55-2.71-3.67c-0.96,0.47-1.89,1-2.78,1.58c-0.45-0.42-0.93-0.82-1.43-1.18
		c-0.49-0.36-1.01-0.69-1.54-1C22.89,3.7,22.98,2.56,23,1.43C21.68,0.78,20.28,0.3,18.84,0c-0.58,0.97-1.09,1.97-1.55,3
		c-0.54-0.09-1.08-0.13-1.63-0.13C15.1,2.87,14.55,2.91,14,3c-0.46-1.03-0.98-2.03-1.55-3C11.01,0.3,9.62,0.78,8.3,1.43
		c0.02,1.15,0.11,2.29,0.26,3.43C8.02,5.16,7.5,5.5,7,5.86C6.51,6.21,6.04,6.59,5.59,7C4.7,6.41,3.76,5.89,2.8,5.42
		C1.74,6.54,0.8,7.77,0,9.09c0.58,0.95,1.21,1.86,1.89,2.74h0.02v8.29h0.02C2,20.12,2,19.84,2,19.84L7.12,20.33z M22.86,12.13
		c1.69,0,3.06,1.37,3.06,3.06s-1.37,3.06-3.06,3.06s-3.06-1.37-3.06-3.06S21.17,12.13,22.86,12.13z M14.65,14.82c0-0.55,0.45-1,1-1
		c0.55,0,1,0.45,1,1v2.82c-0.03,0.52-0.47,0.92-0.99,0.89c0,0-0.01,0-0.01,0c-0.52,0.03-0.97-0.36-1-0.88c0,0,0-0.01,0-0.01V14.82z
		 M8.45,12.13c1.69,0,3.06,1.37,3.06,3.06s-1.37,3.06-3.06,3.06s-3.06-1.37-3.06-3.06S6.76,12.13,8.45,12.13z"/>
	<path fill="#FFFFFF" d="M7,20.61c0.27,0.02,0.48,0.24,0.49,0.51l0.16,2.24l4.44,0.32l0.3-2.08c0.04-0.26,0.27-0.46,0.54-0.46h5.37
		c0.27,0,0.5,0.2,0.54,0.46l0.3,2.08l4.44-0.32l0.15-2.24c0.02-0.27,0.23-0.49,0.5-0.51l5.08-0.49v-0.28l-5.07,0.49
		c-0.4,0.04-0.72,0.36-0.75,0.77l-0.14,2l-3.93,0.28l-0.27-1.82c-0.06-0.4-0.4-0.7-0.81-0.7H13c-0.41,0-0.76,0.3-0.82,0.7
		l-0.26,1.82L8,23.1l-0.14-2c-0.02-0.4-0.34-0.73-0.74-0.77L2,19.84c0,0,0,0.28-0.07,0.28H2L7,20.61z"/>
	<path fill="#FFFFFF" d="M24.98,23.91c-0.03,0.41-0.36,0.74-0.77,0.77l-5.42,0.38h-0.06c-0.41-0.01-0.75-0.31-0.81-0.71l-0.28-1.87
		h-3.93l-0.28,1.87c-0.06,0.41-0.41,0.71-0.82,0.71h-0.06l-5.41-0.38c-0.41-0.03-0.74-0.36-0.77-0.77l-0.14-2l-4.3-0.69v-0.01
		l-0.03,0c0,0.49,0,1,0,1.14c0,4.83,6.13,7.15,13.73,7.17c7.61,0,13.73-2.34,13.73-7.17c0-0.11,0-0.64,0-1.13l-4.24,0.69
		L24.98,23.91z"/>
	<path fill="#FFFFFF" d="M24.83,21.65l-0.15,2.26c-0.02,0.27-0.24,0.49-0.51,0.51l-5.42,0.38c-0.27-0.01-0.5-0.2-0.54-0.47
		l-0.31-2.11h-4.46l-0.31,2.11c-0.04,0.28-0.3,0.48-0.58,0.46l-5.41-0.38c-0.27-0.02-0.49-0.24-0.51-0.51l-0.15-2.26l-4.55-0.43
		v0.01l4.3,0.69l0.14,2c0.03,0.41,0.36,0.74,0.77,0.77l5.41,0.38h0.06c0.41,0,0.76-0.3,0.82-0.71l0.28-1.87h3.93l0.28,1.87
		c0.06,0.4,0.4,0.7,0.81,0.71h0.06l5.42-0.38c0.41-0.03,0.74-0.36,0.77-0.77l0.14-2l4.24-0.69c0,0,0-0.01,0-0.01L24.83,21.65z"/>
	<circle fill="#FFFFFF" cx="8.77" cy="15.37" r="2"/>
	<circle fill="#FFFFFF" cx="22.53" cy="15.37" r="2"/>
</g>
</svg>
