<svg xmlns="http://www.w3.org/2000/svg" viewBox="0 0 16.44 36.5">
  <g>
    <path d="M12.68,35.4,13,29.56l1-1.65a16.92,16.92,0,0,1-5.89.9,16.93,16.93,0,0,1-5.85-.88l1.08,1.8.39,5.67c0,.61,2,1.1,4.47,1.1s4.48-.49,4.48-1.1" fill="#fff"/>
    <path d="M11.58,8.15l.73-2.91L16.38,1,15.31.05,11,4.61l-.85,3.47c-.62,0-1.27,0-1.93,0C3.68,8.05,0,8.57,0,9.2s3.68,1.16,8.22,1.16,8.22-.52,8.22-1.16c0-.47-2-.87-4.86-1" fill="#fff"/>
    <path d="M11.15,9.78a4.09,4.09,0,0,1-.63,0c-.47,0-.8,0-.93-.12a.2.2,0,0,1-.06-.14c0-.08.06-.13.14-.16l.07.11s-.05,0-.05,0a2.13,2.13,0,0,0,.84.1c.37,0,.81,0,.81-.1s0,0-.09,0l.07-.11c.1,0,.18.09.18.18s-.21.2-.35.22" fill="#656666"/>
    <path d="M16.37,1c.11-.12-.05-.42-.34-.68s-.62-.36-.72-.24,0,.42.35.67.61.37.71.25" fill="#fff"/>
    <path d="M12.48,21.15c-.09-.93,2-2.28,1.49-2.32-1.18.07-1.76,1.38-2.35,2.75-.22.5-1,2.65-1.45,2.38s.63-2,.95-3.07c-.36.26-1.69,1.29-2,.33-.55.46-1.72.72-1.59-.51-.29.52-.94,1.24-1.73.94-1-.39.6-3.68,1-3.51s-.08.91-.21,1.2C6.28,20,6,20.79,6.18,21c.37.28,1.38-1.07,1.4-1.1.19-.25.73-1.88,1.16-1.69s-1.08,2.34-.51,2.77c.11.09.58-.05.86-.36s.12-.64.74-2.1,1.16-3.29,1.58-3.15.07,1.07-.08,1.42c-.71,1.64-1.93,4.34-1.36,4.14A2.51,2.51,0,0,0,11.42,20c.56-.66.54-1.75.91-1.73s.32.37.23.64c.37-.43,1.76-1.32,2.09-.44.4,1.05-2,2.57-1.39,2.49a3.57,3.57,0,0,0,1.92-1.21l1.1-9.91s-1.11.92-8.17.92-8-.9-8-.9L1,18.91c.49-1.42,1.68-4.29,3.54-4.19.85,0,2,1.68,1,1.73-.41,0-.45-.81-.93-.94A1.5,1.5,0,0,0,3.46,16c-.63.62-2,3.05-1.81,4.26.23,1.55,2.14-.54,2.46-1.16.23-.43.38-1.72.88-1.59s0,1.47-.41,2.65S4,22.9,3.46,22.73s.32-1.86.29-2.16c-.48.44-1.35,1.55-2.48,1l.59,5.62s1.55,1.22,6.21,1.22,6.28-1.2,6.28-1.2l.72-6.51c-.59.58-2.47,1.6-2.59.45" fill="#fff"/>
  </g>
</svg>
