<?xml version="1.0" encoding="utf-8"?>
<!-- Generator: Adobe Illustrator 24.3.0, SVG Export Plug-In . SVG Version: 6.00 Build 0)  -->
<svg version="1.1" id="Layer_1" xmlns="http://www.w3.org/2000/svg" xmlns:xlink="http://www.w3.org/1999/xlink" x="0px" y="0px"
	 viewBox="0 0 30.04 29.29" enable-background="new 0 0 30.04 29.29" xml:space="preserve">
<g>
	<path fill="#FFFFFF" d="M13.18,13.02c-0.11-0.38-0.24-0.76-0.36-1.15c-0.12-0.39-0.24-0.75-0.34-1.11c-0.1-0.36-0.19-0.68-0.28-1
		c-0.11,0.55-0.25,1.09-0.43,1.62c-0.18,0.6-0.37,1.22-0.57,1.85s-0.37,1.23-0.55,1.75L10.63,15h3.18c-0.08-0.26-0.18-0.57-0.29-0.9
		C13.41,13.77,13.29,13.4,13.18,13.02z"/>
	<path fill="#FFFFFF" d="M24.72,0H5.32C2.38,0,0,2.38,0,5.32V24c0,2.94,2.38,5.32,5.32,5.32h19.36c2.94,0,5.32-2.38,5.32-5.32V5.32
		C30,2.4,27.64,0.02,24.72,0z M18.37,20.69h-2.59c-0.09,0-0.17-0.05-0.2-0.14l-1.02-2.98H9.9L9,20.51
		c-0.02,0.11-0.13,0.19-0.24,0.18h-2.4c-0.14,0-0.18-0.08-0.14-0.23l4-11.6l0.13-0.41c0.05-0.27,0.07-0.55,0.07-0.82
		c-0.01-0.06,0.04-0.12,0.1-0.13h3.24c0.1,0,0.15,0,0.17,0.1l4.56,12.89C18.49,20.63,18.49,20.69,18.37,20.69z M22.65,20.5
		c0,0.14,0,0.2-0.16,0.2H20c-0.09,0-0.15-0.07-0.15-0.2v-9.64c0-0.12,0-0.17,0.16-0.17h2.48c0.11,0,0.16,0.06,0.16,0.17V20.5z
		 M22.39,9.2c-0.3,0.3-0.71,0.46-1.14,0.44c-0.41,0.01-0.81-0.15-1.11-0.44c-0.29-0.31-0.44-0.73-0.43-1.15
		c-0.01-0.42,0.15-0.83,0.45-1.12c0.31-0.28,0.71-0.43,1.12-0.43c0.42-0.02,0.84,0.14,1.14,0.43c0.27,0.31,0.42,0.71,0.41,1.12
		C22.84,8.48,22.68,8.89,22.39,9.2z"/>
</g>
</svg>
