<svg xmlns="http://www.w3.org/2000/svg" viewBox="0 -6 89.62 29.65">
  <path d="M52.45,1.05a2.21,2.21,0,0,1,1.24-1h.74a1.78,1.78,0,0,1,.81.72,1.56,1.56,0,0,1,0,1,4.67,4.67,0,0,0-.24.62c-.06.13-.11.25-.16.39s-.11.25-.15.38-.11.26-.16.39l-.15.38c-.06.13-.11.26-.16.39l-.15.38c0,.13-.11.26-.15.39s-.11.25-.16.38l-.15.39c-.06.12-.11.25-.16.38l-.15.39c0,.13-.11.25-.15.38s-.11.26-.16.39l-.15.38a3.12,3.12,0,0,0-.15.39c-.06.13-.11.25-.16.38a3.12,3.12,0,0,0-.15.39q-.14.31-.24.63c1-.73,1.92-1.49,2.92-2.17l.31-.17a2.43,2.43,0,0,1,1.07-.09,1.66,1.66,0,0,1,.65.58,1.47,1.47,0,0,1-.21,1.43,5.14,5.14,0,0,1-.66.66,2.35,2.35,0,0,0-.32.23c-.53.36-1,.76-1.55,1.15.09.12.17.25.26.38l.15.24c.12.21.25.41.39.61a9.38,9.38,0,0,0,.54.85,3,3,0,0,0,.23.38l.16.24a3.92,3.92,0,0,1,.39.86,1.49,1.49,0,0,1-.08.66,2.16,2.16,0,0,1-.94.88,1.19,1.19,0,0,1-.85,0,1.54,1.54,0,0,1-.46-.42L53,14.06l-.15-.23a1.88,1.88,0,0,0-.16-.23l-.15-.24-.16-.23c-.32-.57-.72-1.08-1.06-1.65,0,0,0,.08,0,.1a3.39,3.39,0,0,0-.18.39l-.15.39c-.05.13-.11.25-.15.38s-.11.26-.16.39l-.15.38a16.76,16.76,0,0,1-.85,1.94,2.2,2.2,0,0,1-1,.79c-.19,0-.39.14-.58.08a4,4,0,0,0-.48-.09,1.63,1.63,0,0,1-.6-.7c-.19-.44.07-.89.19-1.3l.16-.39.15-.38.15-.39c.06-.13.11-.25.16-.38L48,12.3a3.73,3.73,0,0,0,.15-.38c.06-.13.11-.26.16-.39l.15-.39c.06-.12.11-.25.16-.38l.15-.39a2.5,2.5,0,0,0,.15-.38c.06-.13.11-.26.16-.39s.11-.25.15-.38.11-.26.16-.39l.15-.38c.06-.13.11-.26.16-.39l.15-.38c0-.13.11-.26.15-.39s.11-.25.16-.38l.15-.39c.06-.13.11-.26.16-.39l.15-.38c.05-.13.11-.26.15-.39s.11-.25.16-.38.21-.51.3-.77.11-.26.16-.39.11-.25.15-.38.11-.26.16-.39l.15-.38c.06-.13.11-.26.16-.39l.15-.38c.12-.28.23-.56.33-.85ZM4.67,1.94A7.59,7.59,0,0,1,7.44,1.7c.15,0,.3.07.45.09a6.55,6.55,0,0,1,1.47.62A5.21,5.21,0,0,1,10.82,4l.27.69a6.2,6.2,0,0,1,.09,1.61A8,8,0,0,1,10.77,8a4.62,4.62,0,0,0-.23.62c-.12.24-.21.5-.34.73.24-.31.54-.56.8-.86.43-.51.93-1,1.39-1.46s1.18-1.19,1.71-1.83c1-1,1.83-2,2.82-2.9L17.39,2a2.2,2.2,0,0,1,1.29-.18,1.5,1.5,0,0,1,.82.8,2.19,2.19,0,0,1,.08.92c-.12.2-.22.42-.33.63a1.88,1.88,0,0,0-.16.23c-.32.33-.59.7-.93,1s-.78.77-1.12,1.19c-.52.56-1.09,1.07-1.58,1.66-.39.4-.79.8-1.18,1.21s-.89.94-1.34,1.41l.15.31a8.57,8.57,0,0,0,.3.85c.1.28.19.57.31.85s.18.57.31.85a6.53,6.53,0,0,0,.31.84,7.76,7.76,0,0,0,.3.85c.1.28.19.57.31.85a4.67,4.67,0,0,0,.24.62s0,.11,0,.14c.09.23.17.47.26.7l.15.31a1.4,1.4,0,0,0,1.16.57H85.12a4.14,4.14,0,0,1,.6.09l.49.24a3.14,3.14,0,0,1,.33.48c0,.3,0,.6,0,.9l-.09.25a2.3,2.3,0,0,1-.79.79,3.86,3.86,0,0,1-1,.25h-69c-.28,0-.55-.1-.83-.08a3.67,3.67,0,0,1-.84-.36,2.57,2.57,0,0,1-.73-.84c-.1-.18-.19-.36-.28-.55s-.12-.31-.19-.46l0-.13c-.16-.44-.32-.89-.49-1.33-.1-.28-.19-.57-.32-.85l0-.14c-.1-.23-.17-.47-.27-.7a6.56,6.56,0,0,0-.23-.62c-.1-.28-.19-.57-.31-.84s-.19-.58-.31-.85a4.67,4.67,0,0,0-.24-.62l0-.14c-.09-.24-.16-.48-.27-.71a6.37,6.37,0,0,0-.23-.61c-.11-.34-.23-.67-.37-1,0,.1,0,.2,0,.3a3.29,3.29,0,0,0-.17.39c-.05.13-.11.26-.15.39s-.11.25-.16.38l-.15.39c-.06.12-.11.25-.16.38l-.15.39c-.14.3-.26.61-.38.92-.06.13-.11.26-.16.39l-.15.38c-.06.13-.11.26-.16.39l-.15.38c-.06.13-.11.26-.16.39l-.15.38-.18.46L7,17.44a3.14,3.14,0,0,1-.92,1l-.15.08a2.24,2.24,0,0,1-.92.17c-.13,0-.26-.07-.39-.09A2.45,2.45,0,0,1,4,18.15c0-.11-.11-.22-.17-.33A2.67,2.67,0,0,1,4,16.3c0-.12.11-.25.15-.38s.11-.25.16-.38l.15-.39c.06-.13.11-.25.16-.38l.15-.39c.06-.13.11-.26.16-.38l.15-.39c0-.13.11-.26.15-.38s.11-.26.16-.39c.19-.43.36-.87.53-1.31.06-.13.11-.26.16-.39s.11-.25.15-.38.11-.26.16-.39.11-.25.15-.38.11-.26.16-.39l.15-.38C7,9.09,7,9,7.05,8.83l.15-.38a12.12,12.12,0,0,0,.57-1.63,2,2,0,0,0,0-1.26,1.78,1.78,0,0,0-1.11-.84A2.64,2.64,0,0,0,5.2,4.9a1.77,1.77,0,0,0-.31.15A3.65,3.65,0,0,0,3.21,7.27,3.92,3.92,0,0,0,3.14,8a2.14,2.14,0,0,0,.19.9,2.1,2.1,0,0,0,.93.84,2.92,2.92,0,0,0,.49.19,2.69,2.69,0,0,1,.63.48l.07.17.1.24a1.67,1.67,0,0,1-1,1.7,3.55,3.55,0,0,1-1.83,0l-.39-.16-.39-.23A4.8,4.8,0,0,1,.49,10.44c-.08-.18-.15-.37-.23-.55A6.24,6.24,0,0,1,0,7.7,10,10,0,0,1,.41,6a5.31,5.31,0,0,0,.23-.55c.11-.17.22-.35.32-.53l.31-.47a8.2,8.2,0,0,1,1.78-1.7l.24-.16c.3-.17.61-.32.92-.47ZM83.12,4a2.74,2.74,0,0,1,1.21-.11,2.1,2.1,0,0,1,.65.5,1.11,1.11,0,0,0,.07.16,1.86,1.86,0,0,0,.1.25,2.25,2.25,0,0,1-.09.73c-.06.16-.11.32-.16.47a5.3,5.3,0,0,0-.34.77,2.53,2.53,0,0,0-.13.22,7.77,7.77,0,0,0,1,.06l.25.1a1.05,1.05,0,0,1,.51.55,1.66,1.66,0,0,1,0,1,1.81,1.81,0,0,1-1,.87,8.24,8.24,0,0,1-1.72.09l0,.17a2.83,2.83,0,0,0-.17.4c-.06.12-.11.25-.16.38l-.15.39c-.06.12-.11.25-.16.38l-.15.39c0,.12-.11.25-.15.38s-.11.26-.16.39l-.15.38a3.39,3.39,0,0,0-.15.41l-.11.1a10.38,10.38,0,0,1,2,.1l.48.24.26.4a2.24,2.24,0,0,1-.07.93,2.59,2.59,0,0,1-.26.46,4.75,4.75,0,0,1-.63.4,8.37,8.37,0,0,1-2,.11,8.46,8.46,0,0,1-2-.11,1.79,1.79,0,0,1-1-.87,2,2,0,0,1,0-1,5.15,5.15,0,0,1,.36-1,3.12,3.12,0,0,0,.15-.39c.06-.13.11-.25.16-.38s.11-.26.15-.39.11-.25.16-.38l.15-.39c.21-.5.39-1,.62-1.51A1.42,1.42,0,0,1,79,9.13a2.08,2.08,0,0,1-.09-.6c0-.16.07-.32.09-.48a1.8,1.8,0,0,1,1-.87,5.26,5.26,0,0,1,1.37-.12c.26-.1.26-.47.39-.69L81.86,6c.06-.13.11-.25.16-.38l.15-.39c.07-.16.15-.31.23-.47a5.3,5.3,0,0,1,.72-.7ZM23.55,6.94a8.52,8.52,0,0,1,1.13,0,5.63,5.63,0,0,1,.95.4,3.38,3.38,0,0,1,.79.94,3.15,3.15,0,0,1,.17,1.09,5.8,5.8,0,0,1-.33,1.22c-.42.95-.79,1.92-1.17,2.89a11,11,0,0,1,2.07.09,1.75,1.75,0,0,1,.65.49,1.92,1.92,0,0,1,0,1.23,2.72,2.72,0,0,1-.71.64,3.75,3.75,0,0,0-.47.17c-1.22,0-2.44,0-3.67,0a3.83,3.83,0,0,1-.75-.45,3.64,3.64,0,0,1-.37-.59,2.74,2.74,0,0,0-.07-.5,2.07,2.07,0,0,0,.07-.49l.05-.08.12-.38c.11-.25.21-.51.31-.77a3.12,3.12,0,0,0,.15-.39c.06-.12.11-.25.16-.38s.11-.26.15-.39.11-.25.16-.38.11-.26.15-.39a1.79,1.79,0,0,0,.21-1,1.91,1.91,0,0,0-.42-.33l-.32,0a1.76,1.76,0,0,0-1.46.9c-.09.15-.17.3-.25.45-.6,1.37-1.12,2.78-1.69,4.17a5.5,5.5,0,0,0-.28.48,2.35,2.35,0,0,1-.94.71l-.41.08a1.71,1.71,0,0,1-.59-.07,1.68,1.68,0,0,1-.63-.49s-.07-.13-.1-.17a2.38,2.38,0,0,1,.17-1.29c.06-.12.11-.25.16-.38s.11-.26.16-.39l.15-.38c.05-.13.11-.26.15-.39s.11-.25.16-.38l.15-.39a3,3,0,0,0,.15-.38c.47-1.16.94-2.32,1.39-3.48l.15-.3a2,2,0,0,1,.88-.74,3,3,0,0,1,1.22.09,1.73,1.73,0,0,1,.6.63L22,7.58c.21-.12.41-.25.63-.36a6,6,0,0,1,.91-.28ZM32.42,7a7.11,7.11,0,0,1,1.84-.09,5.5,5.5,0,0,1,1,.24,6.25,6.25,0,0,1,.94.55l.54.55c.1.16.21.32.32.47s.15.31.23.47a6.63,6.63,0,0,1,.24,1c0,.3,0,.61,0,.92a7.47,7.47,0,0,1-.17,1.14c-.08.23-.16.46-.23.7a6.46,6.46,0,0,1-1.64,2.32,4.41,4.41,0,0,1-1.4.71,14.22,14.22,0,0,1-2.69.09,3.34,3.34,0,0,1-1.77-.56,4.07,4.07,0,0,1-1.09-1.48l-.08-.24a5.78,5.78,0,0,1,.08-3.14,2.62,2.62,0,0,0,.15-.39c.1-.21.21-.41.31-.62a7.08,7.08,0,0,1,1.72-1.86L31,7.65l.77-.39.7-.23Zm8.63.34a5.1,5.1,0,0,1,1.52-.44,5,5,0,0,1,1.85.17A3.66,3.66,0,0,1,45.67,8a3,3,0,0,1,.47,2.61c-.06.13-.11.26-.16.39s-.1.16-.16.24-.2.22-.31.32l-.32.17a1.31,1.31,0,0,1-1.49-.33,3.86,3.86,0,0,1-.12-1.07,3,3,0,0,1,0-.42.64.64,0,0,0-.47-.4,1.38,1.38,0,0,0-.87.13,2.36,2.36,0,0,0-.84.82l-.18.3a2.32,2.32,0,0,0-.26.86A1.71,1.71,0,0,0,41.17,13a2.23,2.23,0,0,0,1.26.47c1,0,2,0,3,0a5.14,5.14,0,0,1,.76.16c.14.1.27.21.4.32a1,1,0,0,0,.09.18c0,.15.05.3.08.45a5.17,5.17,0,0,1-.16.68l-.25.33-.32.24-.15.08a2.2,2.2,0,0,1-.87.19c-1.45,0-2.9,0-4.34,0l-.32-.1-.47-.18a6.37,6.37,0,0,1-.62-.44,6.64,6.64,0,0,1-.56-.63c-.14-.25-.27-.51-.39-.77a5.59,5.59,0,0,1,.16-3.76c.1-.21.2-.42.31-.62s.16-.26.23-.39a7.39,7.39,0,0,1,1.56-1.55l.47-.29Zm20.87-.43a5.62,5.62,0,0,1,2.38.24,4,4,0,0,1,1.84,1.66c0,.07.07.15.11.22a3.2,3.2,0,0,0,.16.39,5.6,5.6,0,0,1-.16,3.29,3.12,3.12,0,0,0-.15.39l-.39.77a5.09,5.09,0,0,1-1.64,1.72l-.46.23-.47.16a15.1,15.1,0,0,1-2.69.1c-.25,0-.49-.1-.75-.09a4.78,4.78,0,0,1-.74-.3,3.66,3.66,0,0,1-1.06-1.05l-.32-.61a5.66,5.66,0,0,1-.15-2.83,3,3,0,0,0,.08-.32l.15-.46c.15-.31.3-.62.47-.93l.16-.23A3.71,3.71,0,0,0,58.52,9a9.07,9.07,0,0,1,1.24-1.16L60,7.65a5.92,5.92,0,0,1,1.92-.71ZM70.17,7a1.46,1.46,0,0,1,1.47.16,1.66,1.66,0,0,1,.41.57,2.63,2.63,0,0,1-.09,1c-.12.26-.22.52-.32.78a2.5,2.5,0,0,0-.15.38c-.06.13-.11.26-.16.39s-.21.51-.31.77l-.15.38a3.12,3.12,0,0,0-.15.39,2.72,2.72,0,0,0-.11.25,1.72,1.72,0,0,0-.07.21c0,.08-.05.16-.08.23l-.09.23a.74.74,0,0,0,0,.6.93.93,0,0,0,.69.15,2,2,0,0,0,1-.27,1.84,1.84,0,0,0,.75-1c.05-.12.11-.25.15-.38s.11-.26.16-.39l.15-.38c.06-.13.11-.26.16-.39l.15-.38c0-.13.11-.26.15-.39s.11-.25.16-.38l.15-.39a3.12,3.12,0,0,0,.15-.39c.12-.26.25-.52.39-.77l.16-.24a2.61,2.61,0,0,1,.86-.65,6.91,6.91,0,0,1,.91,0,2,2,0,0,1,.64.5,1.11,1.11,0,0,1,.07.16c0,.08.07.17.11.25A4,4,0,0,1,77,9.43c-.06.13-.11.25-.16.38s-.11.26-.16.39l-.15.39c0,.12-.11.25-.15.38s-.11.26-.16.38l-.15.39c-.26.57-.48,1.16-.7,1.74a8.14,8.14,0,0,1,2.31.17,1.57,1.57,0,0,1,.39.46c0,.15,0,.3.1.45s-.08.49-.16.73a1.79,1.79,0,0,1-.57.56l-.31.16a5.66,5.66,0,0,1-1.54.11c-.69,0-1.38,0-2.07,0a2.07,2.07,0,0,1-.73-.58.59.59,0,0,1,0-.13l-.49.46L72,16l-.25.1c-1,0-1.92,0-2.89,0a1.17,1.17,0,0,0-.24-.09,2.73,2.73,0,0,1-.87-.55,3,3,0,0,1-.55-.86,3.2,3.2,0,0,1-.08-1.15,7.76,7.76,0,0,1,.32-1.07c.06-.13.11-.26.16-.39l.15-.38c.06-.13.11-.26.16-.39l.15-.38c.06-.13.11-.26.16-.39l.15-.38c.05-.13.11-.26.15-.39s.11-.26.16-.39l.15-.38A3.12,3.12,0,0,0,69,8.52c.1-.21.21-.41.31-.62A2.78,2.78,0,0,1,70.17,7ZM32.4,9.83a2,2,0,0,1,.93-.35c.18,0,.36.07.55.09a1.62,1.62,0,0,1,.71.71,2.86,2.86,0,0,1-.42,2.39,1.78,1.78,0,0,1-.75.69,2.21,2.21,0,0,1-1.64,0,1.3,1.3,0,0,1-.52-.57,2.46,2.46,0,0,1,.2-1.84,3,3,0,0,1,.94-1.13Zm29.34-.19a1.5,1.5,0,0,1,1-.1,1.31,1.31,0,0,1,.9.75,2.83,2.83,0,0,1-.16,1.92l-.18.32-.15.23a1.76,1.76,0,0,1-.59.56,2.65,2.65,0,0,1-.89.22A1.51,1.51,0,0,1,60.39,13a2.23,2.23,0,0,1,.12-2,2.86,2.86,0,0,1,1.23-1.32ZM87,13.35a2,2,0,0,1,1.28-.25l.26.1a2.07,2.07,0,0,1,.87.79,1.93,1.93,0,0,1,.08,1.38c-.06.1-.11.21-.16.31s-.37.38-.56.56a2,2,0,0,1-1.54.08l-.15-.09a1.81,1.81,0,0,1-.81-1.17c0-.22,0-.44,0-.67a2.44,2.44,0,0,1,.1-.24l.15-.32q.22-.24.48-.48Z" fill="#fff" fill-rule="evenodd"/>
</svg>
