<svg xmlns="http://www.w3.org/2000/svg" viewBox="0 0 104.37 32.45">
  <g>
    <path d="M102.79,21.65a1.55,1.55,0,1,1,.06,0,.06.06,0,0,1-.06,0m0-3a1.43,1.43,0,1,0,1.42,1.44h0a1.4,1.4,0,0,0-1.38-1.44h0m.39,2.43-.41-.88h-.33v.88h-.24v-2h.59c.44,0,.62.2.62.56a.48.48,0,0,1-.39.53l.42.9ZM102.44,20h.35c.28,0,.38-.09.38-.35s-.1-.34-.41-.34h-.32Z" fill="#fff"/>
    <path d="M79.36,20.22a3.64,3.64,0,0,0,2,.48,3.94,3.94,0,0,0,2.86-1,5.44,5.44,0,0,0,1.6-4.29,5.1,5.1,0,0,0-2.35-4.63A6.3,6.3,0,0,0,80.13,10a2.79,2.79,0,0,0-1,.12.53.53,0,0,0-.18.28c0,.36,0,3.11,0,4.73s0,4,0,4.27a1.23,1.23,0,0,0,.4.84m-4-11.15c.34,0,1.65.06,2.26.06,1.14,0,1.93-.06,4.06-.06A6.6,6.6,0,0,1,86,10.48a5.85,5.85,0,0,1,2,4.59,6,6,0,0,1-2.48,5.15,8.2,8.2,0,0,1-5.13,1.44c-1.21,0-3.3,0-5-.06h0c-.08-.16.15-.78.29-.8a2.5,2.5,0,0,0,.82-.16c.37-.15.46-.34.5-1,.06-1.24,0-2.73,0-4.41,0-1.2,0-3.55,0-4.29s-.33-.78-.86-.9A10.63,10.63,0,0,0,75,9.86a2,2,0,0,1,.37-.79" fill="#fff"/>
    <path d="M93,10.09c-.08,0-.18.22-.18.32,0,.72,0,2.61,0,3.91a.13.13,0,0,0,.1.1c.26,0,.91,0,1.46,0a3.48,3.48,0,0,0,1.46-.22,1.88,1.88,0,0,0,1-1.78c0-1.75-1.22-2.41-3-2.41a5.85,5.85,0,0,0-.73,0m4.6,8c0-1.76-1.3-2.77-3.67-2.77a9.35,9.35,0,0,0-1,0c-.06,0-.12.06-.12.1,0,1.27,0,3.29,0,4.09a1.38,1.38,0,0,0,.59,1,4.12,4.12,0,0,0,1.56.22,2.44,2.44,0,0,0,2.64-2.63m-8.26-9c.18,0,.72.06,2.1.06s2.35,0,3.61,0c1.56,0,3.71.56,3.71,2.89a2.8,2.8,0,0,1-1.87,2.5c-.06,0-.06.06,0,.08,1.5.38,2.82,1.31,2.82,3.07a3.75,3.75,0,0,1-2.63,3.49,8.45,8.45,0,0,1-3.33.56c-.91,0-3.36-.1-4.71-.08-.15-.06.13-.7.25-.8a3.61,3.61,0,0,0,.92-.15c.48-.12.54-.27.6-1s0-2.84,0-4.43c0-2.16,0-3.62,0-4.35,0-.56-.22-.74-.61-.84S89.44,10,89,9.89c-.1-.1.21-.7.31-.78" fill="#fff"/>
    <path d="M16.64,21.65a.77.77,0,0,1-.07-.4.52.52,0,0,1,.07-.27,6.57,6.57,0,0,0,.77-.16c.36-.09.5-.28.52-.74C18,19,18,17,18,15.54v0a.58.58,0,0,0-.19-.51,3.85,3.85,0,0,0-1.08-.47c-.17,0-.26-.14-.25-.24s.11-.23.33-.27a13,13,0,0,0,2.73-.71.43.43,0,0,1,.08.29,1.5,1.5,0,0,1,0,.2c0,.2,0,.43,0,.65a.15.15,0,0,0,.16.13.13.13,0,0,0,.09,0A5.07,5.07,0,0,1,22.5,13.3a2.32,2.32,0,0,1,2.07,1.28.19.19,0,0,0,.12.07.14.14,0,0,0,.11-.06,5.41,5.41,0,0,1,2.81-1.29c1.66,0,2.65,1.25,2.65,3.33,0,.6,0,1.35,0,2.06s0,1.2,0,1.61a.56.56,0,0,0,.33.42,3.85,3.85,0,0,0,1,.25h0a1.41,1.41,0,0,1-.1.68l-.45,0c-.35,0-.82,0-1.37,0-1.1,0-1.68,0-2.23.06a1.67,1.67,0,0,1,0-.67c.22,0,.45-.1.67-.16s.45-.28.47-.74.07-3.25,0-3.95a1.76,1.76,0,0,0-1.83-1.56,3.25,3.25,0,0,0-1.82.7.28.28,0,0,0-.07.17v0a7.41,7.41,0,0,1,.08,1.47V18.1c0,.8,0,1.56,0,2.13a.55.55,0,0,0,.43.57l.27.06a4.13,4.13,0,0,0,.57.11,1.25,1.25,0,0,1,0,.51.51.51,0,0,1-.07.17c-.62,0-1.25,0-2.15,0l-1.13,0-.79,0a.66.66,0,0,1-.06-.34.63.63,0,0,1,.06-.33l.25,0,.57-.11c.3-.1.41-.26.43-.65a29.28,29.28,0,0,0,0-4.1,1.69,1.69,0,0,0-1.75-1.56,3.28,3.28,0,0,0-1.82.7.57.57,0,0,0-.17.41v1.06c0,1.29,0,2.9,0,3.59a.58.58,0,0,0,.5.57l.42.07.32.06a1.42,1.42,0,0,1-.05.68l-.64,0c-.38,0-.86,0-1.39,0s-1.08,0-1.43,0l-.65,0" fill="#fff"/>
    <path d="M37,14.16a1.73,1.73,0,0,0-1,.27A2.75,2.75,0,0,0,35,17c0,2.35,1.18,4,2.86,4a1.78,1.78,0,0,0,1.23-.43,3.19,3.19,0,0,0,.8-2.5c0-2.32-1.15-3.87-2.87-3.87m.33,7.68c-3.05,0-4.13-2.24-4.13-4.33A3.85,3.85,0,0,1,35,14.12a5.35,5.35,0,0,1,2.74-.82,3.84,3.84,0,0,1,4,4.07,4.19,4.19,0,0,1-1.88,3.71,5.16,5.16,0,0,1-2.45.75" fill="#fff"/>
    <path d="M68,14.16a1.66,1.66,0,0,0-1,.27A2.74,2.74,0,0,0,66,17c0,2.35,1.18,4,2.87,4a1.79,1.79,0,0,0,1.24-.44A3.19,3.19,0,0,0,70.86,18c0-2.32-1.15-3.87-2.86-3.87m.32,7.68c-3,0-4.13-2.24-4.13-4.33A3.87,3.87,0,0,1,66,14.12a5.37,5.37,0,0,1,2.75-.81,3.83,3.83,0,0,1,3.94,4.06,4.2,4.2,0,0,1-1.87,3.71,5.21,5.21,0,0,1-2.46.76" fill="#fff"/>
    <path d="M57.74,14.08c-.94,0-1.54.74-1.54,1.89s.52,2.51,2,2.51a1.45,1.45,0,0,0,.93-.36,2.38,2.38,0,0,0,.57-1.65c0-1.5-.73-2.39-1.95-2.39M57.62,22a1.52,1.52,0,0,0-.76.18c-.74.48-1.09,1-1.09,1.51A1.62,1.62,0,0,0,56.4,25a3.23,3.23,0,0,0,2.15.65c1.83,0,2.64-1,2.64-1.94a1.39,1.39,0,0,0-1-1.39,8.1,8.1,0,0,0-2.54-.3m.12,4.65a3.91,3.91,0,0,1-2.55-.75,2.43,2.43,0,0,1-.95-1.77,1.44,1.44,0,0,1,.36-.91,9.73,9.73,0,0,1,1.65-1.32s.06,0,.06-.08a.1.1,0,0,0-.07-.09,1.75,1.75,0,0,1-1.17-1.13.11.11,0,0,0,0-.05.28.28,0,0,1,.11-.33l.5-.31a6.38,6.38,0,0,0,.82-.53.11.11,0,0,0,0-.11.13.13,0,0,0-.06-.1,2.61,2.61,0,0,1-1.87-2.75,2.74,2.74,0,0,1,1.14-2.25,5.25,5.25,0,0,1,2.57-.87h.05a5.09,5.09,0,0,1,2,.44,3.28,3.28,0,0,0,1.16.19,1.52,1.52,0,0,0,1.25-.48.92.92,0,0,1,.07.36,1.31,1.31,0,0,1-.23.83,1,1,0,0,1-.78.34h-.09a2.67,2.67,0,0,1-.48-.08l-.07,0s0,.08,0,.13v0a4.92,4.92,0,0,1,.11.77,2.87,2.87,0,0,1-1.21,2.59,4.09,4.09,0,0,1-2.09.81h0l-.24,0-.24,0h0c-.13,0-.49.21-.49.52s.16.59.93.65l.5,0a14.6,14.6,0,0,1,2.89.37,2,2,0,0,1,1.33,1.92,3.91,3.91,0,0,1-2.51,3.33,5.49,5.49,0,0,1-2.39.53" fill="#fff"/>
    <path d="M53.08,21a3.61,3.61,0,0,1-1.15-.3.47.47,0,0,1-.14-.29c0-.62,0-2.42,0-3.61a4.36,4.36,0,0,0-.56-2.4,2.45,2.45,0,0,0-2.07-1.08,4.82,4.82,0,0,0-2.72,1.28s-.15.15-.15-.05,0-.6,0-.85a.42.42,0,0,0-.13-.37A12.48,12.48,0,0,1,43.4,14c-.43.08-.54.5-.08.64h0a3.77,3.77,0,0,1,1.05.46.55.55,0,0,1,.16.5c0,1.34,0,3.41,0,4.53,0,.44-.14.6-.47.68h0a6.58,6.58,0,0,1-.75.14,1.1,1.1,0,0,0,0,.8c.2,0,1.24-.06,2.09-.06,1.17,0,1.78.06,2.08.06a1.13,1.13,0,0,0,.08-.8,3.87,3.87,0,0,1-.83-.12c-.32-.08-.4-.24-.42-.6-.05-.94-.05-2.95-.05-4.31a.79.79,0,0,1,.23-.66,2.6,2.6,0,0,1,1.66-.61,1.75,1.75,0,0,1,1.23.43A1.69,1.69,0,0,1,50,16.19C50,17,50,18.47,50,19.8c0,.72-.06.9-.32,1a3.3,3.3,0,0,1-.83.16,1,1,0,0,0,0,.8c.52,0,1.13-.06,2-.06,1.12,0,1.83.06,2.11.06a1.12,1.12,0,0,0,.08-.8" fill="#fff"/>
    <path d="M12.1,10.93C10.66,4.55,7.24,2.45,6.87,1.65A9.71,9.71,0,0,1,6.07.08L6,0a1.69,1.69,0,0,1-.59,1.35A15.36,15.36,0,0,0,0,12.82c-.32,6.76,4.89,10.78,5.6,11.3l.08.05h0s.22,1.62.38,3.28h.55a32.1,32.1,0,0,1,.58-3.51l0,0a8,8,0,0,0,.9-.73l0,0a12.93,12.93,0,0,0,4.16-9.68A14.45,14.45,0,0,0,12.1,10.93ZM6,20.3s0-9.48.32-9.48.56,12.23.56,12.23C6.44,23,6,21,6,20.3Z" fill="#fff"/>
  </g>
</svg>
