<svg xmlns="http://www.w3.org/2000/svg" viewBox="0 -9 60.59 30.7">
  <path d="M11.35,12.67a1.32,1.32,0,0,1-.93-.38L2.63,4.5v6.86a1.32,1.32,0,0,1-2.63,0v-10A1.33,1.33,0,0,1,.81.1,1.33,1.33,0,0,1,2.25.39L10,8.18V1.32a1.32,1.32,0,1,1,2.63,0v10a1.32,1.32,0,0,1-1.32,1.31M17.45,0l-.36.67-2.8,5.09-.36.64.36.64L17.09,12l.37.67h7.33l.36-.74L27.24,7.7l.93-1.91H26.05l-5.34,0a1.37,1.37,0,0,0-1.34,1.31,1.37,1.37,0,0,0,1.34,1.32l3.22,0L23.14,10H19l-2-3.62L19,2.65h4.41l1,2.11H27.1l-1.67-4L25.07,0H17.45M30.78,0a1.36,1.36,0,0,0-1.3,1.33V4.76h2.63V1.33A1.36,1.36,0,0,0,30.78,0M35,12.7a1.31,1.31,0,0,1-1.31-1.32v-10a1.32,1.32,0,1,1,2.63,0V8.2L44.11.41a1.31,1.31,0,0,1,2.24.94v10a1.32,1.32,0,1,1-2.63,0V4.52l-7.79,7.79a1.29,1.29,0,0,1-.93.39M56.1,6.35l4.1-4.08A1.32,1.32,0,0,0,58.34.41L54.24,4.5,50.14.41a1.32,1.32,0,0,0-1.86,1.86l4.09,4.08-4.08,4.07a1.32,1.32,0,0,0,1.86,1.87l4.09-4.08,4.09,4.08a1.32,1.32,0,0,0,.93.38,1.3,1.3,0,0,0,.93-.39,1.32,1.32,0,0,0,0-1.86L56.1,6.35M30.78,12.66a1.36,1.36,0,0,1-1.3-1.33V5.82h2.63v5.51a1.36,1.36,0,0,1-1.33,1.33" fill="#fff"/>
</svg>
