<svg xmlns="http://www.w3.org/2000/svg" viewBox="0 0 28.03 31.58">
  <path d="M14,31.58a2.61,2.61,0,0,1-1.22-.32L8.94,29c-.58-.32-.29-.44-.12-.49a7.19,7.19,0,0,0,1.74-.79.28.28,0,0,1,.29,0l3,1.77a.36.36,0,0,0,.35,0l11.57-6.7a.33.33,0,0,0,.18-.32V9.1a.32.32,0,0,0-.18-.32L14.16,2.1a.43.43,0,0,0-.35,0L2.23,8.78a.36.36,0,0,0-.17.32V22.47a.37.37,0,0,0,.17.32L5.4,24.62c1.71.87,2.78-.15,2.78-1.16V10.26a.35.35,0,0,1,.35-.35H10a.35.35,0,0,1,.35.35v13.2c0,2.29-1.25,3.62-3.43,3.62a5,5,0,0,1-2.67-.72l-3-1.74A2.45,2.45,0,0,1,0,22.5V9.12A2.42,2.42,0,0,1,1.22,7L12.79.3a2.63,2.63,0,0,1,2.44,0L26.81,7A2.44,2.44,0,0,1,28,9.12V22.5a2.47,2.47,0,0,1-1.22,2.12l-11.58,6.7A3,3,0,0,1,14,31.58Zm3.57-9.2c-5.08,0-6.12-2.32-6.12-4.29a.36.36,0,0,1,.35-.35h1.51a.3.3,0,0,1,.32.29c.23,1.54.9,2.29,4,2.29,2.44,0,3.48-.55,3.48-1.85,0-.76-.29-1.31-4.09-1.69-3.16-.32-5.13-1-5.13-3.54,0-2.35,2-3.74,5.28-3.74,3.71,0,5.54,1.28,5.77,4.06a.43.43,0,0,1-.09.26.33.33,0,0,1-.23.12H21.09a.35.35,0,0,1-.32-.26c-.34-1.6-1.24-2.12-3.62-2.12-2.67,0-3,.93-3,1.63s.38,1.1,4,1.56,5.25,1.13,5.25,3.63S21.27,22.38,17.58,22.38Z" fill="#fff"/>
</svg>
