<?xml version="1.0" encoding="utf-8"?>
<!-- Generator: Adobe Illustrator 24.3.0, SVG Export Plug-In . SVG Version: 6.00 Build 0)  -->
<svg version="1.1" id="Layer_1" xmlns="http://www.w3.org/2000/svg" xmlns:xlink="http://www.w3.org/1999/xlink" x="0px" y="0px"
	 viewBox="0 0 30.91 30.14" enable-background="new 0 0 30.91 30.14" xml:space="preserve">
<g>
	<path fill="#FFFFFF" d="M12.74,10.44c-0.48-0.19-1-0.28-1.52-0.26h-0.88c-0.18-0.02-0.35-0.02-0.53,0L9.8,10.23v4.33h0.51H11
		c0.5,0,1-0.08,1.48-0.23c0.41-0.12,0.78-0.36,1.06-0.68c0.29-0.38,0.43-0.85,0.4-1.33c0.01-0.4-0.09-0.8-0.3-1.15
		C13.42,10.84,13.11,10.58,12.74,10.44z"/>
	<path fill="#FFFFFF" d="M25.47,0h-20C2.45,0,0,2.45,0,5.47v19.2c0,3.02,2.45,5.47,5.47,5.47h20c0.01,0,0.01,0,0.02,0
		c3.02-0.01,5.46-2.45,5.45-5.47V5.47c0-0.01,0-0.01,0-0.02C30.93,2.43,28.49-0.01,25.47,0z M15.92,15
		c-0.52,0.72-1.24,1.27-2.07,1.57C12.93,16.88,11.97,17.02,11,17c-0.22,0.01-0.43,0.01-0.65,0h-0.6v4.13
		c0.01,0.09-0.05,0.17-0.14,0.18c0,0,0,0,0,0h-2.5C7,21.3,7,21.25,7,21.14V7.88c0-0.09,0-0.14,0.12-0.14h0.73h1h1.13
		c0.39,0,0.78,0,1.17,0c0.9-0.03,1.8,0.11,2.65,0.4c0.65,0.22,1.24,0.58,1.73,1.06c0.41,0.42,0.74,0.92,0.94,1.47
		c0.19,0.54,0.29,1.1,0.29,1.67C16.76,13.29,16.47,14.22,15.92,15z M25.05,20c-0.36,0.51-0.86,0.91-1.44,1.14
		c-0.74,0.3-1.53,0.44-2.33,0.42c-0.59,0-1.17-0.06-1.75-0.17c-0.45-0.08-0.9-0.21-1.32-0.39c-0.09-0.05-0.14-0.15-0.14-0.25v-2.24
		c0-0.05,0.02-0.09,0.05-0.12c0.04-0.02,0.08-0.02,0.12,0c0.5,0.29,1.04,0.5,1.6,0.63c0.5,0.13,1.01,0.19,1.52,0.19
		c0.37,0.02,0.73-0.04,1.07-0.18c0.21-0.1,0.34-0.31,0.34-0.54c-0.02-0.21-0.13-0.4-0.31-0.52c-0.39-0.25-0.82-0.45-1.26-0.6
		c-0.65-0.23-1.26-0.54-1.83-0.93c-0.41-0.29-0.75-0.66-1-1.09c-0.2-0.41-0.3-0.86-0.29-1.32c0-0.55,0.15-1.09,0.44-1.56
		c0.33-0.52,0.8-0.93,1.35-1.18c0.71-0.33,1.5-0.48,2.28-0.45c0.54,0,1.07,0.04,1.6,0.11c0.38,0.06,0.75,0.16,1.1,0.3
		c0.06,0.02,0.11,0.06,0.13,0.12c0,0.05,0,0.1,0,0.15v2.1c0,0.05-0.03,0.1-0.07,0.13c-0.06,0.03-0.12,0.03-0.18,0.02
		c-0.39-0.21-0.81-0.36-1.24-0.44c-0.47-0.11-0.96-0.16-1.44-0.17c-0.26-0.01-0.52,0.02-0.77,0.09c-0.16,0.03-0.3,0.13-0.4,0.26
		c-0.06,0.11-0.1,0.23-0.1,0.35c0,0.12,0.05,0.24,0.13,0.33c0.12,0.15,0.26,0.26,0.43,0.35c0.3,0.16,0.61,0.3,0.92,0.43
		c0.7,0.23,1.37,0.55,2,0.94c0.42,0.27,0.76,0.64,1,1.07c0.21,0.41,0.31,0.86,0.3,1.32C25.57,18.91,25.39,19.5,25.05,20z"/>
</g>
</svg>
