<svg xmlns="http://www.w3.org/2000/svg" viewBox="0 -5 35.09 28.57">
  <g>
    <path d="M22.14,16.57c.07-.37.14-.73.22-1.1.29-1.44.59-2.89.88-4.33l.84-4.05c.24-1.19.48-2.37.73-3.56a.52.52,0,0,1,0-.11h.11c2,0,4,0,6.06,0a5.14,5.14,0,0,1,2.43.6A3,3,0,0,1,35,6.25,5.89,5.89,0,0,1,30.69,13a5.33,5.33,0,0,1-1.64.18c-.42,0-.84,0-1.26,0H26c-.05.24-.1.48-.14.72-.18.87-.35,1.75-.52,2.63a.13.13,0,0,0,0,.06Zm4.53-5.84h1.64a4.77,4.77,0,0,0,1.13-.12,2.56,2.56,0,0,0,2-1.77,5.73,5.73,0,0,0,.26-1.42,1.3,1.3,0,0,0-.87-1.37,2.31,2.31,0,0,0-.93-.19H27.58s-.07,0-.07.06l-.3,1.75-.45,2.58Z" fill="#fff"/>
    <path d="M0,16.57c.07-.34.14-.68.2-1,.29-1.38.57-2.77.86-4.16L2,7c.24-1.15.47-2.31.71-3.46,0,0,0-.06,0-.09H2.8c2,0,4,0,6.06,0a5,5,0,0,1,2.6.7,3,3,0,0,1,1.4,2.07A5.9,5.9,0,0,1,8.69,13a5.61,5.61,0,0,1-1.78.21c-.55,0-1.09,0-1.64,0H4c-.07,0-.09,0-.11.1-.21,1.08-.43,2.16-.64,3.24a.22.22,0,0,1,0,.08Zm4.54-5.84H6.16a4.91,4.91,0,0,0,1.14-.12,2.54,2.54,0,0,0,2-1.75,5.91,5.91,0,0,0,.28-1.45,1.31,1.31,0,0,0-.84-1.35,2.78,2.78,0,0,0-1-.21H5.45s-.07,0-.08.07c-.08.47-.17.93-.25,1.4-.16,1-.33,1.94-.5,2.9C4.59,10.39,4.57,10.55,4.54,10.73Z" fill="#fff"/>
    <path d="M12,13.14c.06-.27.11-.53.16-.79l.93-4.52c.31-1.52.62-3,.94-4.58.21-1,.42-2.08.64-3.13,0-.14,0-.12.14-.12h3.07l-.67,3.41h.14c.94,0,1.89,0,2.83,0a4.93,4.93,0,0,1,2.23.51A2.21,2.21,0,0,1,23.52,5.2a2.37,2.37,0,0,1,.06,1.24L23.13,9c-.15.87-.31,1.75-.46,2.63-.09.48-.17,1-.26,1.44a.44.44,0,0,1,0,.1H19c0-.23.09-.45.13-.67.24-1.21.48-2.42.71-3.62.13-.64.26-1.28.38-1.93a2.15,2.15,0,0,0,0-.51.52.52,0,0,0-.38-.48,1.75,1.75,0,0,0-.64-.1H16.75c-.07,0-.09,0-.1.08L15.87,9.7c-.24,1.12-.47,2.25-.7,3.38a.08.08,0,0,1-.08.07H12Z" fill="#fff"/>
  </g>
</svg>
