<svg xmlns="http://www.w3.org/2000/svg" viewBox="0 0 30.1 30.14">
  <g>
    <path d="M0,15.05C0,12.13,0,9.2,0,6.28A6.61,6.61,0,0,1,6.25.05C11.07,0,15.89,0,20.71,0a23.75,23.75,0,0,1,4.05.17,6.54,6.54,0,0,1,5.3,6.21c.05,5.79.06,11.57,0,17.36a6.63,6.63,0,0,1-6.25,6.33c-2.36.08-4.72,0-7.07,0H7A6.77,6.77,0,0,1,.08,24.44,6.47,6.47,0,0,1,0,23.19c0-2.71,0-5.43,0-8.14Zm15,14v0h8.2A5.68,5.68,0,0,0,29,23.26Q29,15,29,6.78a5.67,5.67,0,0,0-5.64-5.67Q15,1.1,6.7,1.11A5.64,5.64,0,0,0,1.11,6.63q0,8.46,0,16.91A5.54,5.54,0,0,0,6.3,29C9.22,29.08,12.14,29,15.06,29Z" fill="#fff"/>
    <path d="M5,25.29A10.56,10.56,0,0,1,9.78,15.06a18.6,18.6,0,0,1,5.6-2.37,20.25,20.25,0,0,0,6.83-3.11,6,6,0,0,0,2.53-4.21c0-.12.06-.24.12-.52a9,9,0,0,1,.27,4.06,9.6,9.6,0,0,1-4.46,6.71,21.64,21.64,0,0,1-7.44,3.09c-1.15.29-2.28.63-3.41,1a7.2,7.2,0,0,0-4.54,4.66c-.06.16-.1.32-.15.48S5,25.14,5,25.29Z" fill="#fff"/>
  </g>
</svg>
