<svg xmlns="http://www.w3.org/2000/svg" viewBox="0 0 35.29 31.43">
  <g>
    <path d="M35.29,15.72c0-2.34-2.92-4.56-7.41-5.93,1-4.57.57-8.21-1.46-9.38A3.15,3.15,0,0,0,24.81,0v1.6a1.68,1.68,0,0,1,.82.19c1,.56,1.4,2.7,1.07,5.44-.08.68-.2,1.39-.36,2.12a33.69,33.69,0,0,0-4.57-.78,34.82,34.82,0,0,0-3-3.6c2.34-2.18,4.54-3.38,6-3.38V0c-2,0-4.57,1.41-7.19,3.86C15,1.42,12.42,0,10.45,0v1.6c1.48,0,3.69,1.19,6,3.36a31.33,31.33,0,0,0-3,3.59,32.07,32.07,0,0,0-4.58.79C8.78,8.65,8.65,8,8.57,7.28c-.34-2.75.08-4.88,1-5.45a1.57,1.57,0,0,1,.83-.19V0a3.23,3.23,0,0,0-1.63.4C6.8,1.6,6.34,5.24,7.39,9.8,2.91,11.18,0,13.39,0,15.72s2.93,4.55,7.42,5.93c-1,4.57-.58,8.21,1.45,9.38a3.19,3.19,0,0,0,1.62.4c2,0,4.57-1.41,7.19-3.86,2.61,2.44,5.2,3.83,7.18,3.83a3.26,3.26,0,0,0,1.63-.4c2-1.17,2.47-4.8,1.43-9.36C32.38,20.27,35.29,18.05,35.29,15.72Zm-9.36-4.8c-.27.93-.6,1.89-1,2.84-.3-.57-.61-1.15-.95-1.72s-.68-1.14-1-1.69C24,10.5,25,10.69,25.93,10.92Zm-3.3,7.66c-.56,1-1.13,1.89-1.73,2.75-1.07.09-2.16.14-3.25.14s-2.18,0-3.24-.13c-.6-.86-1.18-1.77-1.74-2.74s-1-1.9-1.5-2.86c.45-1,.95-1.93,1.49-2.87S13.8,11,14.39,10.12C15.47,10,16.55,10,17.65,10s2.17,0,3.23.13c.6.86,1.18,1.77,1.74,2.74s1.05,1.9,1.5,2.86C23.67,16.68,23.17,17.64,22.63,18.58ZM25,17.65c.38,1,.71,1.92,1,2.86-.94.23-1.94.42-3,.58.36-.56.71-1.13,1-1.71S24.66,18.22,25,17.65Zm-7.3,7.67a29.22,29.22,0,0,1-2-2.3c.65,0,1.31.05,2,.05s1.34,0,2-.05A29.12,29.12,0,0,1,17.66,25.32Zm-5.35-4.23c-1-.16-2-.34-3-.57.27-.93.6-1.89,1-2.84.3.57.6,1.15.94,1.72S12,20.54,12.31,21.09Zm5.31-15c.67.7,1.34,1.47,2,2.31-.64,0-1.3-.05-2-.05s-1.35,0-2,.05A29,29,0,0,1,17.62,6.11ZM12.3,10.35c-.35.56-.7,1.12-1,1.71s-.64,1.15-.94,1.72a28.59,28.59,0,0,1-1-2.86C10.28,10.7,11.27,10.5,12.3,10.35Zm-6.51,9C3.24,18.27,1.6,16.85,1.6,15.72s1.64-2.56,4.19-3.64a21.09,21.09,0,0,1,2-.73A34.2,34.2,0,0,0,9.4,15.73a34.2,34.2,0,0,0-1.59,4.36C7.09,19.87,6.42,19.62,5.79,19.36ZM9.66,29.64c-1-.56-1.4-2.7-1.07-5.45.08-.67.21-1.39.37-2.11a35.45,35.45,0,0,0,4.56.78,36,36,0,0,0,3,3.6c-2.35,2.18-4.55,3.37-6,3.37A1.67,1.67,0,0,1,9.66,29.64Zm17.07-5.48c.33,2.75-.08,4.88-1.06,5.45a1.56,1.56,0,0,1-.82.19c-1.49,0-3.7-1.19-6.05-3.36a32.45,32.45,0,0,0,3-3.59,32.17,32.17,0,0,0,4.57-.79A19.49,19.49,0,0,1,26.73,24.16Zm2.76-4.8c-.61.26-1.29.5-2,.73a34.88,34.88,0,0,0-1.62-4.39,31.85,31.85,0,0,0,1.6-4.36c.71.23,1.39.47,2,.74,2.55,1.08,4.2,2.51,4.2,3.64S32,18.28,29.49,19.36Z" fill="#fff"/>
    <path d="M17.64,19a3.29,3.29,0,1,0-3.29-3.29A3.29,3.29,0,0,0,17.64,19Z" fill="#fff"/>
  </g>
</svg>
