<svg xmlns="http://www.w3.org/2000/svg" viewBox="0 0 32.36 30.76">
  <g>
    <path d="M23.52,30.76l-.13,0c-.29,0-.58,0-.87,0a11.23,11.23,0,0,1-2-.39,13.59,13.59,0,0,1-2.08-.76l-.09-.05.09-.07,1.37-1.08.29-.26a.12.12,0,0,1,.16,0,10.91,10.91,0,0,0,1.86.6,9.83,9.83,0,0,0,1.21.19c.27,0,.55,0,.82,0a6.17,6.17,0,0,0,1.05-.06,6.66,6.66,0,0,0,1.66-.44A5.56,5.56,0,0,0,29,26.81,6.36,6.36,0,0,0,30.13,25a4.61,4.61,0,0,0,.31-1.2c0-.24,0-.49,0-.73A6.44,6.44,0,0,0,30.11,21,10.69,10.69,0,0,0,28.51,18a12.16,12.16,0,0,0-3-2.75,15.94,15.94,0,0,0-3.71-1.81,14.6,14.6,0,0,0-2.28-.56c-.37-.06-.74-.11-1.12-.15-.22,0-.45,0-.68,0H16.15a.13.13,0,0,0-.12.08,2.62,2.62,0,0,1-.33.53,2.25,2.25,0,0,1-1.46.78,2.29,2.29,0,0,1-1.35-4.31,2.14,2.14,0,0,1,1-.25,2.23,2.23,0,0,1,2,1.15.15.15,0,0,0,.14.08h1.25c.31,0,.62,0,.93.05s.49,0,.74.07c.41,0,.82.11,1.23.19a15.22,15.22,0,0,1,2.65.7,16,16,0,0,1,4.82,2.69,15.41,15.41,0,0,1,2.67,2.8A10.33,10.33,0,0,1,32,20.41a10.86,10.86,0,0,1,.34,1.5,8.4,8.4,0,0,1,.07,1.42A7,7,0,0,1,32,25.54a6.18,6.18,0,0,1-1.2,2.08A8.83,8.83,0,0,1,27.54,30a9.43,9.43,0,0,1-2.1.63,8.86,8.86,0,0,1-1.05.13l-.54,0-.11,0Z" fill="#fff"/>
    <path d="M24.46,10.11l-.1,0c-.6-.21-1.21-.4-1.83-.56h-.06a.06.06,0,0,1,0-.07,10.41,10.41,0,0,0-1-3.4,8.85,8.85,0,0,0-1.24-2,5.85,5.85,0,0,0-1.68-1.45A4.34,4.34,0,0,0,16.82,2,3.82,3.82,0,0,0,16.14,2a8.14,8.14,0,0,0-.85.08,7.4,7.4,0,0,0-1.54.39A6.75,6.75,0,0,0,11.62,3.6a5.56,5.56,0,0,0-1,1.11A10.75,10.75,0,0,0,8.87,8.52,9.51,9.51,0,0,0,8.6,10a10.67,10.67,0,0,0-.1,1.38c0,.29,0,.58,0,.86s0,.77.07,1.15a14.68,14.68,0,0,0,.49,2.71,15.84,15.84,0,0,0,.8,2.18c.22.49.47,1,.74,1.43,0,0,0,0,0,0s.11.16.22.11A2.42,2.42,0,0,1,12,20a2.22,2.22,0,0,1,1.34,1.71,2.26,2.26,0,0,1-1.15,2.41,2.18,2.18,0,0,1-1.24.28,2.29,2.29,0,0,1-2.12-1.86,2.24,2.24,0,0,1,.24-1.52.17.17,0,0,0,0-.19A19.11,19.11,0,0,1,7.31,17a16.67,16.67,0,0,1-.54-2.19q-.12-.64-.18-1.29c0-.28,0-.55-.06-.83,0-.44,0-.88,0-1.31a7,7,0,0,1,.05-.8c0-.4.09-.79.15-1.18a12.84,12.84,0,0,1,.35-1.61A16.13,16.13,0,0,1,7.7,6a10.23,10.23,0,0,1,2-3.07,9.34,9.34,0,0,1,2.66-2A8.1,8.1,0,0,1,14.48.14c.28-.05.56-.08.83-.11a5.57,5.57,0,0,1,1.08,0A6.56,6.56,0,0,1,17.9.29a7.65,7.65,0,0,1,2.88,1.6,9.65,9.65,0,0,1,2.41,3.19,12.25,12.25,0,0,1,.91,2.61c.12.5.21,1,.28,1.51,0,.27.05.54.08.81Z" fill="#fff"/>
    <path d="M4.77,14.44c0,.14.06.26.08.38.13.54.27,1.08.44,1.61,0,.08,0,.08,0,.14a10.47,10.47,0,0,0-2.3,2.53,7.33,7.33,0,0,0-1,2.46,5.66,5.66,0,0,0-.12.81c0,.15,0,.29,0,.43a5.84,5.84,0,0,0,.37,2,6.31,6.31,0,0,0,1.13,1.92,5.15,5.15,0,0,0,1.86,1.37,6.48,6.48,0,0,0,1.73.5c.26,0,.53.07.8.09s.48,0,.72,0a11.12,11.12,0,0,0,1.41-.09A11.51,11.51,0,0,0,12,28.12a13.29,13.29,0,0,0,2.08-.92,20.24,20.24,0,0,0,2.17-1.36A14.24,14.24,0,0,0,19,23.3,13.25,13.25,0,0,0,20.53,21l0,0s0-.08,0-.12l-.17-.21a2.25,2.25,0,0,1-.45-1.27,2.29,2.29,0,0,1,4.26-1.27,2.51,2.51,0,0,1,.32,1,2.29,2.29,0,0,1-1.73,2.42l-.22,0a.16.16,0,0,0-.12.09l-.35.67a16.55,16.55,0,0,1-2.39,3.32,16,16,0,0,1-4.08,3.14,17.33,17.33,0,0,1-4.24,1.58l-1.26.25c-.26,0-.53.06-.79.09a9.74,9.74,0,0,1-1.08,0,8.93,8.93,0,0,1-1-.07,10.72,10.72,0,0,1-1.48-.28,8.63,8.63,0,0,1-3-1.49,6.37,6.37,0,0,1-2-2.62,8.63,8.63,0,0,1-.57-2c0-.28-.06-.57-.08-.86a5.82,5.82,0,0,1,0-.59,9.43,9.43,0,0,1,.07-1.06,8.68,8.68,0,0,1,.45-1.89,10,10,0,0,1,1.32-2.51A12.43,12.43,0,0,1,4.11,15l.56-.44Z" fill="#fff"/>
  </g>
</svg>
