<svg xmlns="http://www.w3.org/2000/svg" viewBox="0 0 41.26 30.94">
  <path d="M35.53,17.79a8.63,8.63,0,0,0-3.74.86A8.08,8.08,0,0,1,31,16.72a5.41,5.41,0,0,1-.07-1.63,15.5,15.5,0,0,1,.49-1.76c0-.07-.09-.43-.92-.43s-1.55.16-1.63.37a10.5,10.5,0,0,0-.35,1.23A28.26,28.26,0,0,1,26,19.36a5.15,5.15,0,0,1-.57-1.42,5.09,5.09,0,0,1-.08-1.63,14.52,14.52,0,0,1,.49-1.75c0-.08-.09-.43-.92-.44s-1.54.16-1.63.37-.17.74-.34,1.23-2.19,5-2.72,6.15c-.27.6-.5,1.07-.67,1.4a.12.12,0,0,1,0,.06l-.22.43h0c-.12.21-.24.4-.3.4a2.69,2.69,0,0,1,0-1.28c.3-1.56,1-4,1-4.07s.13-.47-.47-.69a.74.74,0,0,0-.85.14c-.05,0-.09.13-.09.13s.66-2.73-1.25-2.73c-1.19,0-2.84,1.31-3.65,2.48l-2.77,1.52-1.34.73-.09-.1c-2.3-2.46-6.57-4.21-6.39-7.51.07-1.21.48-4.37,8.19-8.22,6.35-3.13,11.4-2.26,12.27-.34,1.25,2.75-2.7,7.84-9.26,8.58-2.5.28-3.81-.69-4.14-1.05s-.4-.4-.53-.32-.08.45,0,.65A3.87,3.87,0,0,0,12,13.94a12.6,12.6,0,0,0,7.68-.76c4-1.54,7.08-5.81,6.17-9.39S18.9-1,13.19,1A28.79,28.79,0,0,0,3.48,6.56C.33,9.5-.16,12.05,0,13.12c.73,3.8,6,6.27,8.06,8.1a2.14,2.14,0,0,1-.28.16c-1.05.52-5,2.61-6,4.82C.65,28.7,2,30.49,2.83,30.74a6.46,6.46,0,0,0,6.94-2.82,7,7,0,0,0,.62-6.41l0,0,.82-.49c.53-.31,1.06-.61,1.51-.85a10.19,10.19,0,0,0-.53,2.75,5.73,5.73,0,0,0,1.23,4,1.35,1.35,0,0,0,1,.33c.89,0,1.29-.74,1.74-1.61.54-1.07,1-2.32,1-2.32s-.61,3.36,1.05,3.36c.6,0,1.21-.78,1.48-1.18h0l.05-.08.09-.16h0c.24-.42.79-1.38,1.59-3,1-2,2.05-4.61,2.05-4.61a13,13,0,0,0,.4,1.66,15.82,15.82,0,0,0,.85,1.93c-.24.34-.39.53-.39.53h0c-.2.25-.41.53-.64.8A25.58,25.58,0,0,0,21.75,25a.66.66,0,0,0,.18.89,1.63,1.63,0,0,0,1,.17,5,5,0,0,0,1.52-.35,4.85,4.85,0,0,0,1.3-.69A2.88,2.88,0,0,0,27,22.42a5.11,5.11,0,0,0-.47-1.81l.22-.32A35.09,35.09,0,0,0,29,16.39a13,13,0,0,0,.4,1.66,11.22,11.22,0,0,0,.73,1.66A7.08,7.08,0,0,0,28,22.55c-.48,1.37-.11,2,.59,2.13a2.09,2.09,0,0,0,1.1-.22,5,5,0,0,0,1.4-.72,3.12,3.12,0,0,0,1.53-2.55,4.66,4.66,0,0,0-.34-1.5,7.87,7.87,0,0,1,4-.46c3.59.42,4.3,2.66,4.16,3.6a2.4,2.4,0,0,1-1.14,1.61c-.25.16-.33.21-.31.33s.15.16.36.13a2.83,2.83,0,0,0,2-2.5C41.37,20.18,39.26,17.77,35.53,17.79ZM7.86,27.12C6.66,28.41,5,28.9,4.29,28.49s-.47-2.36,1-3.73a18.69,18.69,0,0,1,2.79-2.09l.74-.44.08-.05.18-.11A5.14,5.14,0,0,1,7.86,27.12Zm8.66-5.9c-.41,1-1.28,3.6-1.81,3.46s-.73-2.08-.09-4A9.45,9.45,0,0,1,16,18.07c.65-.72,1.37-1,1.54-.67S16.78,20.59,16.52,21.22Zm7.15,3.43c-.17.09-.33.15-.41.1s.08-.15.08-.15.89-1,1.25-1.4l.7-.9v.1C25.29,23.55,24.17,24.33,23.67,24.65Zm5.52-1.26c-.13-.09-.1-.39.32-1.34a5.15,5.15,0,0,1,1.23-1.58,2,2,0,0,1,.12.69A2.27,2.27,0,0,1,29.19,23.39Z" fill="#fff"/>
</svg>
